<?xml version="1.0" standalone="no"?>
<!DOCTYPE svg PUBLIC "-//W3C//DTD SVG 1.1//EN" "http://www.w3.org/Graphics/SVG/1.1/DTD/svg11.dtd" >
<svg xmlns="http://www.w3.org/2000/svg" xmlns:xlink="http://www.w3.org/1999/xlink" version="1.1">
<metadata>
Created by FontForge 20200427 at Wed Oct 30 22:03:45 2013
 By www
Copyright (c) 2013 by Tiponautas. All rights reserved.
</metadata>
<defs>
<font id="LabSansPro-Medium" horiz-adv-x="529" >
  <font-face 
    font-family="Lab Sans Pro Medium"
    font-weight="500"
    font-stretch="normal"
    units-per-em="1000"
    panose-1="2 0 6 6 3 0 0 2 0 4"
    ascent="754"
    descent="-246"
    x-height="498"
    cap-height="699"
    bbox="-64 -249 1127 1051"
    underline-thickness="50"
    underline-position="-150"
    unicode-range="U+0020-FB04"
  />
<missing-glyph horiz-adv-x="570" 
d="M530 0h-490v678h490v-678zM118 633l167 -250l167 250h-334zM481 589l-167 -250l167 -250v500zM285 295l-167 -250h334zM89 589v-500l167 250z" />
    <glyph glyph-name="ff" unicode="ff" horiz-adv-x="622" 
d="M203 0h-103v404h-90v94h90v81q0 46 25.5 73.5t74.5 27.5h103l6 -93h-65q-40 0 -40 -44v-45h186v107q0 46 25.5 73.5t74.5 27.5h106l6 -93h-69q-40 0 -40 -44v-71h108v-94h-109v-404h-103v404h-186v-404z" />
    <glyph glyph-name="fi" unicode="fi" horiz-adv-x="562" 
d="M492 0h-103v498h103v-498zM204 498h108v-94h-109v-404h-103v404h-90v94h90v107q0 45 27 71.5t77 26.5h183q106 0 106 -101v-44h-103v15q0 37 -39 37h-107q-40 0 -40 -44v-68z" />
    <glyph glyph-name="fl" unicode="fl" horiz-adv-x="562" 
d="M203 0h-103v404h-90v94h90v100q0 101 117 101h175l100 7v-706h-103v606h-145q-40 0 -40 -44v-64h108v-94h-109v-404z" />
    <glyph glyph-name="ffi" unicode="ffi" horiz-adv-x="852" 
d="M493 498h109v-94h-110v-404h-103v404h-186v-404h-103v404h-90v94h90v81q0 46 25.5 73.5t74.5 27.5h103l6 -93h-65q-40 0 -40 -44v-45h186v107q0 45 27 71.5t77 26.5h184q106 0 106 -101v-44h-104v15q0 37 -40 37h-107q-40 0 -40 -44v-68zM782 0h-104v498h104v-498z" />
    <glyph glyph-name="ffl" unicode="ffl" horiz-adv-x="852" 
d="M203 0h-103v404h-90v94h90v81q0 46 25.5 73.5t74.5 27.5h103l6 -93h-65q-40 0 -40 -44v-45h186v97q0 49 27 76.5t80 27.5h182l103 7v-706h-103v606h-146q-40 0 -40 -44v-64h108v-94h-109v-404h-103v404h-186v-404z" />
    <glyph glyph-name="T_h" unicode="Th" horiz-adv-x="985" 
d="M625 0h-103v610h-205v-610h-103v610h-174v89h482l102 9v-236l25 26h191q34 0 54.5 -21.5t20.5 -59.5v-417h-103v359q0 43 -42 43h-103q-42 0 -42 -49v-353z" />
    <glyph glyph-name="Tcaron_h" unicode="&#x164;h" horiz-adv-x="985" 
d="M625 0h-103v610h-205v-610h-103v610h-174v89h482l102 9v-236l25 26h191q34 0 54.5 -21.5t20.5 -59.5v-417h-103v359q0 43 -42 43h-103q-42 0 -42 -49v-353zM304 744h-83l-87 115h96l33 -42l32 42h98z" />
    <glyph glyph-name="Tcommaaccent_h" unicode="&#x162;h" horiz-adv-x="985" 
d="M218 -147v102h96v-101l-24 -96h-74l25 95h-23zM625 0h-103v610h-205v-610h-103v610h-174v89h482l102 9v-236l25 26h191q34 0 54.5 -21.5t20.5 -59.5v-417h-103v359q0 43 -42 43h-103q-42 0 -42 -49v-353z" />
    <glyph glyph-name="Tbar_h" unicode="&#x166;h" horiz-adv-x="985" 
d="M625 0h-103v610h-205v-228h78v-77h-78v-305h-103v305h-78v77h78v228h-174v89h482l102 9v-236l25 26h191q34 0 54.5 -21.5t20.5 -59.5v-417h-103v359q0 43 -42 43h-103q-42 0 -42 -49v-353z" />
    <glyph glyph-name="f_j" unicode="fj" horiz-adv-x="563" 
d="M389 -99v597h104v-627q0 -45 -28.5 -73t-78.5 -28h-77l-5 92h43q42 0 42 39zM204 498h108v-94h-109v-404h-103v404h-90v94h90v107q0 45 27 71.5t77 26.5h182q106 0 106 -101v-44h-102v15q0 37 -40 37h-106q-40 0 -40 -44v-68z" />
    <glyph glyph-name="f_f_j" unicode="ffj" horiz-adv-x="812" 
d="M678 -99v597h104v-627q0 -45 -29 -73t-79 -28h-77l-5 92h43q43 0 43 39zM493 498h109v-94h-110v-404h-103v404h-186v-404h-103v404h-90v94h90v81q0 46 25.5 73.5t74.5 27.5h103l6 -93h-65q-40 0 -40 -44v-45h186v107q0 45 27 71.5t77 26.5h181q107 0 107 -101v-44h-103
v15q0 37 -40 37h-105q-41 0 -41 -44v-68z" />
    <glyph glyph-name="f_f_k" unicode="ffk" horiz-adv-x="1103" 
d="M203 0h-103v404h-90v94h90v81q0 46 25.5 73.5t74.5 27.5h103l6 -93h-65q-40 0 -40 -44v-45h185v100q0 101 117 101h177l99 7v-411h94q46 0 53 39l33 164h104l-49 -232l-21 -19l22 -20l55 -227h-104l-40 160q-9 39 -50 39h-97v-199h-104v606h-146q-40 0 -40 -44v-64h109
v-94h-109v-404h-103v404h-186v-404z" />
    <glyph glyph-name=".notdef" horiz-adv-x="570" 
d="M530 0h-490v678h490v-678zM118 633l167 -250l167 250h-334zM481 589l-167 -250l167 -250v500zM285 295l-167 -250h334zM89 589v-500l167 250z" />
    <glyph glyph-name=".null" horiz-adv-x="0" 
 />
    <glyph glyph-name="nonmarkingreturn" horiz-adv-x="333" 
 />
    <glyph glyph-name="space" unicode=" " horiz-adv-x="200" 
 />
    <glyph glyph-name="exclam" unicode="!" horiz-adv-x="227" 
d="M155 166h-83l-12 532h107zM166 0h-106v104h106v-104z" />
    <glyph glyph-name="quotedbl" unicode="&#x22;" horiz-adv-x="388" 
d="M161 510h-87l-4 189h95zM314 510h-87l-4 189h95z" />
    <glyph glyph-name="numbersign" unicode="#" horiz-adv-x="618" 
d="M210 0h-87l17 198h-90v84h97l12 136h-99v84h106l17 196h87l-17 -196h137l17 196h87l-17 -196h91v-84h-98l-12 -136h100v-84h-107l-17 -198h-87l16 198h-136zM246 418l-12 -136h137l11 136h-136z" />
    <glyph glyph-name="dollar" unicode="$" horiz-adv-x="514" 
d="M208 0h-139l-6 96h250q37 0 37 34v112q0 32 -32 43l-183 41q-75 16 -75 85v207q0 38 20.5 59.5t54.5 21.5h73v90h92v-90h130l6 -96h-235q-37 0 -37 -34v-100q0 -31 33 -41l182 -42q75 -16 75 -85v-220q0 -38 -20.5 -59.5t-54.5 -21.5h-79v-90h-92v90z" />
    <glyph glyph-name="percent" unicode="%" horiz-adv-x="814" 
d="M337 0h-90l235 699h89zM167 442h58q26 0 26 28v124q0 27 -26 27h-58q-26 0 -26 -27v-124q0 -28 26 -28zM563 229v-124q0 -28 26 -28h58q26 0 26 28v124q0 27 -26 27h-58q-26 0 -26 -27zM267 365h-143q-30 0 -47 17.5t-17 45.5v208q0 28 17 45.5t47 17.5h143q31 0 48 -17
t17 -46v-208q0 -29 -17 -46t-48 -17zM482 63v207q0 28 17 45.5t47 17.5h143q31 0 48 -17t17 -46v-207q0 -29 -17 -46t-48 -17h-143q-30 0 -47 17.5t-17 45.5z" />
    <glyph glyph-name="ampersand" unicode="&#x26;" horiz-adv-x="633" 
d="M149 269v-136q0 -44 45 -44h213q45 0 45 44l-263 181q-40 -3 -40 -45zM50 123v166q0 22 7 40t15.5 27t20 15.5t17 8t9.5 2.5q-7 2 -14 7.5t-15.5 22.5t-8.5 40v120q0 61 32.5 94t92.5 33h191q120 0 120 -116v-120h-101v102q0 45 -45 45h-144q-45 0 -45 -45v-91
q0 -30 39 -63l231 -156v91h99v-175l62 -55l-4 -118l-69 59q-22 -57 -107 -57h-256q-60 0 -93.5 32t-33.5 91z" />
    <glyph glyph-name="quotesingle" unicode="'" horiz-adv-x="235" 
d="M161 510h-87l-4 189h95z" />
    <glyph glyph-name="parenleft" unicode="(" horiz-adv-x="307" 
d="M177 790h93q-104 -213 -104 -510t104 -510h-93q-107 200 -107 510t107 510z" />
    <glyph glyph-name="parenright" unicode=")" horiz-adv-x="307" 
d="M130 -230h-94q104 213 104 510t-104 510h94q107 -200 107 -510t-107 -510z" />
    <glyph glyph-name="asterisk" unicode="*" horiz-adv-x="344" 
d="M116 437l-57 43l54 68l-73 33l30 67l65 -30v81h72v-82l66 31l31 -67l-73 -33l52 -68l-55 -42l-56 69z" />
    <glyph glyph-name="plus" unicode="+" horiz-adv-x="484" 
d="M285 157h-87v156h-148v87h148v159h87v-159h149v-87h-149v-156z" />
    <glyph glyph-name="comma" unicode="," horiz-adv-x="221" 
d="M82 0h-19v113h104v-114l-28 -112h-86z" />
    <glyph glyph-name="hyphen" unicode="-" horiz-adv-x="348" 
d="M308 197h-268v86h268v-86z" />
    <glyph glyph-name="period" unicode="." horiz-adv-x="211" 
d="M157 0h-104v113h104v-113z" />
    <glyph glyph-name="slash" unicode="/" horiz-adv-x="345" 
d="M345 698l-312 -928h-97l312 928h97z" />
    <glyph glyph-name="zero" unicode="0" horiz-adv-x="585" 
d="M60 101v497q0 45 27.5 73t76.5 28h257q49 0 76.5 -28t27.5 -73v-497q0 -45 -27.5 -73t-76.5 -28h-257q-49 0 -76.5 28t-27.5 73zM163 559v-420q0 -44 40 -44h179q40 0 40 44v420q0 44 -40 44h-179q-40 0 -40 -44z" />
    <glyph glyph-name="one" unicode="1" horiz-adv-x="355" 
d="M335 0h-315v92h108v510l-101 -11v89l204 20v-608h104v-92z" />
    <glyph glyph-name="two" unicode="2" horiz-adv-x="522" 
d="M150 96h342l-6 -96h-456v92l320 387q19 23 19 52v37q0 15 -10.5 24.5t-27.5 9.5h-291l6 96h323q45 0 74 -26t29 -77v-58q0 -34 -14 -66q-4 -13 -21 -34q-2 -4 -12 -17l-12 -15z" />
    <glyph glyph-name="three" unicode="3" horiz-adv-x="502" 
d="M323 0h-273v94h245q44 0 44 44v118q0 42 -39 45h-220v95h220q39 3 39 45v120q0 44 -44 44h-245l5 94h268q77 0 101 -38q18 -29 18 -66v-163q0 -38 -17 -59t-34 -27l-6 -1q2 -1 6 -2t14 -7.5t17.5 -15t13.5 -24t6 -34.5v-139q0 -123 -119 -123z" />
    <glyph glyph-name="four" unicode="4" horiz-adv-x="575" 
d="M339 171h-299v86l299 441h106v-430h98v-97h-98v-171h-106v171zM338 544l-183 -277h183v277z" />
    <glyph glyph-name="five" unicode="5" horiz-adv-x="546" 
d="M385 0h-320v96h276q23 0 32 9.5t9 33.5v129q0 34 -37 34h-285l20 396h394l5 -96h-307l-10 -204h229q45 0 70 -24.5t25 -66.5v-214q0 -44 -27.5 -68.5t-73.5 -24.5z" />
    <glyph glyph-name="six" unicode="6" horiz-adv-x="574" 
d="M370 311h-207v-180q0 -36 40 -36h165q41 0 41 39v139q0 38 -39 38zM60 99v499q0 45 27.5 73t76.5 28h330l5 -96h-293q-43 0 -43 -44v-153h250q48 0 74.5 -27t26.5 -74v-204q0 -47 -29.5 -74t-72.5 -27h-251q-45 0 -73 28t-28 71z" />
    <glyph glyph-name="seven" unicode="7" horiz-adv-x="541" 
d="M229 0h-114l279 602h-354l5 96h456v-93z" />
    <glyph glyph-name="eight" unicode="8" horiz-adv-x="585" 
d="M60 102v163q0 62 46 83q-3 0 -13 7t-21.5 26t-11.5 44v173q0 50 27.5 75t76.5 25h257q51 0 77.5 -26.5t26.5 -71.5v-154q0 -26 -11.5 -45t-21.5 -25.5t-14 -6.5q4 -1 14 -7q11 -7 22 -28.5t11 -47.5v-183q0 -46 -26 -74.5t-78 -28.5h-257q-50 0 -77 27.5t-27 74.5z
M203 409l179 -17q40 3 40 45v123q0 44 -42 44h-175q-42 0 -42 -44v-106q0 -41 40 -45zM163 259v-121q0 -44 45 -44h169q45 0 45 44v102q0 42 -38 47l-181 17q-40 -1 -40 -45z" />
    <glyph glyph-name="nine" unicode="9" horiz-adv-x="585" 
d="M202 367h220v195q0 41 -40 41h-178q-41 0 -41 -43v-155q0 -38 39 -38zM525 599v-498q0 -45 -28 -73t-77 -28h-340l-5 95h304q43 0 43 44v133h-261q-48 0 -74.5 27t-26.5 74v224q0 49 28 75.5t74 26.5h261q48 0 75 -28t27 -72z" />
    <glyph glyph-name="colon" unicode=":" horiz-adv-x="218" 
d="M161 0h-104v113h104v-113zM161 382h-104v114h104v-114z" />
    <glyph glyph-name="semicolon" unicode=";" horiz-adv-x="224" 
d="M86 0h-19v113h104v-114l-28 -112h-86zM171 382h-104v114h104v-114z" />
    <glyph glyph-name="less" unicode="&#x3c;" horiz-adv-x="506" 
d="M446 -3l-386 204v91l386 206v-98l-299 -152l299 -155v-96z" />
    <glyph glyph-name="equal" unicode="=" horiz-adv-x="484" 
d="M434 407h-384v87h384v-87zM434 219h-384v87h384v-87z" />
    <glyph glyph-name="greater" unicode="&#x3e;" horiz-adv-x="506" 
d="M60 498l386 -206v-91l-386 -204v96l298 155l-298 152v98z" />
    <glyph glyph-name="question" unicode="?" horiz-adv-x="493" 
d="M269 170h-94v113q0 49 38 76l81 56q22 14 31 29.5t9 46.5v71q0 44 -45 44h-229l5 92h248q64 0 92 -28t28 -84v-138q0 -62 -50 -94l-71 -47q-43 -30 -43 -77v-60zM276 0h-106v104h106v-104z" />
    <glyph glyph-name="at" unicode="@" horiz-adv-x="1006" 
d="M65 -77v653q0 55 31.5 88.5t88.5 33.5h636q64 0 92 -30t28 -92v-453q0 -60 -27 -91.5t-93 -31.5h-176q-40 0 -58 33l-28 -33h-198q-31 0 -49.5 18t-18.5 50q0 10 1 13l35 336q4 38 27 59.5t57 21.5h175l21 -28l20 28h83l-40 -374q1 -37 35 -41h94q40 0 40 45v437
q0 44 -45 44h-586q-45 0 -45 -44v-631q0 -45 40 -45h441l-11 -89h-450q-66 0 -93 31.5t-27 91.5zM399 132v-6q0 -33 33 -33h94q40 0 44 36l27 247q0 30 -36 30h-96q-37 0 -40 -34z" />
    <glyph glyph-name="A" unicode="A" horiz-adv-x="578" 
d="M214 280h148l-74 251zM387 187h-197l-58 -187h-112l215 699h104l219 -699h-113z" />
    <glyph glyph-name="B" unicode="B" horiz-adv-x="573" 
d="M383 0h-303v699h299q64 0 92 -30t28 -93v-143q0 -57 -42 -78q46 -16 46 -74v-158q0 -58 -30.5 -90.5t-89.5 -32.5zM183 606v-208h172q40 3 40 45v118q0 45 -45 45h-167zM183 304v-211h172q45 0 45 44v122q0 42 -40 45h-177z" />
    <glyph glyph-name="C" unicode="C" horiz-adv-x="580" 
d="M70 123v454q0 40 18 74q25 48 102 48h313l6 -92h-291q-45 0 -45 -44v-425q0 -45 40 -45h297v-93h-320q-66 0 -93 31.5t-27 91.5z" />
    <glyph glyph-name="D" unicode="D" horiz-adv-x="634" 
d="M445 0h-365v699h365q119 0 119 -123v-453q0 -123 -119 -123zM183 608v-518h238q40 0 40 43v431q0 44 -45 44h-233z" />
    <glyph glyph-name="E" unicode="E" horiz-adv-x="500" 
d="M440 0h-360v699h358v-92h-255v-210h212v-94h-212v-209h257v-94z" />
    <glyph glyph-name="F" unicode="F" horiz-adv-x="516" 
d="M183 0h-103v699h376v-92h-273v-213h218v-95h-218v-299z" />
    <glyph glyph-name="G" unicode="G" horiz-adv-x="624" 
d="M70 123v454q0 21 5 40t17 39t37.5 31.5t60.5 11.5h321l6 -90h-299q-45 0 -45 -44v-430q0 -20 12 -32.5t32 -12.5h194q40 0 40 45v120h-111v101h214v-233q0 -123 -120 -123h-244q-61 0 -90.5 33t-29.5 90z" />
    <glyph glyph-name="H" unicode="H" horiz-adv-x="635" 
d="M183 0h-103v699h103v-302h268v302h104v-699h-104v304h-268v-304z" />
    <glyph glyph-name="I" unicode="I" horiz-adv-x="357" 
d="M317 0h-277v89h87v521h-87v89h277v-89h-87v-521h87v-89z" />
    <glyph glyph-name="J" unicode="J" horiz-adv-x="370" 
d="M170 0h-125l-5 89h106q40 0 40 44v477h-146v89h250v-576q0 -60 -27 -91.5t-93 -31.5z" />
    <glyph glyph-name="K" unicode="K" horiz-adv-x="580" 
d="M183 0h-103v699h103v-302h126q44 0 53 39l64 263h105l-67 -280q-10 -42 -37 -64q26 -23 39 -68l84 -287h-106l-82 265q-12 39 -50 39h-129v-304z" />
    <glyph glyph-name="L" unicode="L" horiz-adv-x="490" 
d="M440 0h-360v699h103v-606h257v-93z" />
    <glyph glyph-name="M" unicode="M" horiz-adv-x="678" 
d="M183 0h-103v699h98l162 -360l154 360h104v-699h-104v465l-111 -275h-86l-114 266v-456z" />
    <glyph glyph-name="N" unicode="N" horiz-adv-x="635" 
d="M183 0h-103v699h101l270 -448v448h104v-699h-91l-281 477v-477z" />
    <glyph glyph-name="O" unicode="O" horiz-adv-x="624" 
d="M70 122v455q0 122 120 122h244q120 0 120 -122v-455q0 -122 -120 -122h-244q-120 0 -120 122zM173 565v-431q0 -19 12 -31.5t33 -12.5h188q45 0 45 44v431q0 44 -45 44h-188q-21 0 -33 -12.5t-12 -31.5z" />
    <glyph glyph-name="P" unicode="P" horiz-adv-x="577" 
d="M183 0h-103v699h307q65 0 92.5 -26t27.5 -87v-196q0 -118 -120 -118h-204v-272zM183 606v-241h175q45 0 45 44v152q0 45 -45 45h-175z" />
    <glyph glyph-name="Q" unicode="Q" horiz-adv-x="624" 
d="M70 122v455q0 122 120 122h244q120 0 120 -122v-455q0 -28 -4 -43l117 -134l-121 -13l-70 76q-21 -8 -55 -8h-231q-120 0 -120 122zM173 565v-431q0 -19 12 -31.5t33 -12.5h188q45 0 45 44v431q0 44 -45 44h-188q-21 0 -33 -12.5t-12 -31.5z" />
    <glyph glyph-name="R" unicode="R" horiz-adv-x="587" 
d="M183 0h-103v699h317q120 0 120 -119v-180q0 -26 -10.5 -47t-23.5 -29l-11 -6q4 -1 10 -6q7 -5 18 -24.5t14 -41.5l33 -246h-107l-32 224q-6 44 -50 44h-175v-268zM183 606v-245h182q20 0 32.5 13.5t12.5 33.5v152q0 46 -45 46h-182z" />
    <glyph glyph-name="S" unicode="S" horiz-adv-x="518" 
d="M381 0h-310l-6 96h250q37 0 37 34v112q0 32 -32 43l-183 41q-75 16 -75 85v207q0 38 20.5 59.5t54.5 21.5h295l6 -96h-235q-37 0 -37 -34v-100q0 -31 33 -41l182 -42q75 -16 75 -85v-220q0 -38 -20.5 -59.5t-54.5 -21.5z" />
    <glyph glyph-name="T" unicode="T" horiz-adv-x="532" 
d="M317 0h-103v610h-174v89h452v-89h-175v-610z" />
    <glyph glyph-name="U" unicode="U" horiz-adv-x="635" 
d="M80 123v576h103v-561q0 -45 40 -45h187q40 0 40 45v561h105v-576q0 -123 -121 -123h-234q-66 0 -93 31.5t-27 91.5z" />
    <glyph glyph-name="V" unicode="V" horiz-adv-x="534" 
d="M318 0h-111l-177 699h107l129 -514l132 514h106z" />
    <glyph glyph-name="W" unicode="W" horiz-adv-x="862" 
d="M665 0h-111l-125 493l-114 -493h-111l-174 699h107l126 -504l115 504h107l128 -504l113 504h106z" />
    <glyph glyph-name="X" unicode="X" horiz-adv-x="534" 
d="M156 0h-113l165 347l-166 352h120l106 -227l108 227h113l-164 -348l166 -351h-119l-107 227z" />
    <glyph glyph-name="Y" unicode="Y" horiz-adv-x="557" 
d="M325 0h-101v312l-194 387h119l126 -261l133 261h119l-202 -387v-312z" />
    <glyph glyph-name="Z" unicode="Z" horiz-adv-x="480" 
d="M158 93h286l-6 -93h-408v79l291 528h-274l6 92h393v-84z" />
    <glyph glyph-name="bracketleft" unicode="[" horiz-adv-x="323" 
d="M169 708v-845h114v-93h-213v1031h213v-93h-114z" />
    <glyph glyph-name="backslash" unicode="\" horiz-adv-x="349" 
d="M-53 699h96l320 -929h-97z" />
    <glyph glyph-name="bracketright" unicode="]" horiz-adv-x="323" 
d="M253 801v-1031h-213v93h114v845h-114v93h213z" />
    <glyph glyph-name="asciicircum" unicode="^" horiz-adv-x="563" 
d="M148 0h-97l187 365h97l184 -365h-104l-129 280z" />
    <glyph glyph-name="underscore" unicode="_" horiz-adv-x="388" 
d="M50 -230v91h288v-91h-288z" />
    <glyph glyph-name="grave" unicode="`" horiz-adv-x="241" 
d="M39 701h104l52 -125h-84z" />
    <glyph glyph-name="a" unicode="a" horiz-adv-x="505" 
d="M50 103v69q0 46 30.5 76.5t86.5 34.5l166 11v69q0 40 -38 40h-218l5 95h277q36 0 56 -22t20 -59v-417h-72l-23 25l-24 -25h-168q-98 0 -98 103zM153 155v-19q0 -42 42 -42h99q39 0 39 45v71l-141 -10q-39 -3 -39 -45z" />
    <glyph glyph-name="b" unicode="b" horiz-adv-x="530" 
d="M195 0l-22 23l-25 -23h-78v698l104 8v-234l23 26h169q48 0 76 -27.5t28 -73.5v-296q0 -44 -27.5 -72.5t-77.5 -28.5h-170zM172 361v-225q0 -44 40 -44h119q40 0 40 44v225q0 44 -39 44h-119q-41 0 -41 -44z" />
    <glyph glyph-name="c" unicode="c" horiz-adv-x="455" 
d="M60 93v311q0 44 25 69t68 25h236l6 -96h-193q-18 0 -28.5 -9.5t-10.5 -25.5v-231q0 -40 39 -40h193l-6 -96h-236q-44 0 -68.5 25.5t-24.5 67.5z" />
    <glyph glyph-name="d" unicode="d" horiz-adv-x="528" 
d="M60 101v296q0 46 28.5 73.5t76.5 27.5h167l26 -28v228l100 8v-706h-75l-24 23l-22 -23h-172q-50 0 -77.5 27.5t-27.5 73.5zM159 361v-225q0 -44 40 -44h119q40 0 40 44v225q0 44 -39 44h-119q-41 0 -41 -44z" />
    <glyph glyph-name="e" unicode="e" horiz-adv-x="498" 
d="M60 101v296q0 46 28 73.5t76 27.5h189q49 0 77 -27.5t28 -73.5v-103q0 -48 -25.5 -73.5t-73.5 -25.5h-169l-31 23v-82q0 -44 41 -44h241l-6 -92h-270q-50 0 -77.5 27t-27.5 74zM159 366v-81h164q35 0 35 35v44q0 41 -40 41h-119q-40 0 -40 -39z" />
    <glyph glyph-name="f" unicode="f" horiz-adv-x="333" 
d="M203 0h-103v404h-90v94h90v104q0 46 25.5 73.5t74.5 27.5h107l6 -93h-69q-40 0 -40 -44v-68h108v-94h-109v-404z" />
    <glyph glyph-name="g" unicode="g" 
d="M60 98v301q0 49 29.5 74t81.5 25h162l23 -25l26 25h77v-627q0 -45 -27.5 -73t-76.5 -28h-273l-5 96h231q28 0 38 9.5t10 34.5v114l-24 -24h-162q-53 0 -81.5 25.5t-28.5 72.5zM159 361v-225q0 -44 40 -44h119q40 0 40 44v225q0 44 -39 44h-119q-41 0 -41 -44z" />
    <glyph glyph-name="h" unicode="h" horiz-adv-x="533" 
d="M173 0h-103v698l102 8v-234l25 26h191q34 0 54.5 -21.5t20.5 -59.5v-417h-103v359q0 43 -42 43h-105q-40 0 -40 -51v-351z" />
    <glyph glyph-name="i" unicode="i" horiz-adv-x="242" 
d="M172 557h-102v104h102v-104zM169 0h-99v498h99v-498z" />
    <glyph glyph-name="j" unicode="j" horiz-adv-x="240" 
d="M70 -99v597h99v-627q0 -46 -26.5 -73.5t-75.5 -27.5h-77l-5 92h43q42 0 42 39zM172 557h-102v104h102v-104z" />
    <glyph glyph-name="k" unicode="k" horiz-adv-x="493" 
d="M173 0h-103v698l103 8v-411h94q45 0 53 39l33 164h103l-49 -232l-21 -19l22 -20l55 -227h-103l-40 160q-10 39 -50 39h-97v-199z" />
    <glyph glyph-name="l" unicode="l" horiz-adv-x="239" 
d="M70 698l104 8v-706h-104v698z" />
    <glyph glyph-name="m" unicode="m" horiz-adv-x="790" 
d="M173 0h-103v498h77l25 -23l22 23h203l25 -23l22 23h201q34 0 54.5 -21.5t20.5 -59.5v-417h-104v363q0 39 -37 39h-92q-40 0 -40 -40v-362h-104v363q0 39 -37 39h-93q-40 0 -40 -43v-359z" />
    <glyph glyph-name="n" unicode="n" horiz-adv-x="533" 
d="M173 0h-103v498h77l25 -23l22 23h194q34 0 54.5 -21.5t20.5 -59.5v-417h-104v365q0 39 -37 39h-109q-40 0 -40 -43v-361z" />
    <glyph glyph-name="o" unicode="o" horiz-adv-x="518" 
d="M60 101v296q0 45 27.5 73t76.5 28h190q49 0 76.5 -28t27.5 -73v-296q0 -45 -27.5 -73t-76.5 -28h-190q-49 0 -76.5 28t-27.5 73zM159 361v-225q0 -44 40 -44h119q40 0 40 44v225q0 44 -39 44h-119q-41 0 -41 -44z" />
    <glyph glyph-name="p" unicode="p" horiz-adv-x="510" 
d="M196 0l-22 22v-242l-104 -10v728h78l26 -26l22 26h169q48 0 76.5 -28t28.5 -73v-296q0 -44 -27.5 -72.5t-76.5 -28.5h-170zM172 361v-225q0 -44 40 -44h119q40 0 40 44v225q0 44 -39 44h-119q-41 0 -41 -44z" />
    <glyph glyph-name="q" unicode="q" horiz-adv-x="508" 
d="M60 101v296q0 47 28 74t76 27h173l24 -23l23 23h74v-718l-100 -10v252l-21 -22h-172q-48 0 -76.5 26.5t-28.5 74.5zM159 361v-225q0 -44 40 -44h119q40 0 40 44v225q0 44 -39 44h-119q-41 0 -41 -44z" />
    <glyph glyph-name="r" unicode="r" horiz-adv-x="346" 
d="M173 0h-103v498h77l25 -23l22 23h122l-14 -100h-89q-40 0 -40 -43v-355z" />
    <glyph glyph-name="s" unicode="s" horiz-adv-x="442" 
d="M317 0h-261l-6 93h208q35 0 35 32v20q0 30 -36 39l-128 32q-39 9 -57 27.5t-18 53.5v120q0 38 20.5 59.5t54.5 21.5h247l6 -95h-191q-37 0 -37 -32v-24q0 -26 32 -35l131 -34q41 -12 58 -30t17 -55v-112q0 -38 -20.5 -59.5t-54.5 -21.5z" />
    <glyph glyph-name="t" unicode="t" horiz-adv-x="347" 
d="M98 101v303h-88v94h88v97l103 8v-105h116v-94h-116v-269q0 -44 42 -44h68l-6 -91h-89q-118 0 -118 101z" />
    <glyph glyph-name="u" unicode="u" 
d="M356 498h103v-498h-77l-25 23l-22 -23h-190q-34 0 -54.5 21.5t-20.5 59.5v417h104v-365q0 -39 37 -39h105q40 0 40 43v361z" />
    <glyph glyph-name="v" unicode="v" horiz-adv-x="437" 
d="M267 0h-96l-151 498h104l99 -337l95 337h99z" />
    <glyph glyph-name="w" unicode="w" horiz-adv-x="704" 
d="M260 0h-96l-144 498h103l91 -335l87 335h103l90 -333l90 333h100l-144 -498h-96l-92 335z" />
    <glyph glyph-name="x" unicode="x" horiz-adv-x="452" 
d="M137 0h-106l140 249l-142 249h114l83 -151l83 151h107l-137 -245l143 -253h-109l-89 155z" />
    <glyph glyph-name="y" unicode="y" 
d="M70 81v417h104v-365q0 -39 37 -39h105q40 0 40 42v362h103v-627q0 -45 -29 -73t-79 -28h-259l-5 96h229q40 0 40 44v114l-23 -24h-187q-34 0 -55 21.5t-21 59.5z" />
    <glyph glyph-name="z" unicode="z" horiz-adv-x="440" 
d="M174 90h226l-6 -90h-354v80l220 324h-212l6 94h337v-84z" />
    <glyph glyph-name="braceleft" unicode="{" horiz-adv-x="377" 
d="M124 -126v306q0 45 -40 45h-44v93h44q40 0 40 45v315q0 60 27 91.5t93 31.5h93v-93h-73q-40 0 -40 -45v-308q0 -58 -32 -84q32 -27 32 -84v-298q0 -45 40 -45h73v-93h-93q-66 0 -93 31.5t-27 91.5z" />
    <glyph glyph-name="bar" unicode="|" horiz-adv-x="233" 
d="M169 -230h-99v928h99v-928z" />
    <glyph glyph-name="braceright" unicode="}" horiz-adv-x="377" 
d="M115 -249h-75v93h73q40 0 40 45v298q0 57 32 84q-32 27 -32 84v308q0 45 -40 45h-73v93h78q76 0 105.5 -30t29.5 -93v-315q0 -45 40 -45h44v-93h-44q-40 0 -40 -45v-306q0 -64 -30.5 -93.5t-107.5 -29.5z" />
    <glyph glyph-name="asciitilde" unicode="~" horiz-adv-x="482" 
d="M297 300l-141 24l-22 -26h-84l71 107h57l150 -26l25 30h79l-70 -109h-65z" />
    <glyph glyph-name="exclamdown" unicode="&#xa1;" horiz-adv-x="227" 
d="M60 496h106v-104h-106v104zM72 330h83l12 -532h-107z" />
    <glyph glyph-name="cent" unicode="&#xa2;" horiz-adv-x="485" 
d="M60 81v335q0 38 20.5 59.5t54.5 21.5h79v90h92v-90h113l6 -96h-225q-37 0 -37 -34v-237q0 -34 37 -34h225l-6 -96h-113v-90h-92v90h-79q-34 0 -54.5 21.5t-20.5 59.5z" />
    <glyph glyph-name="sterling" unicode="&#xa3;" horiz-adv-x="559" 
d="M499 0h-439v96h73l11 204h-83l8 89h77l12 228q2 39 22 60t53 21h253l6 -96h-193q-34 0 -37 -34l-11 -179h215l-8 -89h-209l-11 -204h261v-96z" />
    <glyph glyph-name="currency" unicode="&#xa4;" horiz-adv-x="634" 
d="M191 159l-73 -72l-68 70l75 73q-4 13 -4 36v195q0 19 3 35l-73 71l68 70l73 -71q17 5 33 5h188q13 0 30 -5l72 71l68 -70l-70 -69q4 -16 4 -28v-206q0 -20 -5 -37l72 -72l-68 -70l-72 73q-14 -3 -31 -3h-188q-22 0 -34 4zM253 247h132q40 0 40 44v143q0 44 -40 44h-132
q-40 0 -40 -44v-143q0 -44 40 -44z" />
    <glyph glyph-name="yen" unicode="&#xa5;" horiz-adv-x="558" 
d="M326 0h-105v217h-134v72h134v72h-134v72h94l-151 265h119l126 -230l133 230h120l-158 -265h86v-72h-130v-72h130v-72h-130v-217z" />
    <glyph glyph-name="brokenbar" unicode="&#xa6;" horiz-adv-x="238" 
d="M169 304h-102v399h104zM67 -230v402h104l-2 -402h-102z" />
    <glyph glyph-name="section" unicode="&#xa7;" horiz-adv-x="563" 
d="M360 15l-215 62q-75 25 -75 101v141q0 24 14 41.5t36 20.5q-22 5 -36 24t-14 45v168q0 38 20.5 59.5t54.5 21.5h320l6 -100h-268q-37 0 -37 -34v-62q0 -36 37 -48l210 -66q80 -30 80 -99v-144q0 -50 -40 -62q40 -18 40 -67v-166q0 -38 -20.5 -59.5t-54.5 -21.5h-336
l-6 99h284q37 0 37 34v66q0 36 -37 46zM206 166l154 -46q37 0 37 34v106q0 32 -37 45l-157 45q-37 0 -37 -34v-102q0 -19 9 -29t31 -19z" />
    <glyph glyph-name="dieresis" unicode="&#xa8;" horiz-adv-x="332" 
d="M135 609h-88v89h88v-89zM292 609h-89v89h89v-89z" />
    <glyph glyph-name="copyright" unicode="&#xa9;" horiz-adv-x="772" 
d="M60 123v454q0 40 18 74q25 48 102 48h412q77 0 102 -48q18 -34 18 -74v-454q0 -60 -27 -91.5t-93 -31.5h-412q-66 0 -93 31.5t-27 91.5zM148 570v-440q0 -45 40 -45h395q40 0 40 45v440q0 44 -45 44h-385q-45 0 -45 -44zM255 247v207q0 38 20.5 59.5t54.5 21.5h174l6 -89
h-129q-37 0 -37 -34v-123q0 -34 37 -34h129l-6 -89h-174q-34 0 -54.5 21.5t-20.5 59.5z" />
    <glyph glyph-name="ordfeminine" unicode="&#xaa;" horiz-adv-x="381" 
d="M248 383h-121q-32 0 -49.5 18.5t-17.5 51.5v41q0 70 73 74l119 7v32q0 22 -22 22h-154l3 69h172q33 0 51.5 -19t18.5 -49v-247h-50l-11 14zM152 448h81q19 0 19 22v42l-101 -5q-22 -1 -22 -24v-15q0 -20 23 -20zM315 242h-245v77h245v-77z" />
    <glyph glyph-name="guillemotleft" unicode="&#xab;" horiz-adv-x="523" 
d="M274 -3l-224 209v81l224 211v-124l-134 -126l134 -129v-122zM473 -3l-224 209v81l224 211v-124l-134 -126l134 -129v-122z" />
    <glyph glyph-name="logicalnot" unicode="&#xac;" horiz-adv-x="535" 
d="M387 367h-327v88h414l1 -216h-88v128z" />
    <glyph glyph-name="registered" unicode="&#xae;" horiz-adv-x="772" 
d="M60 123v454q0 40 18 74q25 48 102 48h412q77 0 102 -48q18 -34 18 -74v-454q0 -60 -27 -91.5t-93 -31.5h-412q-66 0 -93 31.5t-27 91.5zM148 570v-440q0 -45 40 -45h395q40 0 40 45v440q0 44 -45 44h-385q-45 0 -45 -44zM338 163h-84v375h192q65 0 65 -66v-98
q0 -14 -6.5 -25.5t-14.5 -14.5l-7 -4q16 -7 22 -39l25 -128h-85l-24 109q-5 23 -26 23h-57v-132zM337 465v-92h66q25 0 25 22v46q0 24 -25 24h-66z" />
    <glyph glyph-name="overscore" unicode="&#xaf;" horiz-adv-x="314" 
d="M272 619h-229v79h229v-79z" />
    <glyph glyph-name="degree" unicode="&#xb0;" horiz-adv-x="333" 
d="M218 465h-104q-30 0 -47 17.5t-17 45.5v108q0 28 17 45.5t47 17.5h104q31 0 48 -17t17 -46v-108q0 -29 -17 -46t-48 -17zM149 539h35q26 0 26 29v29q0 28 -26 28h-34q-27 0 -27 -27v-30q0 -29 26 -29z" />
    <glyph glyph-name="plusminus" unicode="&#xb1;" horiz-adv-x="484" 
d="M285 158h-87v155h-148v87h148v159h87v-159h149v-87h-149v-155zM434 0h-384v82h384v-82z" />
    <glyph glyph-name="acute" unicode="&#xb4;" horiz-adv-x="238" 
d="M123 592h-84l52 106h104z" />
    <glyph glyph-name="mu" unicode="&#xb5;" horiz-adv-x="509" 
d="M356 498h103v-498h-77l-25 23l-22 -23h-161v-220l-104 -10v728h104v-361q0 -43 42 -43h100q40 0 40 43v361z" />
    <glyph glyph-name="paragraph" unicode="&#xb6;" horiz-adv-x="629" 
d="M320 0h-90v440h-86q-38 0 -61 23t-23 63v87q0 38 22 62t62 24h453v-93h-84v-606h-91v606h-102v-606z" />
    <glyph glyph-name="middot" unicode="&#xb7;" horiz-adv-x="218" 
d="M159 195h-101v108h101v-108z" />
    <glyph glyph-name="cedilla" unicode="&#xb8;" horiz-adv-x="252" 
d="M59 -131v54l44 77h64l-45 -76h30q22 0 36 -13.5t14 -35.5v-58q0 -23 -12.5 -35t-34.5 -12h-105v55h81q6 0 11 4t5 10v11q0 19 -16 19h-72z" />
    <glyph glyph-name="ordmasculine" unicode="&#xba;" horiz-adv-x="382" 
d="M252 383h-121q-33 0 -52 19t-19 49v179q0 31 19 49.5t52 18.5h121q33 0 51.5 -18.5t18.5 -49.5v-179q0 -30 -18.5 -49t-51.5 -19zM152 451h79q19 0 19 24v132q0 22 -19 22h-79q-20 0 -20 -22v-132q0 -24 20 -24zM309 242h-235v77h235v-77z" />
    <glyph glyph-name="guillemotright" unicode="&#xbb;" horiz-adv-x="523" 
d="M50 498l224 -211v-81l-224 -209v122l134 129l-134 126v124zM249 498l224 -211v-81l-224 -209v122l134 129l-134 126v124z" />
    <glyph glyph-name="onequarter" unicode="&#xbc;" horiz-adv-x="794" 
d="M317 0h-87l253 699h86zM281 303h-231v66h75v256l-69 -6v67l150 13v-330h75v-66zM683 0h-76v86h-178v66l175 244h79v-242h61v-68h-61v-86zM607 290l-103 -137h103v137z" />
    <glyph glyph-name="onehalf" unicode="&#xbd;" horiz-adv-x="826" 
d="M317 0h-87l253 699h86zM281 303h-231v66h75v256l-69 -6v67l150 13v-330h75v-66zM772 0h-282v72l184 181q14 14 14 37v8q0 24 -27 24h-160l4 74h204q27 0 42.5 -15t15.5 -40v-46q0 -50 -34 -91l-135 -131h178z" />
    <glyph glyph-name="threequarters" unicode="&#xbe;" horiz-adv-x="794" 
d="M309 0h-87l253 699h86zM683 0h-76v86h-178v66l175 244h79v-242h61v-68h-61v-86zM607 290l-103 -137h103v137zM219 303h-169v73h140q29 0 29 29v30q0 26 -26 28h-124v73h124q26 2 26 28v32q0 29 -29 29h-140l3 74h166q76 0 76 -68v-78q-1 -43 -23 -53l-6 -2q3 -1 8 -3.5
t13 -16t8 -32.5v-66q0 -36 -20 -56.5t-56 -20.5z" />
    <glyph glyph-name="questiondown" unicode="&#xbf;" horiz-adv-x="493" 
d="M224 328h94v-113q0 -49 -38 -76l-81 -56q-22 -14 -31 -29.5t-9 -46.5v-72q0 -44 45 -44h229l-5 -92h-248q-64 0 -92 28t-28 84v139q0 62 50 94l71 47q43 30 43 77v60zM217 498h106v-104h-106v104z" />
    <glyph glyph-name="Agrave" unicode="&#xc0;" horiz-adv-x="578" 
d="M214 280h148l-74 251zM387 187h-197l-58 -187h-112l215 699h104l219 -699h-113zM182 859h104l42 -115h-84z" />
    <glyph glyph-name="Aacute" unicode="&#xc1;" horiz-adv-x="578" 
d="M214 280h148l-74 251zM387 187h-197l-58 -187h-112l215 699h104l219 -699h-113zM326 744h-84l42 115h104z" />
    <glyph glyph-name="Acircumflex" unicode="&#xc2;" horiz-adv-x="578" 
d="M288 531l-74 -251h148zM132 0h-112l215 699h104l219 -699h-113l-58 187h-197zM258 744h-94l77 115h103l79 -115h-100l-32 49z" />
    <glyph glyph-name="Atilde" unicode="&#xc3;" horiz-adv-x="578" 
d="M214 280h148l-74 251zM387 187h-197l-58 -187h-112l215 699h104l219 -699h-113zM318 746l-83 29l-21 -30h-76l72 113h57l90 -28l22 28h74l-70 -112h-65z" />
    <glyph glyph-name="Adieresis" unicode="&#xc4;" horiz-adv-x="578" 
d="M288 531l-74 -251h148zM132 0h-112l215 699h104l219 -699h-113l-58 187h-197zM406 756h-91v91h91v-91zM257 756h-91v91h91v-91z" />
    <glyph glyph-name="Aring" unicode="&#xc5;" horiz-adv-x="548" 
d="M132 0h-112l209 679q-19 18 -19 50v15q0 33 19 52t54 19h6q35 0 54.5 -19t19.5 -52v-15q0 -33 -19 -49l214 -680h-113l-58 187h-197zM288 530l-74 -250h148zM281 701h10q28 0 28 32v7q0 32 -28 32h-10q-28 0 -28 -32v-7q0 -32 28 -32z" />
    <glyph glyph-name="AE" unicode="&#xc6;" horiz-adv-x="763" 
d="M136 0h-116l315 699h368v-92h-254v-210h211v-94h-211v-209h254v-94h-358v195h-125zM345 500l-88 -210h88v210z" />
    <glyph glyph-name="Ccedilla" unicode="&#xc7;" horiz-adv-x="580" 
d="M259 -131v54l44 77h-113q-66 0 -93 31.5t-27 91.5v454q0 40 18 74q25 48 102 48h313l6 -92h-291q-45 0 -45 -44v-425q0 -45 40 -45h297v-93h-143l-45 -76h30q22 0 36 -13.5t14 -35.5v-58q0 -23 -12.5 -35t-34.5 -12h-105v55h81q6 0 11 4t5 10v11q0 19 -16 19h-72z" />
    <glyph glyph-name="Egrave" unicode="&#xc8;" horiz-adv-x="500" 
d="M440 0h-360v699h358v-92h-255v-210h212v-94h-212v-209h257v-94zM162 859h104l42 -115h-84z" />
    <glyph glyph-name="Eacute" unicode="&#xc9;" horiz-adv-x="500" 
d="M440 0h-360v699h358v-92h-255v-210h212v-94h-212v-209h257v-94zM296 744h-84l42 115h104z" />
    <glyph glyph-name="Ecircumflex" unicode="&#xca;" horiz-adv-x="500" 
d="M440 0h-360v699h358v-92h-255v-210h212v-94h-212v-209h257v-94zM218 744h-94l77 115h103l79 -115h-100l-32 49z" />
    <glyph glyph-name="Edieresis" unicode="&#xcb;" horiz-adv-x="500" 
d="M440 0h-360v699h358v-92h-255v-210h212v-94h-212v-209h257v-94zM376 756h-91v91h91v-91zM227 756h-91v91h91v-91z" />
    <glyph glyph-name="Igrave" unicode="&#xcc;" horiz-adv-x="357" 
d="M317 0h-277v89h87v521h-87v89h277v-89h-87v-521h87v-89zM82 859h104l42 -115h-84z" />
    <glyph glyph-name="Iacute" unicode="&#xcd;" horiz-adv-x="357" 
d="M317 0h-277v89h87v521h-87v89h277v-89h-87v-521h87v-89zM216 744h-84l42 115h104z" />
    <glyph glyph-name="Icircumflex" unicode="&#xce;" horiz-adv-x="357" 
d="M317 0h-277v89h87v521h-87v89h277v-89h-87v-521h87v-89zM140 744h-94l77 115h103l79 -115h-100l-32 49z" />
    <glyph glyph-name="Idieresis" unicode="&#xcf;" horiz-adv-x="357" 
d="M317 0h-277v89h87v521h-87v89h277v-89h-87v-521h87v-89zM298 756h-91v91h91v-91zM149 756h-91v91h91v-91z" />
    <glyph glyph-name="Eth" unicode="&#xd0;" horiz-adv-x="634" 
d="M445 0h-365v305h-60v94h60v300h365q119 0 119 -123v-453q0 -123 -119 -123zM183 305v-215h238q40 0 40 43v431q0 44 -45 44h-233v-209h96v-94h-96z" />
    <glyph glyph-name="Ntilde" unicode="&#xd1;" horiz-adv-x="635" 
d="M183 0h-103v699h101l270 -448v448h104v-699h-91l-281 477v-477zM348 746l-83 29l-21 -30h-76l72 113h57l90 -28l22 28h74l-70 -112h-65z" />
    <glyph glyph-name="Ograve" unicode="&#xd2;" horiz-adv-x="624" 
d="M70 122v455q0 122 120 122h244q120 0 120 -122v-455q0 -122 -120 -122h-244q-120 0 -120 122zM173 565v-431q0 -19 12 -31.5t33 -12.5h188q45 0 45 44v431q0 44 -45 44h-188q-21 0 -33 -12.5t-12 -31.5zM212 859h104l42 -115h-84z" />
    <glyph glyph-name="Oacute" unicode="&#xd3;" horiz-adv-x="624" 
d="M70 122v455q0 122 120 122h244q120 0 120 -122v-455q0 -122 -120 -122h-244q-120 0 -120 122zM173 565v-431q0 -19 12 -31.5t33 -12.5h188q45 0 45 44v431q0 44 -45 44h-188q-21 0 -33 -12.5t-12 -31.5zM346 744h-84l42 115h104z" />
    <glyph glyph-name="Ocircumflex" unicode="&#xd4;" horiz-adv-x="624" 
d="M70 122v455q0 122 120 122h244q120 0 120 -122v-455q0 -122 -120 -122h-244q-120 0 -120 122zM173 565v-431q0 -19 12 -31.5t33 -12.5h188q45 0 45 44v431q0 44 -45 44h-188q-21 0 -33 -12.5t-12 -31.5zM271 744h-94l77 115h103l79 -115h-100l-32 49z" />
    <glyph glyph-name="Otilde" unicode="&#xd5;" horiz-adv-x="624" 
d="M70 122v455q0 122 120 122h244q120 0 120 -122v-455q0 -122 -120 -122h-244q-120 0 -120 122zM173 565v-431q0 -19 12 -31.5t33 -12.5h188q45 0 45 44v431q0 44 -45 44h-188q-21 0 -33 -12.5t-12 -31.5zM348 746l-83 29l-21 -30h-76l72 113h57l90 -28l22 28h74l-70 -112
h-65z" />
    <glyph glyph-name="Odieresis" unicode="&#xd6;" horiz-adv-x="624" 
d="M70 122v455q0 122 120 122h244q120 0 120 -122v-455q0 -122 -120 -122h-244q-120 0 -120 122zM173 565v-431q0 -19 12 -31.5t33 -12.5h188q45 0 45 44v431q0 44 -45 44h-188q-21 0 -33 -12.5t-12 -31.5zM426 756h-91v91h91v-91zM277 756h-91v91h91v-91z" />
    <glyph glyph-name="multiply" unicode="&#xd7;" horiz-adv-x="436" 
d="M219 295l-109 -109l-61 62l109 109l-106 104l62 62l105 -105l109 109l62 -61l-109 -109l104 -105l-61 -61z" />
    <glyph glyph-name="Oslash" unicode="&#xd8;" horiz-adv-x="624" 
d="M70 122v455q0 122 120 122h244q38 0 68 -15l29 47l38 -26l-33 -53q18 -30 18 -75v-455q0 -122 -120 -122h-244q-47 0 -75 19l-30 -49l-39 27l37 60q-13 25 -13 65zM218 90h188q45 0 45 44v330q0 24 -3 49l-272 -397q9 -26 42 -26zM173 565v-314q0 -27 3 -49l268 389
q-10 18 -38 18h-188q-21 0 -33 -12.5t-12 -31.5z" />
    <glyph glyph-name="Ugrave" unicode="&#xd9;" horiz-adv-x="635" 
d="M80 123v576h103v-561q0 -45 40 -45h187q40 0 40 45v561h105v-576q0 -123 -121 -123h-234q-66 0 -93 31.5t-27 91.5zM222 859h104l42 -115h-84z" />
    <glyph glyph-name="Uacute" unicode="&#xda;" horiz-adv-x="635" 
d="M80 123v576h103v-561q0 -45 40 -45h187q40 0 40 45v561h105v-576q0 -123 -121 -123h-234q-66 0 -93 31.5t-27 91.5zM346 744h-84l42 115h104z" />
    <glyph glyph-name="Ucircumflex" unicode="&#xdb;" horiz-adv-x="635" 
d="M80 123v576h103v-561q0 -45 40 -45h187q40 0 40 45v561h105v-576q0 -123 -121 -123h-234q-66 0 -93 31.5t-27 91.5zM278 744h-94l77 115h103l79 -115h-100l-32 49z" />
    <glyph glyph-name="Udieresis" unicode="&#xdc;" horiz-adv-x="635" 
d="M80 123v576h103v-561q0 -45 40 -45h187q40 0 40 45v561h105v-576q0 -123 -121 -123h-234q-66 0 -93 31.5t-27 91.5zM426 756h-91v91h91v-91zM277 756h-91v91h91v-91z" />
    <glyph glyph-name="Yacute" unicode="&#xdd;" horiz-adv-x="557" 
d="M306 743h-82l51 105h105zM325 0h-101v312l-194 387h119l126 -261l133 261h119l-202 -387v-312z" />
    <glyph glyph-name="Thorn" unicode="&#xde;" horiz-adv-x="579" 
d="M183 0h-103v698h103v-131h210q57 0 88.5 -34t31.5 -89v-191q0 -123 -120 -123h-210v-130zM183 475v-252h182q45 0 45 44v163q0 45 -45 45h-182z" />
    <glyph glyph-name="germandbls" unicode="&#xdf;" horiz-adv-x="577" 
d="M383 265l-91 73v89l108 88v54q0 44 -41 44h-143q-43 0 -43 -44v-569h-103v605q0 44 26 72.5t78 28.5h225q49 0 77 -29t28 -74v-120l-119 -90l76 -60q30 -24 43 -48t13 -60v-144q0 -38 -20.5 -59.5t-54.5 -21.5h-164l-6 93h104q37 0 37 34v79q0 35 -30 59z" />
    <glyph glyph-name="agrave" unicode="&#xe0;" horiz-adv-x="505" 
d="M50 103v69q0 46 30.5 76.5t86.5 34.5l166 11v69q0 40 -38 40h-218l5 95h277q36 0 56 -22t20 -59v-417h-72l-23 25l-24 -25h-168q-98 0 -98 103zM153 155v-19q0 -42 42 -42h99q39 0 39 45v71l-141 -10q-39 -3 -39 -45zM140 671h104l52 -125h-84z" />
    <glyph glyph-name="aacute" unicode="&#xe1;" horiz-adv-x="505" 
d="M50 103v69q0 46 30.5 76.5t86.5 34.5l166 11v69q0 40 -38 40h-218l5 95h277q36 0 56 -22t20 -59v-417h-72l-23 25l-24 -25h-168q-98 0 -98 103zM153 155v-19q0 -42 42 -42h99q39 0 39 45v71l-141 -10q-39 -3 -39 -45zM264 546h-84l52 125h104z" />
    <glyph glyph-name="acircumflex" unicode="&#xe2;" horiz-adv-x="505" 
d="M50 103v69q0 46 30.5 76.5t86.5 34.5l166 11v69q0 40 -38 40h-218l5 95h277q36 0 56 -22t20 -59v-417h-72l-23 25l-24 -25h-168q-98 0 -98 103zM153 155v-19q0 -42 42 -42h99q39 0 39 45v71l-141 -10q-39 -3 -39 -45zM218 546h-94l77 125h103l79 -125h-100l-32 51z" />
    <glyph glyph-name="atilde" unicode="&#xe3;" horiz-adv-x="505" 
d="M50 103v69q0 46 30.5 76.5t86.5 34.5l166 11v69q0 40 -38 40h-218l5 95h277q36 0 56 -22t20 -59v-417h-72l-23 25l-24 -25h-168q-98 0 -98 103zM153 155v-19q0 -42 42 -42h99q39 0 39 45v71l-141 -10q-39 -3 -39 -45zM288 553l-83 29l-21 -30h-76l72 113h57l90 -28l22 28
h74l-70 -112h-65z" />
    <glyph glyph-name="adieresis" unicode="&#xe4;" horiz-adv-x="505" 
d="M50 103v69q0 46 30.5 76.5t86.5 34.5l166 11v69q0 40 -38 40h-218l5 95h277q36 0 56 -22t20 -59v-417h-72l-23 25l-24 -25h-168q-98 0 -98 103zM153 155v-19q0 -42 42 -42h99q39 0 39 45v71l-141 -10q-39 -3 -39 -45zM215 565h-88v89h88v-89zM372 565h-89v89h89v-89z" />
    <glyph glyph-name="aring" unicode="&#xe5;" horiz-adv-x="505" 
d="M252 541h-13q-35 0 -54 19.5t-19 51.5v22q0 33 19 52t54 19h13q35 0 54.5 -19t19.5 -52v-22q0 -32 -19.5 -51.5t-54.5 -19.5zM238 588h15q25 0 25 29v12q0 15 -5 22t-20 7h-15q-25 0 -25 -29v-12q0 -29 25 -29zM50 103v69q0 46 30.5 76.5t86.5 34.5l166 11v69
q0 40 -38 40h-218l5 95h277q36 0 56 -22t20 -59v-417h-72l-23 25l-24 -25h-168q-98 0 -98 103zM153 155v-19q0 -42 42 -42h99q39 0 39 45v71l-141 -10q-39 -3 -39 -45z" />
    <glyph glyph-name="ae" unicode="&#xe6;" horiz-adv-x="792" 
d="M50 103v69q0 98 97 104l186 11v78q0 38 -38 38h-218l5 95h232q35 0 68 -10q26 10 59 10h186q49 0 77 -28t28 -75v-101q0 -48 -25.5 -73.5t-73.5 -25.5h-168l-31 23v-83q0 -43 40 -43h241l-6 -92h-269q-40 0 -54 35q-12 -35 -54 -35h-184q-98 0 -98 103zM153 147v-15
q0 -38 42 -38h99q39 0 39 43v67l-141 -11q-39 -3 -39 -46zM434 366v-81h154q24 0 34 9t10 33v35q0 43 -40 43h-118q-40 0 -40 -39z" />
    <glyph glyph-name="ccedilla" unicode="&#xe7;" horiz-adv-x="455" 
d="M179 -131v54l44 77h-70q-44 0 -68.5 25.5t-24.5 67.5v311q0 44 25 69t68 25h236l6 -96h-193q-18 0 -28.5 -9.5t-10.5 -25.5v-231q0 -40 39 -40h193l-6 -96h-102l-45 -76h30q22 0 36 -13.5t14 -35.5v-58q0 -23 -12.5 -35t-34.5 -12h-105v55h81q6 0 11 4t5 10v11
q0 19 -16 19h-72z" />
    <glyph glyph-name="egrave" unicode="&#xe8;" horiz-adv-x="518" 
d="M60 101v296q0 46 28 73.5t76 27.5h189q49 0 77 -27.5t28 -73.5v-103q0 -48 -25.5 -73.5t-73.5 -25.5h-169l-31 23v-82q0 -44 41 -44h241l-6 -92h-270q-50 0 -77.5 27t-27.5 74zM159 366v-81h164q35 0 35 35v44q0 41 -40 41h-119q-40 0 -40 -39zM150 671h104l52 -125h-84z
" />
    <glyph glyph-name="eacute" unicode="&#xe9;" horiz-adv-x="518" 
d="M60 101v296q0 46 28 73.5t76 27.5h189q49 0 77 -27.5t28 -73.5v-103q0 -48 -25.5 -73.5t-73.5 -25.5h-169l-31 23v-82q0 -44 41 -44h241l-6 -92h-270q-50 0 -77.5 27t-27.5 74zM159 366v-81h164q35 0 35 35v44q0 41 -40 41h-119q-40 0 -40 -39zM294 546h-84l52 125h104z
" />
    <glyph glyph-name="ecircumflex" unicode="&#xea;" horiz-adv-x="518" 
d="M60 101v296q0 46 28 73.5t76 27.5h189q49 0 77 -27.5t28 -73.5v-103q0 -48 -25.5 -73.5t-73.5 -25.5h-169l-31 23v-82q0 -44 41 -44h241l-6 -92h-270q-50 0 -77.5 27t-27.5 74zM159 366v-81h164q35 0 35 35v44q0 41 -40 41h-119q-40 0 -40 -39zM218 546h-94l77 125h103
l79 -125h-100l-32 51z" />
    <glyph glyph-name="edieresis" unicode="&#xeb;" horiz-adv-x="518" 
d="M60 101v296q0 46 28 73.5t76 27.5h189q49 0 77 -27.5t28 -73.5v-103q0 -48 -25.5 -73.5t-73.5 -25.5h-169l-31 23v-82q0 -44 41 -44h241l-6 -92h-270q-50 0 -77.5 27t-27.5 74zM159 366v-81h164q35 0 35 35v44q0 41 -40 41h-119q-40 0 -40 -39zM225 565h-88v89h88v-89z
M382 565h-89v89h89v-89z" />
    <glyph glyph-name="igrave" unicode="&#xec;" horiz-adv-x="239" 
d="M169 0h-99v498h99v-498zM10 671h104l52 -125h-84z" />
    <glyph glyph-name="iacute" unicode="&#xed;" horiz-adv-x="239" 
d="M169 0h-99v498h99v-498zM161 546h-84l52 125h104z" />
    <glyph glyph-name="icircumflex" unicode="&#xee;" horiz-adv-x="239" 
d="M88 546h-94l77 125h103l79 -125h-100l-32 51zM169 0h-99v498h99v-498z" />
    <glyph glyph-name="idieresis" unicode="&#xef;" horiz-adv-x="239" 
d="M85 565h-88v89h88v-89zM242 565h-89v89h89v-89zM169 0h-99v498h99v-498z" />
    <glyph glyph-name="eth" unicode="&#xf0;" horiz-adv-x="518" 
d="M60 101v296q0 45 27.5 73t76.5 28h157l34 -31v44q0 45 -35 65l-52 29l-32 -72l-71 31l35 77l-71 36l39 87l69 -33l34 71l69 -32l-36 -72l65 -37q49 -29 68 -63q21 -34 21 -101v-396q0 -45 -27.5 -73t-76.5 -28h-190q-49 0 -76.5 28t-27.5 73zM159 361v-225q0 -44 40 -44
h118q41 0 41 44v225q0 44 -40 44h-119q-40 0 -40 -44z" />
    <glyph glyph-name="ntilde" unicode="&#xf1;" horiz-adv-x="533" 
d="M173 0h-103v498h77l25 -23l22 23h194q34 0 54.5 -21.5t20.5 -59.5v-417h-104v365q0 39 -37 39h-109q-40 0 -40 -43v-361zM308 553l-83 29l-21 -30h-76l72 113h57l90 -28l22 28h74l-70 -112h-65z" />
    <glyph glyph-name="ograve" unicode="&#xf2;" horiz-adv-x="518" 
d="M60 101v296q0 45 27.5 73t76.5 28h190q49 0 76.5 -28t27.5 -73v-296q0 -45 -27.5 -73t-76.5 -28h-190q-49 0 -76.5 28t-27.5 73zM159 361v-225q0 -44 40 -44h119q40 0 40 44v225q0 44 -39 44h-119q-41 0 -41 -44zM160 671h104l52 -125h-84z" />
    <glyph glyph-name="oacute" unicode="&#xf3;" horiz-adv-x="518" 
d="M60 101v296q0 45 27.5 73t76.5 28h190q49 0 76.5 -28t27.5 -73v-296q0 -45 -27.5 -73t-76.5 -28h-190q-49 0 -76.5 28t-27.5 73zM159 361v-225q0 -44 40 -44h119q40 0 40 44v225q0 44 -39 44h-119q-41 0 -41 -44zM284 546h-84l52 125h104z" />
    <glyph glyph-name="ocircumflex" unicode="&#xf4;" horiz-adv-x="518" 
d="M60 101v296q0 45 27.5 73t76.5 28h190q49 0 76.5 -28t27.5 -73v-296q0 -45 -27.5 -73t-76.5 -28h-190q-49 0 -76.5 28t-27.5 73zM159 361v-225q0 -44 40 -44h119q40 0 40 44v225q0 44 -39 44h-119q-41 0 -41 -44zM218 546h-94l77 125h103l79 -125h-100l-32 51z" />
    <glyph glyph-name="otilde" unicode="&#xf5;" horiz-adv-x="518" 
d="M60 101v296q0 45 27.5 73t76.5 28h190q49 0 76.5 -28t27.5 -73v-296q0 -45 -27.5 -73t-76.5 -28h-190q-49 0 -76.5 28t-27.5 73zM159 361v-225q0 -44 40 -44h119q40 0 40 44v225q0 44 -39 44h-119q-41 0 -41 -44zM298 553l-83 29l-21 -30h-76l72 113h57l90 -28l22 28h74
l-70 -112h-65z" />
    <glyph glyph-name="odieresis" unicode="&#xf6;" horiz-adv-x="518" 
d="M60 101v296q0 45 27.5 73t76.5 28h190q49 0 76.5 -28t27.5 -73v-296q0 -45 -27.5 -73t-76.5 -28h-190q-49 0 -76.5 28t-27.5 73zM159 361v-225q0 -44 40 -44h119q40 0 40 44v225q0 44 -39 44h-119q-41 0 -41 -44zM217 565h-88v89h88v-89zM374 565h-89v89h89v-89z" />
    <glyph glyph-name="divide" unicode="&#xf7;" horiz-adv-x="484" 
d="M434 313h-384v87h384v-87zM287 477h-100v97h100v-97zM287 137h-100v97h100v-97z" />
    <glyph glyph-name="oslash" unicode="&#xf8;" horiz-adv-x="518" 
d="M60 101v296q0 45 27.5 73t76.5 28h190q23 0 45 -8l34 46l39 -26l-35 -48q21 -26 21 -65v-296q0 -45 -27.5 -73t-76.5 -28h-190q-34 0 -54 11l-31 -41l-40 26l36 48q-15 24 -15 57zM199 92h119q40 0 40 44v158q0 26 -3 51l-184 -245q11 -8 28 -8zM159 361v-144
q0 -26 3 -50l177 234q-7 4 -20 4h-119q-41 0 -41 -44z" />
    <glyph glyph-name="ugrave" unicode="&#xf9;" 
d="M356 498h103v-498h-77l-25 23l-22 -23h-190q-34 0 -54.5 21.5t-20.5 59.5v417h104v-365q0 -39 37 -39h105q40 0 40 43v361zM160 671h104l52 -125h-84z" />
    <glyph glyph-name="uacute" unicode="&#xfa;" 
d="M356 498h103v-498h-77l-25 23l-22 -23h-190q-34 0 -54.5 21.5t-20.5 59.5v417h104v-365q0 -39 37 -39h105q40 0 40 43v361zM294 546h-84l52 125h104z" />
    <glyph glyph-name="ucircumflex" unicode="&#xfb;" 
d="M356 498h103v-498h-77l-25 23l-22 -23h-190q-34 0 -54.5 21.5t-20.5 59.5v417h104v-365q0 -39 37 -39h105q40 0 40 43v361zM228 546h-94l77 125h103l79 -125h-100l-32 51z" />
    <glyph glyph-name="udieresis" unicode="&#xfc;" 
d="M356 498h103v-498h-77l-25 23l-22 -23h-190q-34 0 -54.5 21.5t-20.5 59.5v417h104v-365q0 -39 37 -39h105q40 0 40 43v361zM225 565h-88v89h88v-89zM382 565h-89v89h89v-89z" />
    <glyph glyph-name="yacute" unicode="&#xfd;" 
d="M70 81v417h104v-365q0 -39 37 -39h105q40 0 40 42v362h103v-627q0 -45 -29 -73t-79 -28h-259l-5 96h229q40 0 40 44v114l-23 -24h-187q-34 0 -55 21.5t-21 59.5zM160 671h104l52 -125h-84z" />
    <glyph glyph-name="thorn" unicode="&#xfe;" horiz-adv-x="530" 
d="M70 698l104 8v-234l23 26h169q48 0 76 -27.5t28 -73.5v-296q0 -44 -27.5 -72.5t-77.5 -28.5h-170l-21 22v-242l-104 -10v928zM174 361v-225q0 -44 40 -44h117q40 0 40 44v225q0 44 -39 44h-117q-41 0 -41 -44z" />
    <glyph glyph-name="ydieresis" unicode="&#xff;" 
d="M70 81v417h104v-365q0 -39 37 -39h105q40 0 40 42v362h103v-627q0 -45 -29 -73t-79 -28h-259l-5 96h229q40 0 40 44v114l-23 -24h-187q-34 0 -55 21.5t-21 59.5zM225 565h-88v89h88v-89zM382 565h-89v89h89v-89z" />
    <glyph glyph-name="Amacron" unicode="&#x100;" horiz-adv-x="578" 
d="M288 531l-74 -251h148zM132 0h-112l215 699h104l219 -699h-113l-58 187h-197zM401 760h-229v84h229v-84z" />
    <glyph glyph-name="amacron" unicode="&#x101;" horiz-adv-x="505" 
d="M50 103v69q0 46 30.5 76.5t86.5 34.5l166 11v69q0 40 -38 40h-218l5 95h277q36 0 56 -22t20 -59v-417h-72l-23 25l-24 -25h-168q-98 0 -98 103zM153 155v-19q0 -42 42 -42h99q39 0 39 45v71l-141 -10q-39 -3 -39 -45zM359 570h-229v79h229v-79z" />
    <glyph glyph-name="Abreve" unicode="&#x102;" horiz-adv-x="578" 
d="M288 531l-74 -251h148zM132 0h-112l215 699h104l219 -699h-113l-58 187h-197zM344 748h-126q-40 0 -40 47v55l65 3v-21q0 -24 23 -24h39q23 0 23 24v21l65 -3v-64q0 -38 -49 -38z" />
    <glyph glyph-name="abreve" unicode="&#x103;" horiz-adv-x="505" 
d="M50 103v69q0 46 30.5 76.5t86.5 34.5l166 11v69q0 40 -38 40h-218l5 95h277q36 0 56 -22t20 -59v-417h-72l-23 25l-24 -25h-168q-98 0 -98 103zM153 155v-19q0 -42 42 -42h99q39 0 39 45v71l-141 -10q-39 -3 -39 -45zM319 556h-135q-17 0 -28.5 10.5t-11.5 27.5v64l65 3
v-21q0 -24 23 -24h39q23 0 23 24v21l65 -3v-64q0 -17 -11.5 -27.5t-28.5 -10.5z" />
    <glyph glyph-name="Aogonek" unicode="&#x104;" horiz-adv-x="578" 
d="M377 -149l85 149h-17l-58 187h-197l-58 -187h-112l215 699h104l219 -699h-15l-58 -110q0 -34 37 -34h19l-6 -86h-83q-34 0 -54.5 21.5t-20.5 59.5zM288 531l-74 -251h148z" />
    <glyph glyph-name="aogonek" unicode="&#x105;" horiz-adv-x="505" 
d="M50 103v69q0 46 30.5 76.5t86.5 34.5l166 11v69q0 40 -38 40h-218l5 95h277q36 0 56 -22t20 -59v-417l-53 -95q0 -34 37 -34h13l-6 -101h-103q-34 0 -54.5 21.5t-20.5 59.5l119 149h-4l-23 25l-24 -25h-168q-98 0 -98 103zM153 155v-19q0 -42 42 -42h99q39 0 39 45v71
l-141 -10q-39 -3 -39 -45z" />
    <glyph glyph-name="Cacute" unicode="&#x106;" horiz-adv-x="580" 
d="M70 123v454q0 40 18 74q25 48 102 48h313l6 -92h-291q-45 0 -45 -44v-425q0 -45 40 -45h297v-93h-320q-66 0 -93 31.5t-27 91.5zM336 744h-84l42 115h104z" />
    <glyph glyph-name="cacute" unicode="&#x107;" horiz-adv-x="455" 
d="M60 93v311q0 44 25 69t68 25h236l6 -96h-193q-18 0 -28.5 -9.5t-10.5 -25.5v-231q0 -40 39 -40h193l-6 -96h-236q-44 0 -68.5 25.5t-24.5 67.5zM264 546h-84l52 125h104z" />
    <glyph glyph-name="Ccircumflex" unicode="&#x108;" horiz-adv-x="580" 
d="M70 123v454q0 40 18 74q25 48 102 48h313l6 -92h-291q-45 0 -45 -44v-425q0 -45 40 -45h297v-93h-320q-66 0 -93 31.5t-27 91.5zM268 744h-94l77 115h103l79 -115h-100l-32 49z" />
    <glyph glyph-name="ccircumflex" unicode="&#x109;" horiz-adv-x="455" 
d="M60 93v311q0 44 25 69t68 25h236l6 -96h-193q-18 0 -28.5 -9.5t-10.5 -25.5v-231q0 -40 39 -40h193l-6 -96h-236q-44 0 -68.5 25.5t-24.5 67.5zM198 546h-94l77 125h103l79 -125h-100l-32 51z" />
    <glyph glyph-name="Cdotaccent" unicode="&#x10a;" horiz-adv-x="580" 
d="M355 752h-89v91h89v-91zM70 123v454q0 40 18 74q25 48 102 48h313l6 -92h-291q-45 0 -45 -44v-425q0 -45 40 -45h297v-93h-320q-66 0 -93 31.5t-27 91.5z" />
    <glyph glyph-name="cdotaccent" unicode="&#x10b;" horiz-adv-x="455" 
d="M60 93v311q0 44 25 69t68 25h236l6 -96h-193q-18 0 -28.5 -9.5t-10.5 -25.5v-231q0 -40 39 -40h193l-6 -96h-236q-44 0 -68.5 25.5t-24.5 67.5zM285 565h-88v89h88v-89z" />
    <glyph glyph-name="Ccaron" unicode="&#x10c;" horiz-adv-x="580" 
d="M70 123v454q0 40 18 74q25 48 102 48h313l6 -92h-291q-45 0 -45 -44v-425q0 -45 40 -45h297v-93h-320q-66 0 -93 31.5t-27 91.5zM344 744h-83l-87 115h96l33 -42l32 42h98z" />
    <glyph glyph-name="ccaron" unicode="&#x10d;" horiz-adv-x="455" 
d="M60 93v311q0 44 25 69t68 25h236l6 -96h-193q-18 0 -28.5 -9.5t-10.5 -25.5v-231q0 -40 39 -40h193l-6 -96h-236q-44 0 -68.5 25.5t-24.5 67.5zM274 546h-83l-87 125h96l33 -44l32 44h98z" />
    <glyph glyph-name="Dcaron" unicode="&#x10e;" horiz-adv-x="634" 
d="M445 0h-365v699h365q119 0 119 -123v-453q0 -123 -119 -123zM183 608v-518h238q40 0 40 43v431q0 44 -45 44h-233zM364 744h-83l-87 115h96l33 -42l32 42h98z" />
    <glyph glyph-name="dcaron" unicode="&#x10f;" horiz-adv-x="643" 
d="M608 522h-74l25 81h-22v103h96v-102zM60 101v296q0 46 28.5 73.5t76.5 27.5h167l26 -28v228l100 8v-706h-75l-24 23l-22 -23h-172q-50 0 -77.5 27.5t-27.5 73.5zM159 361v-225q0 -44 40 -44h119q40 0 40 44v225q0 44 -39 44h-119q-41 0 -41 -44z" />
    <glyph glyph-name="Dcroat" unicode="&#x110;" horiz-adv-x="634" 
d="M445 0h-365v305h-60v94h60v300h365q119 0 119 -123v-453q0 -123 -119 -123zM183 305v-215h238q40 0 40 43v431q0 44 -45 44h-233v-209h96v-94h-96z" />
    <glyph glyph-name="dslash" unicode="&#x111;" horiz-adv-x="528" 
d="M60 101v296q0 46 28.5 73.5t76.5 27.5h167l26 -28v84h-93v81h93v63l100 8v-71h70v-81h-70v-554h-75l-24 23l-22 -23h-172q-50 0 -77.5 27.5t-27.5 73.5zM159 361v-225q0 -44 40 -44h119q40 0 40 44v225q0 44 -39 44h-119q-41 0 -41 -44z" />
    <glyph glyph-name="Emacron" unicode="&#x112;" horiz-adv-x="500" 
d="M440 0h-360v699h358v-92h-255v-210h212v-94h-212v-209h257v-94zM368 760h-229v84h229v-84z" />
    <glyph glyph-name="emacron" unicode="&#x113;" horiz-adv-x="518" 
d="M60 101v296q0 46 28 73.5t76 27.5h189q49 0 77 -27.5t28 -73.5v-103q0 -48 -25.5 -73.5t-73.5 -25.5h-169l-31 23v-82q0 -44 41 -44h241l-6 -92h-270q-50 0 -77.5 27t-27.5 74zM159 366v-81h164q35 0 35 35v44q0 41 -40 41h-119q-40 0 -40 -39zM369 570h-229v79h229v-79z
" />
    <glyph glyph-name="Ebreve" unicode="&#x114;" horiz-adv-x="500" 
d="M440 0h-360v699h358v-92h-255v-210h212v-94h-212v-209h257v-94zM316 748h-126q-40 0 -40 47v55l65 3v-21q0 -24 23 -24h39q23 0 23 24v21l65 -3v-64q0 -38 -49 -38z" />
    <glyph glyph-name="ebreve" unicode="&#x115;" horiz-adv-x="518" 
d="M60 101v296q0 46 28 73.5t76 27.5h189q49 0 77 -27.5t28 -73.5v-103q0 -48 -25.5 -73.5t-73.5 -25.5h-169l-31 23v-82q0 -44 41 -44h241l-6 -92h-270q-50 0 -77.5 27t-27.5 74zM159 366v-81h164q35 0 35 35v44q0 41 -40 41h-119q-40 0 -40 -39zM319 556h-135
q-17 0 -28.5 10.5t-11.5 27.5v64l65 3v-21q0 -24 23 -24h39q23 0 23 24v21l65 -3v-64q0 -17 -11.5 -27.5t-28.5 -10.5z" />
    <glyph glyph-name="Edotaccent" unicode="&#x116;" horiz-adv-x="500" 
d="M299 752h-89v91h89v-91zM440 0h-360v699h358v-92h-255v-210h212v-94h-212v-209h257v-94z" />
    <glyph glyph-name="edotaccent" unicode="&#x117;" horiz-adv-x="518" 
d="M60 101v296q0 46 28 73.5t76 27.5h189q49 0 77 -27.5t28 -73.5v-103q0 -48 -25.5 -73.5t-73.5 -25.5h-169l-31 23v-82q0 -44 41 -44h241l-6 -92h-270q-50 0 -77.5 27t-27.5 74zM159 366v-81h164q35 0 35 35v44q0 41 -40 41h-119q-40 0 -40 -39zM302 565h-88v89h88v-89z
" />
    <glyph glyph-name="Eogonek" unicode="&#x118;" horiz-adv-x="500" 
d="M364 0h-284v699h358v-92h-255v-210h212v-94h-212v-209h257v-94l-60 -114q0 -34 37 -34h22l-6 -82h-79q-34 0 -54.5 21.5t-20.5 59.5z" />
    <glyph glyph-name="eogonek" unicode="&#x119;" horiz-adv-x="518" 
d="M60 101v296q0 46 28 73.5t76 27.5h189q49 0 77 -27.5t28 -73.5v-103q0 -48 -25.5 -73.5t-73.5 -25.5h-169l-31 23v-82q0 -44 41 -44h241l-6 -92l-53 -95q0 -34 37 -34h13l-6 -101h-103q-34 0 -54.5 21.5t-20.5 59.5l91 149h-174q-50 0 -77.5 27t-27.5 74zM159 366v-81
h164q35 0 35 35v44q0 41 -40 41h-119q-40 0 -40 -39z" />
    <glyph glyph-name="Ecaron" unicode="&#x11a;" horiz-adv-x="500" 
d="M440 0h-360v699h358v-92h-255v-210h212v-94h-212v-209h257v-94zM296 744h-83l-87 115h96l33 -42l32 42h98z" />
    <glyph glyph-name="ecaron" unicode="&#x11b;" horiz-adv-x="518" 
d="M60 101v296q0 46 28 73.5t76 27.5h189q49 0 77 -27.5t28 -73.5v-103q0 -48 -25.5 -73.5t-73.5 -25.5h-169l-31 23v-82q0 -44 41 -44h241l-6 -92h-270q-50 0 -77.5 27t-27.5 74zM159 366v-81h164q35 0 35 35v44q0 41 -40 41h-119q-40 0 -40 -39zM294 546h-83l-87 125h96
l33 -44l32 44h98z" />
    <glyph glyph-name="Gcircumflex" unicode="&#x11c;" horiz-adv-x="624" 
d="M70 123v454q0 21 5 40t17 39t37.5 31.5t60.5 11.5h321l6 -90h-299q-45 0 -45 -44v-430q0 -20 12 -32.5t32 -12.5h194q40 0 40 45v120h-111v101h214v-233q0 -123 -120 -123h-244q-61 0 -90.5 33t-29.5 90zM268 744h-94l77 115h103l79 -115h-100l-32 49z" />
    <glyph glyph-name="gcircumflex" unicode="&#x11d;" 
d="M60 98v301q0 49 29.5 74t81.5 25h162l23 -25l26 25h77v-627q0 -45 -27.5 -73t-76.5 -28h-273l-5 96h231q28 0 38 9.5t10 34.5v114l-24 -24h-162q-53 0 -81.5 25.5t-28.5 72.5zM159 361v-225q0 -44 40 -44h119q40 0 40 44v225q0 44 -39 44h-119q-41 0 -41 -44zM218 546
h-94l77 125h103l79 -125h-100l-32 51z" />
    <glyph glyph-name="Gbreve" unicode="&#x11e;" horiz-adv-x="624" 
d="M70 123v454q0 21 5 40t17 39t37.5 31.5t60.5 11.5h321l6 -90h-299q-45 0 -45 -44v-430q0 -20 12 -32.5t32 -12.5h194q40 0 40 45v120h-111v101h214v-233q0 -123 -120 -123h-244q-61 0 -90.5 33t-29.5 90zM377 742h-135q-17 0 -28.5 10.5t-11.5 27.5v64l65 3v-21
q0 -24 23 -24h39q23 0 23 24v21l65 -3v-64q0 -17 -11.5 -27.5t-28.5 -10.5z" />
    <glyph glyph-name="gbreve" unicode="&#x11f;" 
d="M60 98v301q0 49 29.5 74t81.5 25h162l23 -25l26 25h77v-627q0 -45 -27.5 -73t-76.5 -28h-273l-5 96h231q28 0 38 9.5t10 34.5v114l-24 -24h-162q-53 0 -81.5 25.5t-28.5 72.5zM159 361v-225q0 -44 40 -44h119q40 0 40 44v225q0 44 -39 44h-119q-41 0 -41 -44zM319 556
h-135q-17 0 -28.5 10.5t-11.5 27.5v64l65 3v-21q0 -24 23 -24h39q23 0 23 24v21l65 -3v-64q0 -17 -11.5 -27.5t-28.5 -10.5z" />
    <glyph glyph-name="Gdotaccent" unicode="&#x120;" horiz-adv-x="624" 
d="M355 752h-89v91h89v-91zM70 123v454q0 21 5 40t17 39t37.5 31.5t60.5 11.5h321l6 -90h-299q-45 0 -45 -44v-430q0 -20 12 -32.5t32 -12.5h194q40 0 40 45v120h-111v101h214v-233q0 -123 -120 -123h-244q-61 0 -90.5 33t-29.5 90z" />
    <glyph glyph-name="gdotaccent" unicode="&#x121;" 
d="M60 98v301q0 49 29.5 74t81.5 25h162l23 -25l26 25h77v-627q0 -45 -27.5 -73t-76.5 -28h-273l-5 96h231q28 0 38 9.5t10 34.5v114l-24 -24h-162q-53 0 -81.5 25.5t-28.5 72.5zM159 361v-225q0 -44 40 -44h119q40 0 40 44v225q0 44 -39 44h-119q-41 0 -41 -44zM295 565
h-88v89h88v-89z" />
    <glyph glyph-name="Gcommaaccent" unicode="&#x122;" horiz-adv-x="624" 
d="M278 -149v103h96v-102l-24 -82h-74l25 81h-23zM70 123v454q0 21 5 40t17 39t37.5 31.5t60.5 11.5h321l6 -90h-299q-45 0 -45 -44v-430q0 -20 12 -32.5t32 -12.5h194q40 0 40 45v120h-111v101h214v-233q0 -123 -120 -123h-244q-61 0 -90.5 33t-29.5 90z" />
    <glyph glyph-name="gcommaaccent" unicode="&#x123;" 
d="M304 550h-96v101l24 83h74l-25 -82h23v-102zM60 98v301q0 49 29.5 74t81.5 25h162l23 -25l26 25h77v-627q0 -45 -27.5 -73t-76.5 -28h-273l-5 96h231q28 0 38 9.5t10 34.5v114l-24 -24h-162q-53 0 -81.5 25.5t-28.5 72.5zM159 361v-225q0 -44 40 -44h119q40 0 40 44v225
q0 44 -39 44h-119q-41 0 -41 -44z" />
    <glyph glyph-name="Hcircumflex" unicode="&#x124;" horiz-adv-x="635" 
d="M279 743h-94l77 105h103l79 -105h-100l-32 41zM183 0h-103v699h103v-302h268v302h104v-699h-104v304h-268v-304z" />
    <glyph glyph-name="hcircumflex" unicode="&#x125;" horiz-adv-x="533" 
d="M173 0h-103v698l102 8v-234l25 26h191q34 0 54.5 -21.5t20.5 -59.5v-417h-103v359q0 43 -42 43h-105q-40 0 -40 -51v-351zM248 746h-94l77 125h103l79 -125h-100l-32 51z" />
    <glyph glyph-name="Hbar" unicode="&#x126;" horiz-adv-x="637" 
d="M183 0h-103v510h-60v75h60v114h103v-114h268v114h104v-114h62v-75h-62v-510h-104v304h-268v-304zM183 510v-113h268v113h-268z" />
    <glyph glyph-name="hbar" unicode="&#x127;" horiz-adv-x="533" 
d="M173 0h-103v563h-56v80h56v55l102 8v-63h90v-80h-90v-91l25 26h191q34 0 54.5 -21.5t20.5 -59.5v-417h-103v359q0 43 -42 43h-105q-40 0 -40 -51v-351z" />
    <glyph glyph-name="Itilde" unicode="&#x128;" horiz-adv-x="362" 
d="M317 0h-277v89h87v521h-87v89h277v-89h-87v-521h87v-89zM208 746l-83 29l-21 -30h-76l72 113h57l90 -28l22 28h74l-70 -112h-65z" />
    <glyph glyph-name="itilde" unicode="&#x129;" horiz-adv-x="239" 
d="M138 553l-83 29l-21 -30h-76l72 113h57l90 -28l22 28h74l-70 -112h-65zM169 0h-99v498h99v-498z" />
    <glyph glyph-name="Imacron" unicode="&#x12a;" horiz-adv-x="357" 
d="M317 0h-277v89h87v521h-87v89h277v-89h-87v-521h87v-89zM288 760h-229v84h229v-84z" />
    <glyph glyph-name="imacron" unicode="&#x12b;" horiz-adv-x="239" 
d="M234 570h-229v79h229v-79zM169 0h-99v498h99v-498z" />
    <glyph glyph-name="Ibreve" unicode="&#x12c;" horiz-adv-x="357" 
d="M317 0h-277v89h87v521h-87v89h277v-89h-87v-521h87v-89zM234 748h-126q-40 0 -40 47v55l65 3v-21q0 -24 23 -24h39q23 0 23 24v21l65 -3v-64q0 -38 -49 -38z" />
    <glyph glyph-name="ibreve" unicode="&#x12d;" horiz-adv-x="239" 
d="M189 556h-135q-17 0 -28.5 10.5t-11.5 27.5v64l65 3v-21q0 -24 23 -24h39q23 0 23 24v21l65 -3v-64q0 -17 -11.5 -27.5t-28.5 -10.5zM169 0h-99v498h99v-498z" />
    <glyph glyph-name="Iogonek" unicode="&#x12e;" horiz-adv-x="357" 
d="M156 0h-116v89h87v521h-87v89h277v-89h-87v-521h87v-89h-86l-59 -114q0 -34 37 -34h21l-6 -82h-78q-34 0 -54.5 21.5t-20.5 59.5z" />
    <glyph glyph-name="iogonek" unicode="&#x12f;" horiz-adv-x="239" 
d="M96 0h-26v498h99v-498l-59 -114q0 -34 37 -34h21l-6 -82h-77q-34 0 -54.5 21.5t-20.5 59.5zM172 558h-102v104h102v-104z" />
    <glyph glyph-name="Idot" unicode="&#x130;" horiz-adv-x="357" 
d="M224 752h-90v91h90v-91zM317 0h-277v89h87v521h-87v89h277v-89h-87v-521h87v-89z" />
    <glyph glyph-name="dotlessi" unicode="&#x131;" horiz-adv-x="239" 
d="M169 0h-99v498h99v-498z" />
    <glyph glyph-name="IJ" unicode="&#x132;" horiz-adv-x="723" 
d="M317 0h-277v89h87v521h-87v89h277v-89h-87v-521h87v-89zM523 0h-125l-5 89h107q40 0 40 44v477h-147v89h250v-576q0 -60 -27 -91.5t-93 -31.5z" />
    <glyph glyph-name="ij" unicode="&#x133;" horiz-adv-x="478" 
d="M169 0h-99v498h99v-498zM309 -99v597h99v-627q0 -46 -26.5 -73.5t-75.5 -27.5h-77l-5 92h43q42 0 42 39zM172 557h-102v104h102v-104zM405 557h-102v104h102v-104z" />
    <glyph glyph-name="Jcircumflex" unicode="&#x134;" horiz-adv-x="370" 
d="M180 0h-125l-5 89h106q40 0 40 44v477h-146v89h250v-576q0 -60 -27 -91.5t-93 -31.5zM138 744h-94l77 115h103l79 -115h-100l-32 49z" />
    <glyph glyph-name="jcircumflex" unicode="&#x135;" horiz-adv-x="239" 
d="M86 546h-94l77 125h103l79 -125h-100l-32 51zM70 -99v597h99v-627q0 -46 -26.5 -73.5t-75.5 -27.5h-77l-5 92h43q42 0 42 39z" />
    <glyph glyph-name="Kcommaaccent" unicode="&#x136;" horiz-adv-x="580" 
d="M270 -149v103h96v-102l-25 -82h-74l25 81h-22zM183 0h-103v699h103v-302h126q44 0 53 39l64 263h105l-67 -280q-10 -42 -37 -64q26 -23 39 -68l84 -287h-106l-82 265q-12 39 -50 39h-129v-304z" />
    <glyph glyph-name="kcommaaccent" unicode="&#x137;" horiz-adv-x="493" 
d="M223 -149v103h96v-102l-25 -82h-74l25 81h-22zM173 0h-103v698l103 8v-411h94q45 0 53 39l33 164h103l-49 -232l-21 -19l22 -20l55 -227h-103l-40 160q-10 39 -50 39h-97v-199z" />
    <glyph glyph-name="kgreenlandic" unicode="&#x138;" horiz-adv-x="493" 
d="M173 0h-103v499l103 8v-212h94q45 0 53 39l33 164h103l-49 -232l-21 -19l22 -20l55 -227h-103l-40 160q-10 39 -50 39h-97v-199z" />
    <glyph glyph-name="Lacute" unicode="&#x139;" horiz-adv-x="488" 
d="M440 0h-360v699h103v-606h257v-93zM166 744h-84l42 115h104z" />
    <glyph glyph-name="lacute" unicode="&#x13a;" horiz-adv-x="244" 
d="M70 698l104 8v-706h-104v698zM157 735h-84l52 125h104z" />
    <glyph glyph-name="Lcommaaccent" unicode="&#x13b;" horiz-adv-x="488" 
d="M220 -149v103h96v-102l-24 -82h-74l25 81h-23zM440 0h-360v699h103v-606h257v-93z" />
    <glyph glyph-name="lcommaaccent" unicode="&#x13c;" horiz-adv-x="244" 
d="M70 698l104 8v-706h-104v698zM75 -149v103h96v-102l-24 -82h-74l25 81h-23z" />
    <glyph glyph-name="Lcaron" unicode="&#x13d;" horiz-adv-x="488" 
d="M326 605h-75l26 81h-23v103h96v-102zM440 0h-360v699h103v-606h257v-93z" />
    <glyph glyph-name="lcaron" unicode="&#x13e;" horiz-adv-x="378" 
d="M70 698l104 8v-706h-104v698zM334 522h-74l25 81h-22v103h96v-102z" />
    <glyph glyph-name="Ldot" unicode="&#x13f;" horiz-adv-x="488" 
d="M416 327h-86v88h86v-88zM440 0h-360v699h103v-606h257v-93z" />
    <glyph glyph-name="ldot" unicode="&#x140;" horiz-adv-x="352" 
d="M70 698l104 8v-706h-104v698zM342 308h-89v91h89v-91z" />
    <glyph glyph-name="Lslash" unicode="&#x141;" horiz-adv-x="488" 
d="M440 0h-360v278l-65 -27v81l65 27v340h103v-298l73 31v-81l-73 -31v-227h257v-93z" />
    <glyph glyph-name="lslash" unicode="&#x142;" horiz-adv-x="237" 
d="M167 0h-100v279l-61 -28v81l61 28v338l100 8v-303l65 29v-81l-65 -29v-322z" />
    <glyph glyph-name="Nacute" unicode="&#x143;" horiz-adv-x="635" 
d="M183 0h-103v699h101l270 -448v448h104v-699h-91l-281 477v-477zM346 744h-84l42 115h104z" />
    <glyph glyph-name="nacute" unicode="&#x144;" horiz-adv-x="533" 
d="M173 0h-103v498h77l25 -23l22 23h194q34 0 54.5 -21.5t20.5 -59.5v-417h-104v365q0 39 -37 39h-109q-40 0 -40 -43v-361zM304 546h-84l52 125h104z" />
    <glyph glyph-name="Ncommaaccent" unicode="&#x145;" horiz-adv-x="635" 
d="M279 -149v103h96v-102l-24 -82h-74l25 81h-23zM183 0h-103v699h101l270 -448v448h104v-699h-91l-281 477v-477z" />
    <glyph glyph-name="ncommaaccent" unicode="&#x146;" horiz-adv-x="533" 
d="M229 -149v103h96v-102l-24 -82h-74l25 81h-23zM173 0h-103v498h77l25 -23l22 23h194q34 0 54.5 -21.5t20.5 -59.5v-417h-104v365q0 39 -37 39h-109q-40 0 -40 -43v-361z" />
    <glyph glyph-name="Ncaron" unicode="&#x147;" horiz-adv-x="635" 
d="M183 0h-103v699h101l270 -448v448h104v-699h-91l-281 477v-477zM364 744h-83l-87 115h96l33 -42l32 42h98z" />
    <glyph glyph-name="ncaron" unicode="&#x148;" horiz-adv-x="533" 
d="M173 0h-103v498h77l25 -23l22 23h194q34 0 54.5 -21.5t20.5 -59.5v-417h-104v365q0 39 -37 39h-109q-40 0 -40 -43v-361zM314 546h-83l-87 125h96l33 -44l32 44h98z" />
    <glyph glyph-name="napostrophe" unicode="&#x149;" horiz-adv-x="533" 
d="M151 540h-75l26 81h-23v103h96v-102zM173 0h-103v498h77l25 -23l22 23h194q34 0 54.5 -21.5t20.5 -59.5v-417h-104v365q0 39 -37 39h-109q-40 0 -40 -43v-361z" />
    <glyph glyph-name="Eng" unicode="&#x14a;" horiz-adv-x="635" 
d="M183 0h-103v699h101l270 -448v448h104v-806q0 -60 -27 -91.5t-93 -31.5h-66l-5 96h47q40 0 40 45v112l-268 454v-477z" />
    <glyph glyph-name="eng" unicode="&#x14b;" horiz-adv-x="532" 
d="M173 0h-103v498h77l25 -23l22 23h193q34 0 54.5 -21.5t20.5 -59.5v-546q0 -45 -28 -73t-78 -28h-77l-5 96h43q42 0 42 39v459q0 39 -37 39h-109q-40 0 -40 -43v-360z" />
    <glyph glyph-name="Omacron" unicode="&#x14c;" horiz-adv-x="624" 
d="M70 122v455q0 122 120 122h244q120 0 120 -122v-455q0 -122 -120 -122h-244q-120 0 -120 122zM173 565v-431q0 -19 12 -31.5t33 -12.5h188q45 0 45 44v431q0 44 -45 44h-188q-21 0 -33 -12.5t-12 -31.5zM423 752h-229v84h229v-84z" />
    <glyph glyph-name="omacron" unicode="&#x14d;" horiz-adv-x="518" 
d="M60 101v296q0 45 27.5 73t76.5 28h190q49 0 76.5 -28t27.5 -73v-296q0 -45 -27.5 -73t-76.5 -28h-190q-49 0 -76.5 28t-27.5 73zM159 361v-225q0 -44 40 -44h119q40 0 40 44v225q0 44 -39 44h-119q-41 0 -41 -44zM369 570h-229v79h229v-79z" />
    <glyph glyph-name="Obreve" unicode="&#x14e;" horiz-adv-x="624" 
d="M70 122v455q0 122 120 122h244q120 0 120 -122v-455q0 -122 -120 -122h-244q-120 0 -120 122zM173 565v-431q0 -19 12 -31.5t33 -12.5h188q45 0 45 44v431q0 44 -45 44h-188q-21 0 -33 -12.5t-12 -31.5zM374 748h-126q-40 0 -40 47v55l65 3v-21q0 -24 23 -24h39
q23 0 23 24v21l65 -3v-64q0 -38 -49 -38z" />
    <glyph glyph-name="obreve" unicode="&#x14f;" horiz-adv-x="518" 
d="M60 101v296q0 45 27.5 73t76.5 28h190q49 0 76.5 -28t27.5 -73v-296q0 -45 -27.5 -73t-76.5 -28h-190q-49 0 -76.5 28t-27.5 73zM159 361v-225q0 -44 40 -44h119q40 0 40 44v225q0 44 -39 44h-119q-41 0 -41 -44zM319 556h-135q-17 0 -28.5 10.5t-11.5 27.5v64l65 3v-21
q0 -24 23 -24h39q23 0 23 24v21l65 -3v-64q0 -17 -11.5 -27.5t-28.5 -10.5z" />
    <glyph glyph-name="Ohungarumlaut" unicode="&#x150;" horiz-adv-x="624" 
d="M70 122v455q0 122 120 122h244q120 0 120 -122v-455q0 -122 -120 -122h-244q-120 0 -120 122zM173 565v-431q0 -19 12 -31.5t33 -12.5h188q45 0 45 44v431q0 44 -45 44h-188q-21 0 -33 -12.5t-12 -31.5zM396 744h-84l42 115h104zM266 744h-84l42 115h104z" />
    <glyph glyph-name="ohungarumlaut" unicode="&#x151;" horiz-adv-x="518" 
d="M60 101v296q0 45 27.5 73t76.5 28h190q49 0 76.5 -28t27.5 -73v-296q0 -45 -27.5 -73t-76.5 -28h-190q-49 0 -76.5 28t-27.5 73zM159 361v-225q0 -44 40 -44h119q40 0 40 44v225q0 44 -39 44h-119q-41 0 -41 -44zM344 546h-84l52 125h104zM214 546h-84l52 125h104z" />
    <glyph glyph-name="OE" unicode="&#x152;" horiz-adv-x="871" 
d="M70 122v455q0 55 29 88.5t91 33.5h619v-92h-255v-210h212v-94h-212v-209h257v-94h-621q-120 0 -120 122zM173 564v-428q0 -21 11 -33t32 -12h235v517h-233q-45 0 -45 -44z" />
    <glyph glyph-name="oe" unicode="&#x153;" horiz-adv-x="816" 
d="M60 101v296q0 45 27.5 73t76.5 28h190q30 0 55 -12q25 12 54 12h188q49 0 77 -27.5t28 -73.5v-103q0 -48 -25.5 -73.5t-73.5 -25.5h-169l-31 23v-87q0 -39 41 -39h241l-6 -92h-269q-31 0 -56 11q-25 -11 -54 -11h-190q-49 0 -76.5 28t-27.5 73zM159 361v-225
q0 -44 40 -44h119q40 0 40 44v225q0 44 -39 44h-119q-41 0 -41 -44zM457 366v-81h164q35 0 35 35v44q0 41 -40 41h-119q-40 0 -40 -39z" />
    <glyph glyph-name="Racute" unicode="&#x154;" horiz-adv-x="587" 
d="M326 743h-82l51 105h105zM183 0h-103v699h317q120 0 120 -119v-180q0 -26 -10.5 -47t-23.5 -29l-11 -6q4 -1 10 -6q7 -5 18 -24.5t14 -41.5l33 -246h-107l-32 224q-6 44 -50 44h-175v-268zM183 606v-245h182q20 0 32.5 13.5t12.5 33.5v152q0 46 -45 46h-182z" />
    <glyph glyph-name="racute" unicode="&#x155;" horiz-adv-x="342" 
d="M173 0h-103v498h77l25 -23l22 23h122l-14 -100h-89q-40 0 -40 -43v-355zM224 546h-84l52 125h104z" />
    <glyph glyph-name="Rcommaaccent" unicode="&#x156;" horiz-adv-x="587" 
d="M271 -149v103h96v-102l-24 -82h-74l25 81h-23zM183 0h-103v699h317q120 0 120 -119v-180q0 -26 -10.5 -47t-23.5 -29l-11 -6q4 -1 10 -6q7 -5 18 -24.5t14 -41.5l33 -246h-107l-32 224q-6 44 -50 44h-175v-268zM183 606v-245h182q20 0 32.5 13.5t12.5 33.5v152
q0 46 -45 46h-182z" />
    <glyph glyph-name="rcommaaccent" unicode="&#x157;" horiz-adv-x="348" 
d="M76 -149v103h96v-102l-25 -82h-74l25 81h-22zM173 0h-103v498h77l25 -23l22 23h122l-14 -100h-89q-40 0 -40 -43v-355z" />
    <glyph glyph-name="Rcaron" unicode="&#x158;" horiz-adv-x="587" 
d="M183 0h-103v699h317q120 0 120 -119v-180q0 -26 -10.5 -47t-23.5 -29l-11 -6q4 -1 10 -6q7 -5 18 -24.5t14 -41.5l33 -246h-107l-32 224q-6 44 -50 44h-175v-268zM183 606v-245h182q20 0 32.5 13.5t12.5 33.5v152q0 46 -45 46h-182zM334 744h-83l-87 115h96l33 -42l32 42
h98z" />
    <glyph glyph-name="rcaron" unicode="&#x159;" horiz-adv-x="347" 
d="M173 0h-103v498h77l25 -23l22 23h122l-14 -100h-89q-40 0 -40 -43v-355zM234 546h-83l-87 125h96l33 -44l32 44h98z" />
    <glyph glyph-name="Sacute" unicode="&#x15a;" horiz-adv-x="518" 
d="M273 743h-83l52 105h104zM381 0h-310l-6 96h250q37 0 37 34v112q0 32 -32 43l-183 41q-75 16 -75 85v207q0 38 20.5 59.5t54.5 21.5h295l6 -96h-235q-37 0 -37 -34v-100q0 -31 33 -41l182 -42q75 -16 75 -85v-220q0 -38 -20.5 -59.5t-54.5 -21.5z" />
    <glyph glyph-name="sacute" unicode="&#x15b;" horiz-adv-x="442" 
d="M317 0h-261l-6 93h208q35 0 35 32v20q0 30 -36 39l-128 32q-39 9 -57 27.5t-18 53.5v120q0 38 20.5 59.5t54.5 21.5h247l6 -95h-191q-37 0 -37 -32v-24q0 -26 32 -35l131 -34q41 -12 58 -30t17 -55v-112q0 -38 -20.5 -59.5t-54.5 -21.5zM244 546h-84l52 125h104z" />
    <glyph glyph-name="Scircumflex" unicode="&#x15c;" horiz-adv-x="518" 
d="M381 0h-310l-6 96h250q37 0 37 34v112q0 32 -32 43l-183 41q-75 16 -75 85v207q0 38 20.5 59.5t54.5 21.5h295l6 -96h-235q-37 0 -37 -34v-100q0 -31 33 -41l182 -42q75 -16 75 -85v-220q0 -38 -20.5 -59.5t-54.5 -21.5zM218 744h-94l77 115h103l79 -115h-100l-32 49z
" />
    <glyph glyph-name="scircumflex" unicode="&#x15d;" horiz-adv-x="442" 
d="M317 0h-261l-6 93h208q35 0 35 32v20q0 30 -36 39l-128 32q-39 9 -57 27.5t-18 53.5v120q0 38 20.5 59.5t54.5 21.5h247l6 -95h-191q-37 0 -37 -32v-24q0 -26 32 -35l131 -34q41 -12 58 -30t17 -55v-112q0 -38 -20.5 -59.5t-54.5 -21.5zM188 546h-94l77 125h103l79 -125
h-100l-32 51z" />
    <glyph glyph-name="Scedilla" unicode="&#x15e;" horiz-adv-x="518" 
d="M243 0h-172l-6 96h250q37 0 37 34v112q0 32 -32 43l-183 41q-75 16 -75 85v207q0 38 20.5 59.5t54.5 21.5h295l6 -96h-235q-37 0 -37 -34v-100q0 -31 33 -41l182 -42q75 -16 75 -85v-220q0 -38 -20.5 -59.5t-54.5 -21.5h-74l-45 -76h30q22 0 36 -13.5t14 -35.5v-58
q0 -23 -12.5 -35t-34.5 -12h-105v55h81q6 0 11 4t5 10v11q0 19 -16 19h-72v54z" />
    <glyph glyph-name="scedilla" unicode="&#x15f;" horiz-adv-x="442" 
d="M193 0h-137l-6 93h208q35 0 35 32v20q0 30 -36 39l-128 32q-39 9 -57 27.5t-18 53.5v120q0 38 20.5 59.5t54.5 21.5h247l6 -95h-191q-37 0 -37 -32v-24q0 -26 32 -35l131 -34q41 -12 58 -30t17 -55v-112q0 -38 -20.5 -59.5t-54.5 -21.5h-60l-45 -76h30q22 0 36 -13.5
t14 -35.5v-58q0 -23 -12.5 -35t-34.5 -12h-105v55h81q6 0 11 4t5 10v11q0 19 -16 19h-72v54z" />
    <glyph glyph-name="Scaron" unicode="&#x160;" horiz-adv-x="518" 
d="M381 0h-310l-6 96h250q37 0 37 34v112q0 32 -32 43l-183 41q-75 16 -75 85v207q0 38 20.5 59.5t54.5 21.5h295l6 -96h-235q-37 0 -37 -34v-100q0 -31 33 -41l182 -42q75 -16 75 -85v-220q0 -38 -20.5 -59.5t-54.5 -21.5zM294 744h-83l-87 115h96l33 -42l32 42h98z" />
    <glyph glyph-name="scaron" unicode="&#x161;" horiz-adv-x="442" 
d="M317 0h-261l-6 93h208q35 0 35 32v20q0 30 -36 39l-128 32q-39 9 -57 27.5t-18 53.5v120q0 38 20.5 59.5t54.5 21.5h247l6 -95h-191q-37 0 -37 -32v-24q0 -26 32 -35l131 -34q41 -12 58 -30t17 -55v-112q0 -38 -20.5 -59.5t-54.5 -21.5zM264 546h-83l-87 125h96l33 -44
l32 44h98z" />
    <glyph glyph-name="Tcommaaccent" unicode="&#x162;" horiz-adv-x="532" 
d="M189 -131v54l44 77h-19v610h-174v89h452v-89h-174v-610h-21l-45 -76h30q22 0 36 -13.5t14 -35.5v-58q0 -23 -12.5 -35t-34.5 -12h-105v55h81q6 0 11 4t5 10v11q0 19 -16 19h-72z" />
    <glyph glyph-name="tcommaaccent" unicode="&#x163;" horiz-adv-x="347" 
d="M98 101v303h-88v94h88v97l103 8v-105h116v-94h-116v-269q0 -44 42 -44h68l-6 -91h-58l-45 -76h30q22 0 36 -13.5t14 -35.5v-58q0 -23 -12.5 -35t-34.5 -12h-105v55h81q6 0 11 4t5 10v11q0 19 -16 19h-72v54l45 79q-86 14 -86 99z" />
    <glyph glyph-name="Tcaron" unicode="&#x164;" horiz-adv-x="532" 
d="M317 0h-103v610h-174v89h452v-89h-175v-610zM303 744h-83l-87 115h96l33 -42l32 42h98z" />
    <glyph glyph-name="tcaron" unicode="&#x165;" horiz-adv-x="347" 
d="M326 550h-75l26 81h-23v103h96v-102zM98 101v303h-88v94h88v97l103 8v-105h116v-94h-116v-269q0 -44 42 -44h68l-6 -91h-89q-118 0 -118 101z" />
    <glyph glyph-name="Tbar" unicode="&#x166;" horiz-adv-x="532" 
d="M395 382v-77h-78v-305h-103v305h-78v77h78v228h-174v89h452v-89h-175v-228h78z" />
    <glyph glyph-name="tbar" unicode="&#x167;" horiz-adv-x="347" 
d="M98 101v112h-68v83h68v108h-88v94h88v97l103 8v-105h116v-94h-116v-108h88v-83h-88v-78q0 -44 42 -44h68l-6 -91h-89q-118 0 -118 101z" />
    <glyph glyph-name="Utilde" unicode="&#x168;" horiz-adv-x="635" 
d="M80 123v576h103v-561q0 -45 40 -45h187q40 0 40 45v561h105v-576q0 -123 -121 -123h-234q-66 0 -93 31.5t-27 91.5zM338 746l-83 29l-21 -30h-76l72 113h57l90 -28l22 28h74l-70 -112h-65z" />
    <glyph glyph-name="utilde" unicode="&#x169;" 
d="M356 498h103v-498h-77l-25 23l-22 -23h-190q-34 0 -54.5 21.5t-20.5 59.5v417h104v-365q0 -39 37 -39h105q40 0 40 43v361zM298 553l-83 29l-21 -30h-76l72 113h57l90 -28l22 28h74l-70 -112h-65z" />
    <glyph glyph-name="Umacron" unicode="&#x16a;" horiz-adv-x="635" 
d="M80 123v576h103v-561q0 -45 40 -45h187q40 0 40 45v561h105v-576q0 -123 -121 -123h-234q-66 0 -93 31.5t-27 91.5zM431 760h-229v84h229v-84z" />
    <glyph glyph-name="umacron" unicode="&#x16b;" 
d="M356 498h103v-498h-77l-25 23l-22 -23h-190q-34 0 -54.5 21.5t-20.5 59.5v417h104v-365q0 -39 37 -39h105q40 0 40 43v361zM373 570h-229v79h229v-79z" />
    <glyph glyph-name="Ubreve" unicode="&#x16c;" horiz-adv-x="635" 
d="M80 123v576h103v-561q0 -45 40 -45h187q40 0 40 45v561h105v-576q0 -123 -121 -123h-234q-66 0 -93 31.5t-27 91.5zM372 748h-126q-40 0 -40 47v55l65 3v-21q0 -24 23 -24h39q23 0 23 24v21l65 -3v-64q0 -38 -49 -38z" />
    <glyph glyph-name="ubreve" unicode="&#x16d;" 
d="M356 498h103v-498h-77l-25 23l-22 -23h-190q-34 0 -54.5 21.5t-20.5 59.5v417h104v-365q0 -39 37 -39h105q40 0 40 43v361zM330 556h-135q-17 0 -28.5 10.5t-11.5 27.5v64l65 3v-21q0 -24 23 -24h39q23 0 23 24v21l65 -3v-64q0 -17 -11.5 -27.5t-28.5 -10.5z" />
    <glyph glyph-name="Uring" unicode="&#x16e;" horiz-adv-x="635" 
d="M321 725h-14q-35 0 -54 19.5t-19 51.5v23q0 33 19 52t54 19h14q35 0 54.5 -19t19.5 -52v-23q0 -32 -19.5 -51.5t-54.5 -19.5zM307 773h15q25 0 25 29v12q0 29 -25 29h-15q-26 0 -26 -29v-12q0 -29 26 -29zM80 123v576h103v-561q0 -45 40 -45h187q40 0 40 45v561h105v-576
q0 -123 -121 -123h-234q-66 0 -93 31.5t-27 91.5z" />
    <glyph glyph-name="uring" unicode="&#x16f;" 
d="M269 541h-16q-35 0 -54 19.5t-19 51.5v25q0 33 19 52t54 19h16q35 0 54.5 -19t19.5 -52v-25q0 -32 -19.5 -51.5t-54.5 -19.5zM253 590h17q24 0 24 28v14q0 28 -24 28h-17q-24 0 -24 -28v-14q0 -28 24 -28zM356 498h103v-498h-77l-25 23l-22 -23h-190q-34 0 -54.5 21.5
t-20.5 59.5v417h104v-365q0 -39 37 -39h105q40 0 40 43v361z" />
    <glyph glyph-name="Uhungarumlaut" unicode="&#x170;" horiz-adv-x="635" 
d="M80 123v576h103v-561q0 -45 40 -45h187q40 0 40 45v561h105v-576q0 -123 -121 -123h-234q-66 0 -93 31.5t-27 91.5zM406 744h-84l42 115h104zM276 744h-84l42 115h104z" />
    <glyph glyph-name="uhungarumlaut" unicode="&#x171;" 
d="M356 498h103v-498h-77l-25 23l-22 -23h-190q-34 0 -54.5 21.5t-20.5 59.5v417h104v-365q0 -39 37 -39h105q40 0 40 43v361zM344 546h-84l52 125h104zM214 546h-84l52 125h104z" />
    <glyph glyph-name="Uogonek" unicode="&#x172;" horiz-adv-x="634" 
d="M80 123v576h103v-561q0 -45 40 -45h187q40 0 40 45v561h104v-576q0 -60 -27 -91.5t-93 -31.5h-47l-60 -114q0 -34 37 -34h21l-6 -82h-78q-35 0 -55 21t-20 60l85 149h-111q-66 0 -93 31.5t-27 91.5z" />
    <glyph glyph-name="uogonek" unicode="&#x173;" 
d="M356 498h103v-498l-58 -110q0 -34 37 -34h20l-6 -86h-84q-34 0 -54.5 21.5t-20.5 59.5l96 149h-7l-25 23l-22 -23h-190q-34 0 -54.5 21.5t-20.5 59.5v417h104v-365q0 -39 37 -39h105q40 0 40 43v361z" />
    <glyph glyph-name="Wcircumflex" unicode="&#x174;" horiz-adv-x="862" 
d="M665 0h-111l-125 493l-114 -493h-111l-174 699h107l126 -504l115 504h107l128 -504l113 504h106zM397 744h-94l77 115h103l79 -115h-100l-32 49z" />
    <glyph glyph-name="wcircumflex" unicode="&#x175;" horiz-adv-x="704" 
d="M316 546h-98l78 108h108l80 -108h-103l-32 42zM260 0h-96l-144 498h103l91 -335l87 335h103l90 -333l90 333h100l-144 -498h-96l-92 335z" />
    <glyph glyph-name="Ycircumflex" unicode="&#x176;" horiz-adv-x="557" 
d="M325 0h-101v312l-194 387h119l126 -261l133 261h119l-202 -387v-312zM238 744h-94l77 115h103l79 -115h-100l-32 49z" />
    <glyph glyph-name="ycircumflex" unicode="&#x177;" 
d="M229 546h-98l78 108h108l80 -108h-103l-32 42zM70 81v417h104v-365q0 -39 37 -39h105q40 0 40 42v362h103v-627q0 -45 -29 -73t-79 -28h-259l-5 96h229q40 0 40 44v114l-23 -24h-187q-34 0 -55 21.5t-21 59.5z" />
    <glyph glyph-name="Ydieresis" unicode="&#x178;" horiz-adv-x="557" 
d="M240 747h-88v89h88v-89zM387 747h-89v89h89v-89zM325 0h-101v312l-194 387h119l126 -261l133 261h119l-202 -387v-312z" />
    <glyph glyph-name="Zacute" unicode="&#x179;" horiz-adv-x="480" 
d="M158 93h286l-6 -93h-408v79l291 528h-274l6 92h393v-84zM266 744h-84l42 115h104z" />
    <glyph glyph-name="zacute" unicode="&#x17a;" horiz-adv-x="440" 
d="M174 90h226l-6 -90h-354v80l220 324h-212l6 94h337v-84zM234 546h-84l52 125h104z" />
    <glyph glyph-name="Zdotaccent" unicode="&#x17b;" horiz-adv-x="480" 
d="M438 0h-408v79l291 528h-274l6 92h393v-84l-288 -522h286zM275 752h-89v91h89v-91z" />
    <glyph glyph-name="zdotaccent" unicode="&#x17c;" horiz-adv-x="440" 
d="M394 0h-354v80l220 324h-212l6 94h337v-84l-217 -324h226zM261 565h-88v89h88v-89z" />
    <glyph glyph-name="Zcaron" unicode="&#x17d;" horiz-adv-x="480" 
d="M438 0h-408v79l291 528h-274l6 92h393v-84l-288 -522h286zM284 744h-83l-87 115h96l33 -42l32 42h98z" />
    <glyph glyph-name="zcaron" unicode="&#x17e;" horiz-adv-x="440" 
d="M394 0h-354v80l220 324h-212l6 94h337v-84l-217 -324h226zM259 546h-83l-87 125h96l33 -44l32 44h98z" />
    <glyph glyph-name="longs" unicode="&#x17f;" horiz-adv-x="333" 
d="M203 0h-103v404h-90v94h90v104q0 46 25.5 73.5t74.5 27.5h107l6 -93h-70q-40 0 -40 -44v-566z" />
    <glyph glyph-name="florin" unicode="&#x192;" horiz-adv-x="336" 
d="M58 -94l38 392h-90l9 91h90l21 208q4 45 34.5 73t80.5 28h100l-10 -94h-66q-38 0 -44 -44l-16 -171h107l-9 -91h-107l-41 -431q-5 -43 -37.5 -70t-82.5 -27h-99l12 92h66q39 0 44 44z" />
    <glyph glyph-name="Aringacute" unicode="&#x1fa;" horiz-adv-x="578" 
d="M291 741h-13q-35 0 -54 19.5t-19 51.5v22q0 33 19 52t54 19h13q35 0 54.5 -19t19.5 -52v-22q0 -32 -19.5 -51.5t-54.5 -19.5zM277 788h15q26 0 26 29v12q0 29 -26 29h-15q-25 0 -25 -29v-12q0 -29 25 -29zM311 946h-84l52 105h104zM288 531l-74 -251h148zM132 0h-112
l215 699h104l219 -699h-113l-58 187h-197z" />
    <glyph glyph-name="aringacute" unicode="&#x1fb;" horiz-adv-x="505" 
d="M50 103v69q0 46 30.5 76.5t86.5 34.5l166 11v69q0 40 -38 40h-218l5 95h277q36 0 56 -22t20 -59v-417h-72l-23 25l-24 -25h-168q-98 0 -98 103zM153 155v-19q0 -42 42 -42h99q39 0 39 45v71l-141 -10q-39 -3 -39 -45zM251 541h-13q-35 0 -54 19.5t-19 51.5v22q0 33 19 52
t54 19h13q35 0 54.5 -19t19.5 -52v-22q0 -32 -19.5 -51.5t-54.5 -19.5zM237 588h15q26 0 26 29v12q0 29 -26 29h-15q-25 0 -25 -29v-12q0 -29 25 -29zM264 741h-84l52 125h104z" />
    <glyph glyph-name="AEacute" unicode="&#x1fc;" horiz-adv-x="763" 
d="M136 0h-116l315 699h368v-92h-254v-210h211v-94h-211v-209h254v-94h-358v195h-125zM345 500l-88 -210h88v210zM546 744h-84l42 115h104z" />
    <glyph glyph-name="aeacute" unicode="&#x1fd;" horiz-adv-x="792" 
d="M50 103v69q0 98 97 104l186 11v78q0 38 -38 38h-218l5 95h232q35 0 68 -10q26 10 59 10h186q49 0 77 -28t28 -75v-101q0 -48 -25.5 -73.5t-73.5 -25.5h-168l-31 23v-83q0 -43 40 -43h241l-6 -92h-269q-40 0 -54 35q-12 -35 -54 -35h-184q-98 0 -98 103zM153 147v-15
q0 -38 42 -38h99q39 0 39 43v67l-141 -11q-39 -3 -39 -46zM434 366v-81h154q24 0 34 9t10 33v35q0 43 -40 43h-118q-40 0 -40 -39zM424 546h-84l52 125h104z" />
    <glyph glyph-name="Oslashacute" unicode="&#x1fe;" horiz-adv-x="624" 
d="M70 122v455q0 122 120 122h244q38 0 68 -15l29 47l38 -26l-33 -53q18 -30 18 -75v-455q0 -122 -120 -122h-244q-47 0 -75 19l-30 -49l-39 27l37 60q-13 25 -13 65zM218 90h188q45 0 45 44v330q0 24 -3 49l-272 -397q9 -26 42 -26zM173 565v-314q0 -27 3 -49l268 389
q-10 18 -38 18h-188q-21 0 -33 -12.5t-12 -31.5zM336 744h-84l42 115h104z" />
    <glyph glyph-name="oslashacute" unicode="&#x1ff;" horiz-adv-x="518" 
d="M296 546h-84l52 105h104zM60 101v296q0 45 27.5 73t76.5 28h190q23 0 45 -8l34 46l39 -26l-35 -48q21 -26 21 -65v-296q0 -45 -27.5 -73t-76.5 -28h-190q-34 0 -54 11l-31 -41l-40 26l36 48q-15 24 -15 57zM199 92h119q40 0 40 44v158q0 26 -3 51l-184 -245q11 -8 28 -8z
M159 361v-144q0 -26 3 -50l177 234q-7 4 -20 4h-119q-41 0 -41 -44z" />
    <glyph glyph-name="Scommaaccent" unicode="&#x218;" horiz-adv-x="518" 
d="M210 -149v103h96v-102l-24 -82h-74l25 81h-23zM381 0h-310l-6 96h250q37 0 37 34v109q0 32 -32 43l-183 44q-75 16 -75 85v207q0 38 20.5 59.5t54.5 21.5h295l6 -96h-235q-37 0 -37 -34v-100q0 -31 33 -41l182 -42q75 -16 75 -85v-220q0 -38 -20.5 -59.5t-54.5 -21.5z
" />
    <glyph glyph-name="scommaaccent" unicode="&#x219;" horiz-adv-x="442" 
d="M182 -149v103h96v-102l-24 -82h-75l26 81h-23zM317 0h-261l-6 93h208q35 0 35 32v20q0 30 -36 39l-128 32q-39 9 -57 27.5t-18 53.5v120q0 38 20.5 59.5t54.5 21.5h247l6 -95h-191q-37 0 -37 -32v-24q0 -26 32 -35l131 -34q41 -12 58 -30t17 -55v-112q0 -38 -20.5 -59.5
t-54.5 -21.5z" />
    <glyph glyph-name="uni021A" unicode="&#x21a;" horiz-adv-x="532" 
d="M219 -149v103h96v-102l-24 -82h-74l25 81h-23zM318 0h-104v610h-174v89h452v-89h-174v-610z" />
    <glyph glyph-name="uni021B" unicode="&#x21b;" horiz-adv-x="347" 
d="M98 101v303h-88v94h88v97l103 8v-105h116v-94h-116v-269q0 -44 42 -44h68l-6 -91h-89q-118 0 -118 101zM165 -149v103h96v-102l-24 -82h-74l25 81h-23z" />
    <glyph glyph-name="dotlessj" unicode="&#x237;" horiz-adv-x="239" 
d="M70 -99v597h99v-627q0 -46 -26.5 -73.5t-75.5 -27.5h-77l-5 92h43q42 0 42 39z" />
    <glyph glyph-name="circumflex" unicode="&#x2c6;" horiz-adv-x="343" 
d="M126 574h-94l77 125h103l79 -125h-100l-32 51z" />
    <glyph glyph-name="caron" unicode="&#x2c7;" horiz-adv-x="343" 
d="M201 698h100l-83 -106h-96l-80 106h94l33 -39z" />
    <glyph glyph-name="breve" unicode="&#x2d8;" horiz-adv-x="292" 
d="M210 603h-128q-17 0 -28.5 10.5t-11.5 27.5v61l61 3v-20q0 -24 23 -24h39q23 0 23 24v20l62 -3v-61q0 -17 -11.5 -27.5t-28.5 -10.5z" />
    <glyph glyph-name="dotaccent" unicode="&#x2d9;" horiz-adv-x="171" 
d="M129 609h-87v89h87v-89z" />
    <glyph glyph-name="ring" unicode="&#x2da;" horiz-adv-x="253" 
d="M133 533h-13q-35 0 -54 19.5t-19 51.5v23q0 33 19 52t54 19h13q35 0 54.5 -19t19.5 -52v-23q0 -32 -19.5 -51.5t-54.5 -19.5zM119 581h15q25 0 25 29v12q0 29 -25 29h-15q-25 0 -25 -29v-12q0 -29 25 -29z" />
    <glyph glyph-name="ogonek" unicode="&#x2db;" horiz-adv-x="258" 
d="M42 -149l99 149h74l-59 -108q0 -34 37 -34h21l-6 -88h-91q-34 0 -54.5 21.5t-20.5 59.5z" />
    <glyph glyph-name="tilde" unicode="&#x2dc;" horiz-adv-x="403" 
d="M228 590l-83 29l-21 -30h-76l72 113h57l90 -28l22 28h74l-70 -112h-65z" />
    <glyph glyph-name="hungarumlaut" unicode="&#x2dd;" horiz-adv-x="384" 
d="M133 592h-85l52 106h104zM264 592h-84l51 106h105z" />
    <glyph glyph-name="pi" unicode="&#x3c0;" horiz-adv-x="614" 
d="M214 0h-104v402h-80v95h554v-95h-81v-402h-104v402h-185v-402z" />
    <glyph glyph-name="Wgrave" unicode="&#x1e80;" horiz-adv-x="862" 
d="M665 0h-111l-125 493l-114 -493h-111l-174 699h107l126 -504l115 504h107l128 -504l113 504h106zM332 859h104l42 -115h-84z" />
    <glyph glyph-name="wgrave" unicode="&#x1e81;" horiz-adv-x="709" 
d="M265 0h-96l-144 498h103l91 -335l87 335h103l90 -333l90 333h100l-144 -498h-96l-92 335zM250 671h104l52 -125h-84z" />
    <glyph glyph-name="Wacute" unicode="&#x1e82;" horiz-adv-x="862" 
d="M665 0h-111l-125 493l-114 -493h-111l-174 699h107l126 -504l115 504h107l128 -504l113 504h106zM466 744h-84l42 115h104z" />
    <glyph glyph-name="wacute" unicode="&#x1e83;" horiz-adv-x="704" 
d="M260 0h-96l-144 498h103l91 -335l87 335h103l90 -333l90 333h100l-144 -498h-96l-92 335zM394 546h-84l52 125h104z" />
    <glyph glyph-name="Wdieresis" unicode="&#x1e84;" horiz-adv-x="862" 
d="M397 747h-88v89h88v-89zM544 747h-89v89h89v-89zM665 0h-111l-125 493l-114 -493h-111l-174 699h107l126 -504l115 504h107l128 -504l113 504h106z" />
    <glyph glyph-name="wdieresis" unicode="&#x1e85;" horiz-adv-x="704" 
d="M260 0h-96l-144 498h103l91 -335l87 335h103l90 -333l90 333h100l-144 -498h-96l-92 335zM315 565h-88v89h88v-89zM472 565h-89v89h89v-89z" />
    <glyph glyph-name="germandbls.ss01" unicode="&#x1e9e;" horiz-adv-x="617" 
d="M413 295l-91 73v89l98 156h-194q-43 0 -43 -44v-569h-103v605q0 44 26 72.5t78 28.5h340v-93l-106 -180l73 -60q31 -24 43.5 -48.5t12.5 -59.5v-184q0 -38 -20.5 -59.5t-54.5 -21.5h-164l-6 93h104q37 0 37 34v109q0 35 -30 59z" />
    <glyph glyph-name="Ygrave" unicode="&#x1ef2;" horiz-adv-x="557" 
d="M325 0h-101v312l-194 387h119l126 -261l133 261h119l-202 -387v-312zM164 848h105l51 -105h-82z" />
    <glyph glyph-name="ygrave" unicode="&#x1ef3;" 
d="M156 651h104l52 -105h-84zM70 81v417h104v-365q0 -39 37 -39h105q40 0 40 42v362h103v-627q0 -45 -29 -73t-79 -28h-259l-5 96h229q40 0 40 44v114l-23 -24h-187q-34 0 -55 21.5t-21 59.5z" />
    <glyph glyph-name="endash" unicode="&#x2013;" horiz-adv-x="468" 
d="M448 199h-428v83h428v-83z" />
    <glyph glyph-name="emdash" unicode="&#x2014;" horiz-adv-x="738" 
d="M718 199h-698v83h698v-83z" />
    <glyph glyph-name="quoteleft" unicode="&#x2018;" horiz-adv-x="208" 
d="M153 482h-103v110l28 107h85l-29 -108h19v-109z" />
    <glyph glyph-name="quoteright" unicode="&#x2019;" horiz-adv-x="208" 
d="M130 482h-85l29 108h-19v109h103v-110z" />
    <glyph glyph-name="quotesinglbase" unicode="&#x201a;" horiz-adv-x="217" 
d="M82 0h-19v113h104v-114l-28 -112h-86z" />
    <glyph glyph-name="quotedblleft" unicode="&#x201c;" horiz-adv-x="356" 
d="M153 482h-103v110l28 107h85l-29 -108h19v-109zM296 482h-104v110l28 107h86l-29 -108h19v-109z" />
    <glyph glyph-name="quotedblright" unicode="&#x201d;" horiz-adv-x="356" 
d="M278 482h-86l29 108h-19v109h104v-110zM135 482h-85l29 108h-19v109h103v-110z" />
    <glyph glyph-name="quotedblbase" unicode="&#x201e;" horiz-adv-x="364" 
d="M82 0h-19v113h104v-114l-28 -112h-86zM229 0h-19v113h104v-114l-28 -112h-86z" />
    <glyph glyph-name="dagger" unicode="&#x2020;" horiz-adv-x="432" 
d="M266 -230h-95v682h-121v92h121v155h95v-155h116v-92h-116v-682z" />
    <glyph glyph-name="daggerdbl" unicode="&#x2021;" horiz-adv-x="432" 
d="M50 -74v92h121v434h-121v92h121v155h95v-155h116v-92h-116v-434h116v-92h-116v-156h-95v156h-121z" />
    <glyph glyph-name="bullet" unicode="&#x2022;" horiz-adv-x="271" 
d="M169 280h-68q-41 0 -41 40v71q0 17 11 28.5t30 11.5h68q20 0 31 -11t11 -29v-71q0 -18 -11 -29t-31 -11z" />
    <glyph glyph-name="ellipsis" unicode="&#x2026;" horiz-adv-x="729" 
d="M157 0h-104v113h104v-113zM413 0h-103v113h103v-113zM675 0h-103v113h103v-113z" />
    <glyph glyph-name="perthousand" unicode="&#x2030;" horiz-adv-x="1151" 
d="M337 0h-90l235 699h89zM167 442h58q26 0 26 28v124q0 27 -26 27h-58q-26 0 -26 -27v-124q0 -28 26 -28zM563 229v-124q0 -28 26 -28h58q26 0 26 28v124q0 27 -26 27h-58q-26 0 -26 -27zM267 365h-143q-30 0 -47 17.5t-17 45.5v208q0 28 17 45.5t47 17.5h143q31 0 48 -17
t17 -46v-208q0 -29 -17 -46t-48 -17zM482 63v207q0 28 17 45.5t47 17.5h143q31 0 48 -17t17 -46v-207q0 -29 -17 -46t-48 -17h-143q-30 0 -47 17.5t-17 45.5zM818 63v207q0 28 17 45.5t47 17.5h144q31 0 48 -17t17 -46v-207q0 -29 -17 -46t-48 -17h-144q-30 0 -47 17.5
t-17 45.5zM899 229v-124q0 -28 26 -28h59q26 0 26 28v124q0 27 -26 27h-59q-26 0 -26 -27z" />
    <glyph glyph-name="guilsinglleft" unicode="&#x2039;" horiz-adv-x="339" 
d="M289 -3l-239 211v77l239 213v-120l-150 -130l150 -133v-118z" />
    <glyph glyph-name="guilsinglright" unicode="&#x203a;" horiz-adv-x="339" 
d="M50 498l239 -213v-77l-239 -211v118l149 133l-149 130v120z" />
    <glyph glyph-name="fraction" unicode="&#x2044;" horiz-adv-x="354" 
d="M90 0h-90l235 699h89z" />
    <glyph glyph-name="Euro" unicode="&#x20ac;" horiz-adv-x="571" 
d="M101 123v95h-91l10 91h81v74h-72l10 91h62v102q0 55 29 88.5t91 33.5h285l6 -92h-263q-45 0 -45 -44v-88h274l-10 -91h-264v-74h255l-10 -91h-245v-80q0 -45 40 -45h277v-93h-300q-120 0 -120 123z" />
    <glyph glyph-name="litre" unicode="&#x2113;" horiz-adv-x="411" 
d="M94 101v81l-54 -51v107l54 50v234q0 184 142 184q66 0 100.5 -33.5t34.5 -96.5q0 -89 -45 -161q-41 -68 -133 -157v-123q0 -44 40 -44h120l-6 -91h-139q-114 0 -114 101zM193 522v-152q82 97 82 195q0 59 -38 59q-44 0 -44 -102z" />
    <glyph glyph-name="uni2117" unicode="&#x2117;" horiz-adv-x="773" 
d="M60 123v454q0 40 18 74q25 48 102 48h413q77 0 102 -48q18 -34 18 -74v-454q0 -60 -27 -91.5t-93 -31.5h-413q-66 0 -93 31.5t-27 91.5zM148 570v-440q0 -45 40 -45h397q40 0 40 45v440q0 44 -45 44h-387q-45 0 -45 -44zM347 164h-85v371h193q65 0 65 -66v-116
q0 -64 -65 -64h-108v-125zM346 460v-92h68q25 0 25 25v43q0 24 -25 24h-68z" />
    <glyph glyph-name="trademark" unicode="&#x2122;" horiz-adv-x="628" 
d="M180 423h-70v212h-70v64h211v-64h-71v-212zM366 423h-66v276h64l70 -131l67 131h67v-276h-67v145l-40 -75h-55l-40 69v-139z" />
    <glyph glyph-name="Omega" unicode="&#x2126;" horiz-adv-x="625" 
d="M259 0h-189v92h86v33q0 19 -13.5 36.5t-29.5 30.5t-29.5 34t-13.5 44v307q0 57 32.5 89.5t89.5 32.5h242q121 0 121 -122v-307q0 -23 -13.5 -44t-29.5 -34t-29.5 -30.5t-13.5 -36.5v-33h86v-92h-189v119q0 67 43 102t43 75v269q0 44 -42 44h-194q-43 0 -43 -45v-268
q0 -40 43 -75t43 -102v-119z" />
    <glyph glyph-name="estimated" unicode="&#x212e;" horiz-adv-x="754" 
d="M179 258v-85q0 -67 63 -110q64 -44 143 -44q151 0 231 113l42 -10q-52 -72 -118.5 -105.5t-161.5 -33.5q-145 0 -240 91q-95 92 -95 231q0 136 95 229q94 94 238 94q142 0 239 -84q97 -82 97 -218q0 -22 -5.5 -28t-26.5 -6h-468q-21 0 -27 -6t-6 -28zM211 327h336
q21 0 26.5 6t5.5 27v107q0 51 -58 88q-58 38 -143 38q-86 0 -144 -38q-57 -37 -57 -88v-108q0 -21 6 -26.5t28 -5.5z" />
    <glyph glyph-name="partialdiff" unicode="&#x2202;" horiz-adv-x="498" 
d="M60 101v296q0 45 27.5 73t76.5 28h174q0 47 -44 62l-205 67l38 88l208 -69q58 -20 80.5 -54t22.5 -94v-397q0 -45 -27.5 -73t-76.5 -28h-170q-49 0 -76.5 28t-27.5 73zM159 361v-225q0 -44 40 -44h99q40 0 40 44v269h-138q-41 0 -41 -44z" />
    <glyph glyph-name="increment" unicode="&#x2206;" horiz-adv-x="666" 
d="M636 0h-606l266 698h85zM338 543l-174 -455h337z" />
    <glyph glyph-name="product" unicode="&#x220f;" horiz-adv-x="625" 
d="M183 0h-103v699h465v-699h-104v606h-258v-606z" />
    <glyph glyph-name="summation" unicode="&#x2211;" horiz-adv-x="598" 
d="M70 -230v91l359 371l-359 370v96h458v-96h-317l317 -325v-86l-319 -325h319v-96h-458z" />
    <glyph glyph-name="minus" unicode="&#x2212;" horiz-adv-x="484" 
d="M434 313h-384v87h384v-87z" />
    <glyph glyph-name="radical" unicode="&#x221a;" horiz-adv-x="547" 
d="M345 0h-78l-135 417l-92 -25l-20 83l182 47l105 -337l116 512h95z" />
    <glyph glyph-name="infinity" unicode="&#x221e;" horiz-adv-x="603" 
d="M155 296h86q28 0 28 26l-16 72q-7 25 -28 25h-70q-28 0 -28 -28v-66q0 -29 28 -29zM337 394l17 -77q4 -21 33 -21h60q29 0 29 29v66q0 28 -29 28h-82q-27 0 -28 -25zM247 219h-119q-36 0 -57 20t-21 55v117q0 85 78 85h127q12 0 21 -3t14.5 -7t9 -8t5 -7t1.5 -4
q0 3 3.5 8.5t17 13t34.5 7.5h115q36 0 56.5 -19.5t20.5 -55.5v-116q0 -86 -77 -86h-123q-19 0 -32.5 7.5t-18 14.5t-4.5 9q-1 -3 -4 -8.5t-16 -14t-31 -8.5z" />
    <glyph glyph-name="integral" unicode="&#x222b;" horiz-adv-x="290" 
d="M93 -82v685q0 46 26 73.5t75 27.5h95l3 -93h-55q-40 0 -40 -44v-685q0 -46 -26 -73.5t-75 -27.5h-95l-3 93h55q40 0 40 44z" />
    <glyph glyph-name="approxequal" unicode="&#x2248;" horiz-adv-x="532" 
d="M346 388l-186 24l-21 -26h-89l71 111h68l186 -22l21 26h86l-70 -113h-66zM346 233l-186 24l-21 -26h-89l71 111h68l186 -22l21 26h86l-70 -113h-66z" />
    <glyph glyph-name="notequal" unicode="&#x2260;" horiz-adv-x="484" 
d="M179 137h-82l41 82h-88v87h133l51 101h-184v87h228l39 77h82l-39 -77h74v-87h-119l-50 -101h169v-87h-214z" />
    <glyph glyph-name="lessequal" unicode="&#x2264;" horiz-adv-x="466" 
d="M406 141l-346 157v107l346 158v-99l-243 -112l243 -105v-106zM403 0h-331v91h331v-91z" />
    <glyph glyph-name="greaterequal" unicode="&#x2265;" horiz-adv-x="466" 
d="M60 563l346 -158v-107l-346 -157v106l242 105l-242 112v99zM63 91h331v-91h-331v91z" />
    <glyph glyph-name="lozenge" unicode="&#x25ca;" horiz-adv-x="507" 
d="M298 0h-91l-170 349l170 349h91l171 -349zM137 349l118 -245l114 245l-114 244z" />
    <glyph glyph-name="NULL" horiz-adv-x="0" 
 />
    <glyph glyph-name="CR" horiz-adv-x="333" 
 />
    <glyph glyph-name="CR.001" horiz-adv-x="200" 
 />
    <glyph glyph-name="K.alt" horiz-adv-x="568" 
d="M184 0h-104v699h104v-338l227 338h119l-210 -310l218 -389h-120l-169 301l-65 -87v-214z" />
    <glyph glyph-name="R.alt" horiz-adv-x="594" 
d="M183 0h-103v699h317q120 0 120 -119v-180q0 -26 -10.5 -47t-23.5 -29l-11 -6q7 -2 14 -6q11 -4 24.5 -23t13.5 -43v-246h-106v224q0 19 -13.5 31.5t-36.5 12.5h-185v-268zM183 606v-245h182q20 0 32.5 13.5t12.5 33.5v152q0 46 -45 46h-182z" />
    <glyph glyph-name="zero.oldstyle" horiz-adv-x="585" 
d="M60 101v296q0 45 27.5 73t76.5 28h257q49 0 76.5 -28t27.5 -73v-296q0 -45 -27.5 -73t-76.5 -28h-257q-49 0 -76.5 28t-27.5 73zM163 358v-219q0 -44 40 -44h179q40 0 40 44v219q0 44 -40 44h-179q-40 0 -40 -44z" />
    <glyph glyph-name="one.oldstyle" horiz-adv-x="417" 
d="M397 0h-367v92h133v306l-126 -11v89l230 20v-404h130v-92z" />
    <glyph glyph-name="two.oldstyle" horiz-adv-x="516" 
d="M203 94h273l-6 -94h-430v88l282 204q27 22 27 53v21q0 15 -10 24.5t-28 9.5h-256l6 96h295q40 0 68 -26t28 -69v-42q0 -89 -77 -145z" />
    <glyph glyph-name="three.oldstyle" horiz-adv-x="502" 
d="M323 -203h-273v94h245q44 0 44 44v117q0 42 -39 45h-220v95h220q39 3 39 45v120q0 44 -44 44h-245l5 94h268q77 0 101 -38q18 -29 18 -66v-163q0 -38 -17 -59t-34 -27l-6 -1q2 -1 6 -2t14 -7.5t17.5 -15t13.5 -24t6 -34.5v-138q0 -123 -119 -123z" />
    <glyph glyph-name="four.oldstyle" horiz-adv-x="543" 
d="M319 -32h-279v86l279 442h106v-431h98v-97h-98v-170h-106v170zM318 342l-172 -278h172v278z" />
    <glyph glyph-name="five.oldstyle" horiz-adv-x="546" 
d="M345 105h-285l20 393h390l5 -96h-303l-12 -225l31 24h190q48 0 76.5 -27t28.5 -74v-214q0 -39 -23.5 -62t-60.5 -23h-340v96h283q37 0 37 40v134q0 34 -37 34z" />
    <glyph glyph-name="six.oldstyle" horiz-adv-x="574" 
d="M369 311h-206v-177q0 -39 40 -39h169q37 0 37 39v133q0 44 -40 44zM60 98v500q0 45 27.5 73t76.5 28h330l5 -96h-296q-40 0 -40 -44v-173l28 20h223q49 0 74.5 -27.5t25.5 -72.5v-205q0 -45 -29 -73t-77 -28h-247q-42 0 -71.5 29.5t-29.5 68.5z" />
    <glyph glyph-name="seven.oldstyle" horiz-adv-x="541" 
d="M229 -200h-114l279 602h-354l5 96h456v-93z" />
    <glyph glyph-name="eight.oldstyle" horiz-adv-x="585" 
d="M60 102v163q0 62 46 83q-3 0 -13 7t-21.5 26t-11.5 44v173q0 50 27.5 75t76.5 25h257q51 0 77.5 -26.5t26.5 -71.5v-154q0 -26 -11.5 -45t-21.5 -25.5t-14 -6.5q4 -1 14 -7q11 -7 22 -28.5t11 -47.5v-183q0 -46 -26 -74.5t-78 -28.5h-257q-50 0 -77 27.5t-27 74.5z
M203 409l179 -17q40 3 40 45v123q0 44 -42 44h-175q-42 0 -42 -44v-106q0 -41 40 -45zM163 259v-121q0 -44 45 -44h169q45 0 45 44v102q0 42 -38 47l-181 17q-40 -1 -40 -45z" />
    <glyph glyph-name="nine.oldstyle" horiz-adv-x="585" 
d="M200 166h222v195q0 41 -40 41h-179q-40 0 -40 -41v-156q0 -39 37 -39zM422 -201h-342l-5 96h307q40 0 40 45v152l-24 -21h-237q-49 0 -75 26.5t-26 75.5v225q0 46 27.5 73t75.5 27h259q48 0 75.5 -29t27.5 -74v-493q0 -46 -27 -74.5t-76 -28.5z" />
    <glyph glyph-name="zero.taboldstyle" horiz-adv-x="585" 
d="M60 101v296q0 45 27.5 73t76.5 28h257q49 0 76.5 -28t27.5 -73v-296q0 -45 -27.5 -73t-76.5 -28h-257q-49 0 -76.5 28t-27.5 73zM163 358v-219q0 -44 40 -44h179q40 0 40 44v219q0 44 -40 44h-179q-40 0 -40 -44z" />
    <glyph glyph-name="one.taboldstyle" horiz-adv-x="585" 
d="M487 0h-367v92h133v306l-126 -11v89l230 20v-404h130v-92z" />
    <glyph glyph-name="two.taboldstyle" horiz-adv-x="585" 
d="M243 94h273l-6 -94h-430v88l282 204q27 22 27 53v21q0 15 -10 24.5t-28 9.5h-256l6 96h295q40 0 68 -26t28 -69v-42q0 -89 -77 -145z" />
    <glyph glyph-name="three.taboldstyle" horiz-adv-x="585" 
d="M373 -203h-273v94h245q44 0 44 44v117q0 42 -39 45h-220v95h220q39 3 39 45v120q0 44 -44 44h-245l5 94h268q77 0 101 -38q18 -29 18 -66v-163q0 -38 -17 -59t-34 -27l-6 -1q2 -1 6 -2t14 -7.5t17.5 -15t13.5 -24t6 -34.5v-138q0 -123 -119 -123z" />
    <glyph glyph-name="four.taboldstyle" horiz-adv-x="585" 
d="M346 -32h-280v86l280 442h106v-431h86v-97h-86v-170h-106v170zM345 342l-173 -278h173v278z" />
    <glyph glyph-name="five.taboldstyle" horiz-adv-x="585" 
d="M365 105h-285l20 393h390l5 -96h-303l-12 -225l31 24h190q48 0 76.5 -27t28.5 -74v-214q0 -39 -23.5 -62t-60.5 -23h-340v96h283q37 0 37 40v134q0 34 -37 34z" />
    <glyph glyph-name="six.taboldstyle" horiz-adv-x="585" 
d="M369 311h-206v-177q0 -39 40 -39h169q37 0 37 39v133q0 44 -40 44zM60 98v500q0 45 27.5 73t76.5 28h330l5 -96h-296q-40 0 -40 -44v-173l28 20h223q49 0 74.5 -27.5t25.5 -72.5v-205q0 -45 -29 -73t-77 -28h-247q-42 0 -71.5 29.5t-29.5 68.5z" />
    <glyph glyph-name="seven.taboldstyle" horiz-adv-x="585" 
d="M252 -200h-114l279 602h-354l5 96h456v-93z" />
    <glyph glyph-name="eight.taboldstyle" horiz-adv-x="585" 
d="M60 102v163q0 62 46 83q-3 0 -13 7t-21.5 26t-11.5 44v173q0 50 27.5 75t76.5 25h257q51 0 77.5 -26.5t26.5 -71.5v-154q0 -26 -11.5 -45t-21.5 -25.5t-14 -6.5q4 -1 14 -7q11 -7 22 -28.5t11 -47.5v-183q0 -46 -26 -74.5t-78 -28.5h-257q-50 0 -77 27.5t-27 74.5z
M203 409l179 -17q40 3 40 45v123q0 44 -42 44h-175q-42 0 -42 -44v-106q0 -41 40 -45zM163 259v-121q0 -44 45 -44h169q45 0 45 44v102q0 42 -38 47l-181 17q-40 -1 -40 -45z" />
    <glyph glyph-name="nine.taboldstyle" horiz-adv-x="585" 
d="M200 166h222v195q0 41 -40 41h-179q-40 0 -40 -41v-156q0 -39 37 -39zM422 -201h-342l-5 96h307q40 0 40 45v152l-24 -21h-237q-49 0 -75 26.5t-26 75.5v225q0 46 27.5 73t75.5 27h259q48 0 75.5 -29t27.5 -74v-493q0 -46 -27 -74.5t-76 -28.5z" />
    <glyph glyph-name="zero.superior" horiz-adv-x="401" 
d="M286 302h-172q-30 0 -47 17.5t-17 45.5v270q0 28 17 45.5t47 17.5h172q31 0 48 -17t17 -46v-270q0 -29 -18.5 -46t-46.5 -17zM157 379h87q26 0 26 28v186q0 27 -26 27h-87q-26 0 -26 -27v-186q0 -28 26 -28z" />
    <glyph glyph-name="one.superior" horiz-adv-x="311" 
d="M281 303h-231v66h75v256l-69 -6v67l150 13v-330h75v-66z" />
    <glyph glyph-name="two.superior" horiz-adv-x="386" 
d="M158 376h178l-4 -73h-282v72l184 181q14 14 14 37v8q0 24 -27 24h-160l4 74h204q27 0 42.5 -15t15.5 -40v-46q0 -50 -34 -91z" />
    <glyph glyph-name="three.superior" horiz-adv-x="345" 
d="M219 303h-169v73h140q29 0 29 29v30q0 26 -26 28h-124v73h124q26 2 26 28v32q0 29 -29 29h-140l3 74h166q76 0 76 -68v-78q-1 -43 -23 -53l-6 -2q3 -1 8 -3.5t13 -16t8 -32.5v-66q0 -36 -20 -56.5t-56 -20.5z" />
    <glyph glyph-name="four.superior" horiz-adv-x="375" 
d="M294 303h-76v86h-178v66l175 244h79v-242h61v-68h-61v-86zM218 593l-103 -137h103v137z" />
    <glyph glyph-name="five.superior" horiz-adv-x="365" 
d="M266 293h-216v73h167q24 0 24 25v49q0 21 -24 21h-166l14 238h241l3 -74h-177l-5 -90h139q49 0 49 -52v-140q0 -50 -49 -50z" />
    <glyph glyph-name="six.superior" horiz-adv-x="390" 
d="M152 372h88q23 0 23 24v53q0 22 -23 22h-113v-77q0 -22 25 -22zM274 299h-159q-30 0 -47.5 16.5t-17.5 46.5v272q0 30 17 47.5t49 17.5h210l4 -74h-178q-25 0 -25 -27v-54h165q48 0 48 -50v-132q0 -27 -18.5 -45t-47.5 -18z" />
    <glyph glyph-name="seven.superior" horiz-adv-x="395" 
d="M175 303h-91l180 322h-214l4 74h291v-70z" />
    <glyph glyph-name="eight.superior" horiz-adv-x="394" 
d="M279 299h-164q-65 0 -65 65v63q0 17 7.5 30.5t16.5 16.5l7 4q-3 0 -9 3.5t-14 17t-8 34.5v104q0 26 16.5 44t48.5 18h164q65 0 65 -67v-70q0 -21 -7.5 -34.5t-13 -17t-8.5 -3.5q1 0 4 -1.5t7 -5t8 -9t7 -14.5t3 -21v-92q0 -65 -65 -65zM153 543l88 -10q25 1 25 28v35
q0 29 -28 29h-84q-27 0 -27 -29v-25q0 -26 26 -28zM156 372h82q28 0 28 28v24q0 27 -25 28l-88 11q-26 0 -26 -28v-35q0 -28 29 -28z" />
    <glyph glyph-name="nine.superior" horiz-adv-x="390" 
d="M238 626h-88q-23 0 -23 -24v-63q0 -22 23 -22h113v87q0 22 -25 22zM116 699h159q30 0 47.5 -16.5t17.5 -46.5v-272q0 -30 -17 -47.5t-49 -17.5h-210l-4 74h178q25 0 25 27v44h-165q-48 0 -48 50v142q0 27 18.5 45t47.5 18z" />
    <glyph glyph-name="zero.inferior" horiz-adv-x="401" 
d="M286 0h-172q-30 0 -47 17.5t-17 45.5v270q0 28 17 45.5t47 17.5h172q31 0 48 -17t17 -46v-270q0 -29 -18.5 -46t-46.5 -17zM157 77h87q26 0 26 28v186q0 27 -26 27h-87q-26 0 -26 -27v-186q0 -28 26 -28z" />
    <glyph glyph-name="one.inferior" horiz-adv-x="311" 
d="M281 0h-231v66h75v256l-69 -6v67l150 13v-330h75v-66z" />
    <glyph glyph-name="two.inferior" horiz-adv-x="386" 
d="M158 73h178l-4 -73h-282v72l184 181q14 14 14 37v8q0 24 -27 24h-160l4 74h204q27 0 42.5 -15t15.5 -40v-46q0 -50 -34 -91z" />
    <glyph glyph-name="three.inferior" horiz-adv-x="345" 
d="M219 0h-169v73h140q29 0 29 29v30q0 26 -26 28h-124v73h124q26 2 26 28v32q0 29 -29 29h-140l3 74h166q76 0 76 -68v-78q-1 -21 -8 -35t-15 -17l-6 -3q3 -1 8 -3.5t13 -16t8 -32.5v-66q0 -36 -20 -56.5t-56 -20.5z" />
    <glyph glyph-name="four.inferior" horiz-adv-x="375" 
d="M294 0h-76v86h-178v66l175 244h79v-242h61v-68h-61v-86zM218 290l-103 -137h103v137z" />
    <glyph glyph-name="five.inferior" horiz-adv-x="365" 
d="M266 1h-216v73h167q24 0 24 25v49q0 21 -24 21h-166l14 238h241l3 -74h-177l-5 -90h139q49 0 49 -52v-140q0 -50 -49 -50z" />
    <glyph glyph-name="six.inferior" horiz-adv-x="390" 
d="M152 73h88q23 0 23 24v53q0 22 -23 22h-113v-77q0 -22 25 -22zM274 0h-159q-30 0 -47.5 16.5t-17.5 46.5v272q0 30 17 47.5t49 17.5h210l4 -74h-178q-25 0 -25 -27v-54h165q48 0 48 -50v-132q0 -27 -18.5 -45t-47.5 -18z" />
    <glyph glyph-name="seven.inferior" horiz-adv-x="395" 
d="M175 0h-91l180 322h-214l4 74h291v-70z" />
    <glyph glyph-name="eight.inferior" horiz-adv-x="394" 
d="M279 0h-164q-65 0 -65 65v63q0 17 7.5 30.5t16.5 17.5l7 3q-3 0 -9 3.5t-14 17t-8 34.5v104q0 26 16.5 44t48.5 18h164q65 0 65 -67v-70q0 -21 -7.5 -34.5t-13 -17t-8.5 -3.5q1 0 4 -1.5t7 -5t8 -9t7 -14.5t3 -21v-92q0 -65 -65 -65zM153 244l88 -10q25 1 25 28v35
q0 29 -28 29h-84q-27 0 -27 -29v-25q0 -26 26 -28zM156 73h82q28 0 28 28v24q0 27 -25 28l-88 11q-26 0 -26 -28v-35q0 -28 29 -28z" />
    <glyph glyph-name="nine.inferior" horiz-adv-x="390" 
d="M238 327h-88q-23 0 -23 -24v-63q0 -22 23 -22h113v87q0 22 -25 22zM116 400h159q30 0 47.5 -16.5t17.5 -46.5v-272q0 -30 -17 -47.5t-49 -17.5h-210l-4 74h178q25 0 25 27v44h-165q-48 0 -48 50v142q0 27 18.5 45t47.5 18z" />
    <glyph glyph-name="zero.tab" horiz-adv-x="574" 
d="M63 101v496q0 45 27.5 73t76.5 28h239q49 0 76.5 -28t27.5 -73v-496q0 -45 -27.5 -73t-76.5 -28h-239q-49 0 -76.5 28t-27.5 73zM167 558v-419q0 -44 40 -44h160q40 0 40 44v419q0 44 -40 44h-160q-40 0 -40 -44z" />
    <glyph glyph-name="one.tab" horiz-adv-x="488" 
d="M411 0h-315v92h108v509l-101 -11v89l204 20v-607h104v-92z" />
    <glyph glyph-name="two.tab" horiz-adv-x="528" 
d="M171 96h321l-6 -96h-435v92l294 380q24 33 24 59v37q0 15 -10.5 24.5t-27.5 9.5h-270l6 96h302q45 0 74 -26t29 -77v-58q0 -36 -19 -70l-12 -20l-28 -42z" />
    <glyph glyph-name="three.tab" 
d="M342 0h-263v94h235q44 0 44 44v118q0 42 -39 45h-210v95h210q39 3 39 45v119q0 44 -44 44h-235l5 94h258q77 0 101 -38q18 -29 18 -66v-162q0 -31 -13.5 -53.5t-29.5 -28.5l-14 -5q2 -1 6 -2t14 -7.5t17.5 -15t13.5 -24t6 -34.5v-139q0 -123 -119 -123z" />
    <glyph glyph-name="four.tab" horiz-adv-x="565" 
d="M346 171h-299v86l299 441h106v-430h98v-97h-98v-171h-106v171zM345 544l-183 -277h183v277z" />
    <glyph glyph-name="five.tab" horiz-adv-x="541" 
d="M375 0h-310v96h266q23 0 32 9.5t9 33.5v129q0 34 -37 34h-275l20 396h384l5 -96h-297l-10 -204h219q45 0 70 -24.5t25 -66.5v-214q0 -44 -27.5 -68.5t-73.5 -24.5z" />
    <glyph glyph-name="six.tab" horiz-adv-x="553" 
d="M350 311h-187v-180q0 -36 40 -36h145q41 0 41 39v139q0 38 -39 38zM60 99v498q0 45 27.5 73t76.5 28h310l5 -96h-273q-43 0 -43 -44v-152h230q48 0 74.5 -27t26.5 -74v-204q0 -47 -29.5 -74t-72.5 -27h-231q-45 0 -73 28t-28 71z" />
    <glyph glyph-name="seven.tab" horiz-adv-x="566" 
d="M245 0h-114l255 602h-335l5 96h437v-93z" />
    <glyph glyph-name="eight.tab" horiz-adv-x="553" 
d="M60 122v143q0 62 46 83q-3 0 -13 7t-21.5 26t-11.5 44v150q0 123 120 123h192q120 0 120 -116v-156q0 -26 -11.5 -45t-21.5 -25.5t-14 -6.5q4 -1 14 -7q11 -7 22 -28.5t11 -47.5v-143q0 -63 -28 -93t-92 -30h-188q-60 0 -92 31.5t-32 90.5zM203 404l144 -7q40 3 40 45
v118q0 45 -45 45h-134q-45 0 -45 -45v-111q0 -41 40 -45zM163 254v-117q0 -44 45 -44h134q45 0 45 44v108q0 42 -38 47l-146 7q-40 -1 -40 -45z" />
    <glyph glyph-name="nine.tab" horiz-adv-x="553" 
d="M204 367h187v200q0 36 -40 36h-145q-41 0 -41 -39v-159q0 -38 39 -38zM494 599v-498q0 -45 -27.5 -73t-76.5 -28h-310l-5 96h273q43 0 43 44v132h-230q-48 0 -74.5 27t-26.5 74v224q0 47 29.5 74t72.5 27h231q45 0 73 -28t28 -71z" />
    <glyph glyph-name="bracketleft.cap" horiz-adv-x="323" 
d="M169 772v-846h114v-93h-213v1032h213v-93h-114z" />
    <glyph glyph-name="bracketright.cap" horiz-adv-x="323" 
d="M253 865v-1032h-213v93h114v846h-114v93h213z" />
    <glyph glyph-name="periodcentered.cap" horiz-adv-x="211" 
d="M156 306h-102v107h102v-107z" />
    <glyph glyph-name="questiondown.cap" horiz-adv-x="490" 
d="M224 528h94v-113q0 -49 -38 -76l-81 -56q-22 -14 -31 -29.5t-9 -46.5v-71q0 -44 45 -44h229l-5 -92h-248q-64 0 -92 28t-28 84v138q0 62 50 94l71 47q43 30 43 77v60zM217 698h106v-104h-106v104z" />
    <glyph glyph-name="exclamdown.cap" horiz-adv-x="233" 
d="M66 698h106v-105h-106v105zM78 531h83l12 -531h-107z" />
    <glyph glyph-name="one.small" horiz-adv-x="388" 
d="M368 0h-328v92h113v362l-106 -11v92l212 20v-463h109v-92z" />
    <glyph glyph-name="two.small" horiz-adv-x="464" 
d="M183 95h241l-6 -95h-378v88l248 273q17 22 17 43v24q0 32 -33 32h-224l6 96h254q103 0 103 -103v-46q0 -37 -13 -65t-44 -66z" />
    <glyph glyph-name="zero.small" 
d="M60 102v352q0 48 26.5 75t76.5 27h204q50 0 76 -27t26 -75v-352q0 -49 -26 -75.5t-76 -26.5h-204q-50 0 -76.5 27t-26.5 75zM166 425v-295q0 -35 33 -35h132q34 0 34 35v295q0 35 -33 35h-134q-32 0 -32 -35z" />
    <glyph glyph-name="three.small" horiz-adv-x="463" 
d="M274 0h-224v95h213q35 0 35 35v65q0 35 -36 35h-169v93h173q32 0 32 36v67q0 34 -35 34h-213v96h224q72 0 100.5 -29t28.5 -94v-80q0 -51 -29 -77q29 -18 29 -72v-74q0 -57 -21 -90q-24 -40 -108 -40z" />
    <glyph glyph-name="four.small" horiz-adv-x="485" 
d="M276 129h-246v75l246 352h106v-335h83v-92h-83v-129h-106v129zM275 412l-136 -192h136v192z" />
    <glyph glyph-name="five.small" horiz-adv-x="485" 
d="M330 0h-266v95h217q21 0 30 8.5t9 30.5v72q0 27 -28 27h-232l18 323h328l4 -96h-239l-7 -135h183q36 0 57 -23t21 -59v-151q0 -40 -25.5 -66t-69.5 -26z" />
    <glyph glyph-name="six.small" horiz-adv-x="513" 
d="M60 99v357q0 44 28 72t75 28h265l4 -96h-227q-39 0 -39 -35v-97h198q41 0 65 -22.5t24 -62.5v-148q0 -42 -29 -68.5t-74 -26.5h-185q-49 0 -77 27.5t-28 71.5zM322 234h-156v-107q0 -32 32 -32h119q33 0 33 36v76q0 27 -28 27z" />
    <glyph glyph-name="seven.small" horiz-adv-x="470" 
d="M225 0h-117l218 460h-286l4 96h386v-92z" />
    <glyph glyph-name="eight.small" horiz-adv-x="520" 
d="M60 98v121q0 49 38 66q-3 0 -11.5 5.5t-17.5 20.5t-9 35v109q0 45 27.5 73t74.5 28h195q47 0 75 -26t28 -68v-136q0 -20 -9 -35t-17 -20.5t-11 -5.5q37 -15 37 -66v-100q0 -44 -27 -71.5t-77 -27.5h-195q-47 0 -74 26.5t-27 71.5zM194 335l131 -21q29 2 29 31v84
q0 31 -32 31h-125q-31 0 -31 -31v-59q0 -31 28 -35zM166 207v-81q0 -31 30 -31h128q30 0 30 31v56q0 28 -28 34l-132 22q-28 0 -28 -31z" />
    <glyph glyph-name="nine.small" horiz-adv-x="513" 
d="M350 0h-265l-4 95h227q39 0 39 35v80h-198q-41 0 -65 22.5t-24 62.5v166q0 42 29 68.5t74 26.5h185q49 0 77 -27.5t28 -71.5v-357q0 -44 -28 -72t-75 -28zM191 303h156v126q0 31 -32 31h-119q-33 0 -33 -35v-95q0 -27 28 -27z" />
    <glyph glyph-name="hyphen.cap" horiz-adv-x="320" 
d="M294 311h-268v91h268v-91z" />
    <glyph glyph-name="parenleft.cap" horiz-adv-x="307" 
d="M270 -162h-93q-107 200 -107 510t107 510h93q-104 -213 -104 -510t104 -510z" />
    <glyph glyph-name="parenright.cap" horiz-adv-x="307" 
d="M130 -162h-94q104 213 104 510t-104 510h94q107 -200 107 -510t-107 -510z" />
    <glyph glyph-name="endash.cap" horiz-adv-x="468" 
d="M448 309h-428v83h428v-83z" />
    <glyph glyph-name="emdash.cap" horiz-adv-x="738" 
d="M718 309h-698v83h698v-83z" />
    <glyph glyph-name="guilsinglleft.cap" horiz-adv-x="339" 
d="M289 214v-118l-239 211v78l239 212v-120l-150 -130z" />
    <glyph glyph-name="guilsinglright.cap" horiz-adv-x="339" 
d="M50 597l239 -212v-78l-239 -211v118l149 133l-149 130v120z" />
    <glyph glyph-name="guillemotleft.cap" horiz-adv-x="523" 
d="M274 226v-122l-224 209v81l224 211v-124l-134 -126zM473 104l-224 209v81l224 211v-124l-134 -126l134 -129v-122z" />
    <glyph glyph-name="guillemotright.cap" horiz-adv-x="523" 
d="M50 605l224 -211v-81l-224 -209v122l134 129l-134 126v124zM249 605l224 -211v-81l-224 -209v122l134 129l-134 126v124z" />
    <glyph glyph-name="braceleft.cap" horiz-adv-x="377" 
d="M124 -50v306q0 45 -40 45h-44v93h44q40 0 40 45v316q0 60 27 91.5t93 31.5h93v-93h-73q-40 0 -40 -45v-308q0 -58 -32 -84q32 -27 32 -84v-299q0 -45 40 -45h73v-93h-93q-66 0 -93 31.5t-27 91.5z" />
    <glyph glyph-name="braceright.cap" horiz-adv-x="377" 
d="M133 -173h-93v93h74q40 0 40 45v299q0 57 32 84q-32 26 -32 84v308q0 45 -40 45h-74v93h78q76 0 105.5 -30t29.5 -93v-316q0 -45 40 -45h44v-93h-44q-40 0 -40 -45v-306q0 -60 -27 -91.5t-93 -31.5z" />
    <glyph glyph-name="f_h" horiz-adv-x="852" 
d="M203 0h-103v404h-90v94h90v100q0 101 117 101h175l99 7v-234l25 26h191q34 0 54.5 -21.5t20.5 -59.5v-417h-103v363q0 39 -37 39h-110q-40 0 -40 -43v-359h-103v606h-145q-40 0 -40 -44v-64h108v-94h-109v-404z" />
    <glyph glyph-name="i.TRK" horiz-adv-x="242" 
d="M169 0h-99v498h99v-498zM172 557h-102v104h102v-104z" />
    <glyph glyph-name="dieresis.cap" horiz-adv-x="320" 
d="M279 756h-91v91h91v-91zM130 756h-91v91h91v-91z" />
    <glyph glyph-name="circumflex.cap" horiz-adv-x="343" 
d="M138 744h-94l77 115h103l79 -115h-100l-32 49z" />
    <glyph glyph-name="tilde.cap" horiz-adv-x="390" 
d="M218 746l-83 29l-21 -30h-76l72 113h57l90 -28l22 28h74l-70 -112h-65z" />
    <glyph glyph-name="acute.cap" horiz-adv-x="241" 
d="M126 744h-84l42 115h104z" />
    <glyph glyph-name="grave.cap" horiz-adv-x="243" 
d="M42 859h104l42 -115h-84z" />
    <glyph glyph-name="macron.cap" horiz-adv-x="329" 
d="M279 760h-229v84h229v-84z" />
    <glyph glyph-name="dotaccent.cap" horiz-adv-x="171" 
d="M129 747h-87v89h87v-89z" />
    <glyph glyph-name="ring.cap" horiz-adv-x="253" 
d="M133 724h-13q-35 0 -54 19.5t-19 51.5v23q0 33 19 52t54 19h13q35 0 54.5 -19t19.5 -52v-23q0 -32 -19.5 -51.5t-54.5 -19.5zM119 772h15q25 0 25 29v12q0 29 -25 29h-15q-25 0 -25 -29v-12q0 -29 25 -29z" />
    <glyph glyph-name="Omega.math" horiz-adv-x="625" 
d="M259 0h-189v92h86v33q0 19 -13.5 36.5t-29.5 30.5t-29.5 34t-13.5 44v307q0 57 32.5 89.5t89.5 32.5h242q121 0 121 -122v-307q0 -23 -13.5 -44t-29.5 -34t-29.5 -30.5t-13.5 -36.5v-33h86v-92h-189v119q0 67 43 102t43 75v269q0 44 -42 44h-194q-43 0 -43 -45v-268
q0 -40 43 -75t43 -102v-119z" />
    <glyph glyph-name="f_b" horiz-adv-x="851" 
d="M203 0h-103v404h-90v94h90v100q0 101 117 101h175l102 7v-236l25 28h187q39 0 62 -24.5t23 -64.5v-315q0 -45 -22 -69.5t-64 -24.5h-190l-22 23l-25 -23h-79v606h-145q-40 0 -40 -44v-64h108v-94h-109v-404zM493 367v-233q0 -42 40 -42h117q42 0 42 40v232q0 41 -38 41
h-117q-44 0 -44 -38z" />
    <glyph glyph-name="f_f_b" horiz-adv-x="1140" 
d="M203 0h-103v404h-90v94h90v81q0 46 25.5 73.5t74.5 27.5h103l6 -93h-65q-40 0 -40 -44v-45h185v100q0 101 117 101h173l104 7v-236l25 28h187q39 0 62 -24.5t23 -64.5v-315q0 -45 -22 -69.5t-64 -24.5h-190l-22 23l-25 -23h-78v606h-146q-40 0 -40 -44v-64h108v-94h-108
v-404h-104v404h-186v-404zM782 361v-231q0 -38 40 -38h117q42 0 42 40v233q0 40 -38 40h-121q-40 0 -40 -44z" />
    <glyph glyph-name="M.alt" horiz-adv-x="658" 
d="M183 0h-103v699h98l153 -486l143 486h104v-699h-104v353l-99 -353h-91l-101 347v-347z" />
    <glyph glyph-name="e.alt" horiz-adv-x="487" 
d="M60 98v301q0 45 26.5 72t73.5 27h192q50 0 77.5 -28t27.5 -74v-201h-298v-60q0 -43 41 -43h241l-6 -92h-274q-48 0 -74.5 26t-26.5 72zM159 366v-80h199v78q0 41 -39 41h-120q-40 0 -40 -39z" />
    <glyph glyph-name="asterisk.small" horiz-adv-x="344" 
d="M116 284l-57 43l54 68l-73 33l30 67l65 -30v81h72v-82l66 31l31 -67l-73 -33l52 -68l-55 -42l-56 69z" />
    <glyph glyph-name="at.small" horiz-adv-x="1006" 
d="M65 -27v653q0 55 31.5 88.5t88.5 33.5h636q64 0 92 -30t28 -92v-453q0 -60 -27 -91.5t-93 -31.5h-176q-40 0 -58 33l-28 -33h-198q-31 0 -49.5 18t-18.5 50q0 10 1 13l35 336q4 38 27 59.5t57 21.5h175l21 -28l20 28h83l-40 -374q1 -37 35 -41h94q40 0 40 45v437
q0 44 -45 44h-586q-45 0 -45 -44v-631q0 -45 40 -45h441l-11 -89h-450q-66 0 -93 31.5t-27 91.5zM399 182v-6q0 -33 33 -33h94q40 0 44 36l27 247q0 30 -36 30h-96q-37 0 -40 -34z" />
    <glyph glyph-name="at.cap" horiz-adv-x="1006" 
d="M65 28v653q0 55 31.5 88.5t88.5 33.5h636q64 0 92 -30t28 -92v-453q0 -60 -27 -91.5t-93 -31.5h-176q-40 0 -58 33l-28 -33h-198q-31 0 -49.5 18t-18.5 50q0 10 1 13l35 336q4 38 27 59.5t57 21.5h175l21 -28l20 28h83l-40 -374q1 -37 35 -41h94q40 0 40 45v437
q0 44 -45 44h-586q-45 0 -45 -44v-631q0 -45 40 -45h441l-11 -89h-450q-66 0 -93 31.5t-27 91.5zM399 237v-6q0 -33 33 -33h94q40 0 44 36l27 247q0 30 -36 30h-96q-37 0 -40 -34z" />
    <glyph glyph-name="ordfeminine.small" horiz-adv-x="381" 
d="M248 248h-121q-32 0 -49.5 18.5t-17.5 51.5v41q0 70 73 74l119 7v32q0 22 -22 22h-154l3 69h172q33 0 51.5 -18.5t18.5 -49.5v-247h-50l-11 14zM152 313h81q19 0 19 22v42l-101 -5q-22 -1 -22 -24v-15q0 -20 23 -20zM315 107h-245v77h245v-77z" />
    <glyph glyph-name="percent.small" horiz-adv-x="851" 
d="M600 229v-124q0 -28 26 -28h58q26 0 26 28v124q0 27 -26 27h-58q-26 0 -26 -27zM377 0h-90l184 556h89zM519 63v207q0 28 17 45.5t47 17.5h143q31 0 48 -17t17 -46v-207q0 -29 -17 -46t-48 -17h-143q-30 0 -47 17.5t-17 45.5zM267 222h-143q-30 0 -47 17.5t-17 45.5v208
q0 28 17 45.5t47 17.5h143q31 0 48 -17t17 -46v-208q0 -29 -17 -46t-48 -17zM167 299h58q26 0 26 28v124q0 27 -26 27h-58q-26 0 -26 -27v-124q0 -28 26 -28z" />
    <glyph glyph-name="perthousand.small" horiz-adv-x="1187" 
d="M600 229v-124q0 -28 26 -28h58q26 0 26 28v124q0 27 -26 27h-58q-26 0 -26 -27zM377 0h-90l184 556h89zM519 63v207q0 28 17 45.5t47 17.5h143q31 0 48 -17t17 -46v-207q0 -29 -17 -46t-48 -17h-143q-30 0 -47 17.5t-17 45.5zM267 222h-143q-30 0 -47 17.5t-17 45.5v208
q0 28 17 45.5t47 17.5h143q31 0 48 -17t17 -46v-208q0 -29 -17 -46t-48 -17zM167 299h58q26 0 26 28v124q0 27 -26 27h-58q-26 0 -26 -27v-124q0 -28 26 -28zM855 63v207q0 28 17 45.5t47 17.5h143q31 0 48 -17t17 -46v-207q0 -29 -17 -46t-48 -17h-143q-30 0 -47 17.5
t-17 45.5zM936 229v-124q0 -28 26 -28h58q26 0 26 28v124q0 27 -26 27h-58q-26 0 -26 -27z" />
    <glyph glyph-name="caron.cap" horiz-adv-x="343" 
d="M204 744h-83l-87 115h96l33 -42l32 42h98z" />
    <glyph glyph-name="caron.alt" horiz-adv-x="343" 
d="M201 698h100l-80 -106h-100l-79 106h94l33 -40z" />
    <glyph glyph-name="ordmasculine.small" horiz-adv-x="382" 
d="M252 241h-121q-33 0 -52 19t-19 49v179q0 31 19 49.5t52 18.5h121q33 0 51.5 -18.5t18.5 -49.5v-179q0 -30 -18.5 -49t-51.5 -19zM152 309h79q19 0 19 24v132q0 22 -19 22h-79q-20 0 -20 -22v-132q0 -24 20 -24zM309 100h-235v77h235v-77z" />
    <glyph glyph-name="zero.slash" horiz-adv-x="585" 
d="M60 101v497q0 45 27.5 73t76.5 28h257q49 0 76.5 -28t27.5 -73v-497q0 -45 -27.5 -73t-76.5 -28h-257q-49 0 -76.5 28t-27.5 73zM203 95h179q40 0 40 44v294q0 45 -4 74l-248 -397q10 -15 33 -15zM163 559v-295q0 -43 4 -71l245 399q-9 11 -30 11h-179q-40 0 -40 -44z
" />
    <glyph glyph-name="g.alt" horiz-adv-x="521" 
d="M32 -149v138q0 48 33 69q-5 13 -5 32v327q0 34 24 57.5t61 23.5h376l-5 -101l-69 5q4 -12 4 -31v-135q0 -38 -20.5 -59.5t-54.5 -21.5h-186l-29 28v-49q0 -44 40 -44h220q34 0 54.5 -21.5t20.5 -59.5v-158q0 -38 -20.5 -59.5t-54.5 -21.5h-314q-34 0 -54.5 21.5
t-20.5 59.5zM133 -50v-48q0 -16 9.5 -26t27.5 -10h188q18 0 27.5 10t9.5 26v49q0 39 -37 39h-192q-33 0 -33 -40zM201 251h112q18 0 27.5 10t9.5 26v76q0 39 -37 39h-112q-40 0 -40 -36v-79q0 -36 40 -36z" />
    <glyph glyph-name="numbersign.small" horiz-adv-x="535" 
d="M192 0h-83l13 151h-72v78h78l7 99h-78v78h85l13 150h83l-13 -150h102l14 150h83l-13 -150h74v-78h-80l-8 -99h80v-78h-87l-12 -151h-84l14 151h-103zM219 328l-9 -99h104l8 99h-103z" />
    <glyph glyph-name="exclam.small" horiz-adv-x="227" 
d="M155 166h-83l-12 391h107zM166 0h-106v104h106v-104z" />
    <glyph glyph-name="exclamdown.small" horiz-adv-x="227" 
d="M60 557h106v-105h-106v105zM72 391h83l12 -391h-107z" />
    <glyph glyph-name="a.small" horiz-adv-x="489" 
d="M191 206h105l-52 175zM320 112h-155l-34 -112h-111l171 556h102l176 -556h-113z" />
    <glyph glyph-name="b.small" horiz-adv-x="496" 
d="M334 0h-264v556h254q102 0 102 -104v-110q0 -50 -27 -65q37 -13 37 -61v-112q0 -49 -26 -76.5t-76 -27.5zM175 462v-132h105q42 0 42 44v44q0 44 -45 44h-102zM175 233v-140h112q45 0 45 45v51q0 44 -42 44h-115z" />
    <glyph glyph-name="c.small" horiz-adv-x="482" 
d="M60 104v349q0 103 102 103h255l5 -94h-212q-20 0 -32 -12.5t-12 -31.5v-280q0 -21 12 -33t33 -12h211v-93h-260q-50 0 -76 27.5t-26 76.5z" />
    <glyph glyph-name="d.small" horiz-adv-x="559" 
d="M398 0h-328v556h328q53 0 77 -29t24 -75v-348q0 -104 -101 -104zM176 461v-367h175q44 0 44 46v277q0 44 -46 44h-173z" />
    <glyph glyph-name="e.small" horiz-adv-x="428" 
d="M388 0h-318v556h318v-92h-213v-137h186v-94h-186v-141h213v-92z" />
    <glyph glyph-name="f.small" horiz-adv-x="424" 
d="M170 0h-100v556h314v-92h-214v-156h186v-93h-186v-215z" />
    <glyph glyph-name="g.small" horiz-adv-x="549" 
d="M60 104v349q0 46 26 74.5t76 28.5h278l5 -94h-235q-44 0 -44 -45v-279q0 -45 46 -45h130q43 0 43 45v64h-113v97h217v-195q0 -104 -102 -104h-225q-51 0 -76.5 28t-25.5 76z" />
    <glyph glyph-name="h.small" horiz-adv-x="546" 
d="M176 0h-106v556h106v-227h195v227h105v-556h-105v232h-195v-232z" />
    <glyph glyph-name="i.small" horiz-adv-x="300" 
d="M270 0h-240v87h67v380h-67v89h240v-89h-68v-380h68v-87z" />
    <glyph glyph-name="j.small" horiz-adv-x="325" 
d="M153 0h-109l-4 87h88q22 0 22 25v354h-110v90h215v-452q0 -51 -23 -77.5t-79 -26.5z" />
    <glyph glyph-name="k.small" horiz-adv-x="532" 
d="M176 0h-106v556h106v-227h116q24 0 30 22l50 205h105l-67 -276l82 -280h-106l-64 209q-8 23 -30 23h-116v-232z" />
    <glyph glyph-name="l.small" horiz-adv-x="411" 
d="M371 0h-301v556h106v-459h195v-97z" />
    <glyph glyph-name="m.small" horiz-adv-x="590" 
d="M176 0h-106v556h100l126 -271l121 271h103v-556h-105v318l-75 -172h-88l-76 167v-313z" />
    <glyph glyph-name="n.small" horiz-adv-x="546" 
d="M176 0h-106v556h98l203 -313v313h105v-556h-89l-211 343v-343z" />
    <glyph glyph-name="o.small" horiz-adv-x="549" 
d="M60 104v349q0 49 26.5 76t75.5 27h225q102 0 102 -103v-349q0 -104 -102 -104h-225q-49 0 -75.5 27t-26.5 77zM166 418v-281q0 -19 12 -31.5t33 -12.5h129q45 0 45 44v281q0 44 -45 44h-129q-21 0 -33 -12.5t-12 -31.5z" />
    <glyph glyph-name="p.small" horiz-adv-x="493" 
d="M175 0h-105v556h276q56 0 79 -22.5t23 -73.5v-159q0 -101 -102 -101h-171v-200zM175 462v-168h124q45 0 45 44v80q0 44 -45 44h-124z" />
    <glyph glyph-name="q.small" horiz-adv-x="549" 
d="M60 104v349q0 49 26.5 76t75.5 27h225q50 0 76 -27t26 -76v-349q0 -23 -5 -40l99 -104l-116 -12l-56 56q-20 -4 -53 -4h-196q-49 0 -75.5 27t-26.5 77zM166 418v-281q0 -19 12 -31.5t33 -12.5h129q45 0 45 44v281q0 44 -45 44h-129q-21 0 -33 -12.5t-12 -31.5z" />
    <glyph glyph-name="r.small" horiz-adv-x="519" 
d="M176 0h-106v556h284q102 0 102 -101v-160q0 -36 -21 -55l-7 -7q21 -21 25 -54l36 -179h-107l-30 152q-8 36 -44 36h-132v-188zM176 459v-174h132q44 0 44 43v86q0 45 -45 45h-131z" />
    <glyph glyph-name="s.small" horiz-adv-x="435" 
d="M315 0h-268l-5 95h214q18 0 28 11t10 29v43q0 30 -30 38l-164 37q-31 7 -45.5 23t-14.5 48v148q0 39 20.5 61.5t58.5 22.5h257l4 -96h-202q-38 0 -38 -38v-32q0 -32 42 -43l147 -36q35 -8 50.5 -28t15.5 -57v-142q0 -84 -80 -84z" />
    <glyph glyph-name="t.small" horiz-adv-x="437" 
d="M270 0h-104v466h-136v90h377v-90h-137v-466z" />
    <glyph glyph-name="u.small" horiz-adv-x="546" 
d="M70 104v452h106v-420q0 -43 41 -43h112q42 0 42 43v420h105v-452q0 -51 -23 -77.5t-79 -26.5h-202q-102 0 -102 104z" />
    <glyph glyph-name="v.small" horiz-adv-x="473" 
d="M285 0h-104l-156 556h109l102 -374l103 374h109z" />
    <glyph glyph-name="w.small" horiz-adv-x="748" 
d="M575 0h-104l-99 365l-97 -365h-104l-146 556h109l92 -364l93 364h110l97 -364l88 364h109z" />
    <glyph glyph-name="x.small" horiz-adv-x="487" 
d="M467 0h-123l-102 180l-103 -180h-119l163 285l-153 271h125l90 -162l93 162h119l-153 -267z" />
    <glyph glyph-name="y.small" horiz-adv-x="482" 
d="M294 0h-104v250l-170 306h119l104 -192l103 192h116l-168 -306v-250z" />
    <glyph glyph-name="z.small" horiz-adv-x="448" 
d="M160 95h258l-4 -95h-384v78l253 383h-241l5 95h359v-81z" />
    <glyph glyph-name="agrave.small" horiz-adv-x="489" 
d="M191 206h105l-52 175zM320 112h-155l-34 -112h-111l171 556h102l176 -556h-113zM138 708h104l42 -115h-84z" />
    <glyph glyph-name="aacute.small" horiz-adv-x="489" 
d="M191 206h105l-52 175zM320 112h-155l-34 -112h-111l171 556h102l176 -556h-113zM282 593h-84l42 115h104z" />
    <glyph glyph-name="acircumflex.small" horiz-adv-x="489" 
d="M244 381l-53 -175h105zM131 0h-111l171 556h102l176 -556h-113l-36 112h-155zM205 593h-94l77 115h103l79 -115h-100l-32 49z" />
    <glyph glyph-name="atilde.small" horiz-adv-x="489" 
d="M191 206h105l-52 175zM320 112h-155l-34 -112h-111l171 556h102l176 -556h-113zM268 595l-83 29l-21 -30h-76l72 113h57l90 -28l22 28h74l-70 -112h-65z" />
    <glyph glyph-name="adieresis.small" horiz-adv-x="489" 
d="M244 381l-53 -175h105zM131 0h-111l171 556h102l176 -556h-113l-36 112h-155zM365 606h-88v89h88v-89zM205 606h-89v89h89v-89z" />
    <glyph glyph-name="amacron.small" horiz-adv-x="489" 
d="M244 381l-53 -175h105zM131 0h-111l171 556h102l176 -556h-113l-36 112h-155zM354 611h-229v79h229v-79z" />
    <glyph glyph-name="abreve.small" horiz-adv-x="489" 
d="M294 603h-114q-47 0 -47 46v53l61 2v-20q0 -24 23 -24h39q23 0 23 24v20l61 -2v-61q0 -38 -46 -38zM244 381l-53 -175h105zM131 0h-111l171 556h102l176 -556h-113l-36 112h-155z" />
    <glyph glyph-name="f_f_h" horiz-adv-x="1142" 
d="M203 0h-103v404h-90v94h90v81q0 46 25.5 73.5t74.5 27.5h103l6 -93h-65q-40 0 -40 -44v-45h186v97q0 49 27 76.5t80 27.5h182l102 7v-234l26 26h190q34 0 54.5 -21.5t20.5 -59.5v-417h-103v363q0 39 -37 39h-110q-40 0 -40 -43v-359h-103v606h-146q-40 0 -40 -44v-64h108
v-94h-109v-404h-103v404h-186v-404z" />
    <glyph glyph-name="f_k" horiz-adv-x="813" 
d="M203 0h-103v404h-90v94h90v90q0 111 123 111h166l104 7v-411h94q45 0 53 39l33 164h103l-49 -232l-21 -19l22 -20l55 -227h-103l-40 160q-10 39 -50 39h-97v-199h-104v606h-145q-40 0 -40 -44v-64h108v-94h-109v-404z" />
    <glyph glyph-name="ampersand.alt" horiz-adv-x="757" 
d="M60 98v301q0 46 27.5 72.5t78.5 26.5h185q53 0 80 -28t27 -78v-66q0 -6 -2 -24l94 10v186h96v-175l91 11v-88l-91 -11v-138q0 -49 -23 -73t-62 -24h-395q-52 0 -79 27t-27 71zM159 216v-86q0 -38 39 -38h316q36 0 36 37v100l-360 -39zM159 367v-98l164 16q35 3 35 36v44
q0 40 -37 40h-123q-39 0 -39 -38z" />
    <glyph glyph-name="ampersand.small" horiz-adv-x="575" 
d="M167 215v-81q0 -17 10.5 -27.5t28.5 -10.5h162q32 0 32 30l-206 121q-27 -3 -27 -32zM60 100v130q0 55 49 74q-24 15 -24 55v88q0 49 28.5 79t81.5 30h176q52 0 79.5 -26.5t27.5 -74.5v-86h-106v53q0 17 -10 27.5t-28 10.5h-102q-18 0 -28 -10.5t-10 -27.5v-46
q0 -30 28 -46l178 -100v48h105v-119l50 -44l-5 -100l-55 47q-15 -62 -85 -62h-246q-50 0 -77 26t-27 74z" />
    <glyph glyph-name="quoteleft.small" horiz-adv-x="207" 
d="M148 349h-103v110l27 97h85l-28 -98h19v-109z" />
    <glyph glyph-name="quoteright.small" horiz-adv-x="207" 
d="M130 349h-85l28 98h-19v109h103v-110z" />
    <glyph glyph-name="quotedblleft.small" horiz-adv-x="355" 
d="M153 349h-103v110l27 97h85l-28 -98h19v-109zM296 349h-104v110l27 97h86l-28 -98h19v-109z" />
    <glyph glyph-name="quotedblright.small" horiz-adv-x="355" 
d="M278 349h-86l28 98h-19v109h104v-110zM135 349h-85l28 98h-19v109h103v-110z" />
    <glyph glyph-name="Euro.small" horiz-adv-x="498" 
d="M100 104v68h-80l10 77h70v59h-61l10 77h51v68q0 103 102 103h251l5 -94h-208q-20 0 -32 -12.5t-12 -31.5v-33h221l-10 -77h-211v-59h202l-10 -77h-192v-34q0 -21 12 -33t33 -12h207v-93h-256q-50 0 -76 27.5t-26 76.5z" />
    <glyph glyph-name="dollar.small" horiz-adv-x="465" 
d="M197 0h-140l-5 95h224q18 0 28 11t10 29v43q0 30 -30 38l-174 37q-60 12 -60 71v148q0 39 20.5 61.5t58.5 22.5h58v87h93v-87h116l4 -96h-212q-38 0 -38 -38v-32q0 -34 32 -42l167 -37q66 -15 66 -75v-152q0 -84 -80 -84h-45v-90h-93v90z" />
    <glyph glyph-name="cent.small" horiz-adv-x="502" 
d="M60 104v349q0 103 102 103h71v87h93v-87h111l5 -94h-232q-20 0 -32 -12.5t-12 -31.5v-280q0 -21 12 -33t33 -12h231v-93h-106v-90h-92v90h-82q-50 0 -76 27.5t-26 76.5z" />
    <glyph glyph-name="sterling.small" horiz-adv-x="488" 
d="M448 0h-408v94h59v143h-58v88h58v127q0 104 101 104h220l5 -94h-176q-45 0 -45 -44v-93h180l-8 -88h-172v-143h244v-94z" />
    <glyph glyph-name="florin.small" horiz-adv-x="354" 
d="M83 -96l36 333h-86l11 87h84l13 131q5 46 34 73.5t78 27.5h101l-6 -93h-67q-35 0 -38 -39l-11 -100h106l-12 -87h-104l-39 -371q-9 -96 -111 -96h-102l6 92h65q22 0 31 10t11 32z" />
    <glyph glyph-name="yen.small" horiz-adv-x="492" 
d="M198 122h-112v71h112v55h-111v72h72l-129 236h114l104 -197l103 197h111l-127 -236h64v-72h-102v-55h101v-71h-101v-122h-99v122z" />
    <glyph glyph-name="a.superior" horiz-adv-x="418" 
d="M273 299h-142q-81 0 -81 85v54q0 83 89 91l143 10v48q0 29 -26 29h-183l4 82h204q41 0 64 -23t23 -61v-315h-62l-16 18zM164 380h92q26 0 26 28v56l-121 -10q-15 -2 -20.5 -9t-5.5 -22v-19q0 -24 29 -24z" />
    <glyph glyph-name="b.superior" horiz-adv-x="428" 
d="M161 380h107q25 0 25 25v191q0 21 -25 21h-107q-26 0 -26 -23v-191q0 -23 26 -23zM145 299l-16 15l-17 -15h-62v562l85 8v-191l18 21h161q29 0 46.5 -18.5t17.5 -50.5v-262q0 -33 -17 -51t-47 -18h-169z" />
    <glyph glyph-name="c.superior" horiz-adv-x="370" 
d="M315 299h-201q-30 0 -47 18t-17 51v261q0 32 17.5 50.5t46.5 18.5h201l5 -82h-162q-24 0 -24 -21v-194q0 -21 24 -21h162z" />
    <glyph glyph-name="d.superior" horiz-adv-x="428" 
d="M284 299h-170q-30 0 -47 18t-17 51v262q0 32 17.5 50.5t46.5 18.5h160l19 -21v183l85 7v-569h-63l-16 15zM158 380h108q27 0 27 23v191q0 23 -27 23h-108q-23 0 -23 -21v-191q0 -25 23 -25z" />
    <glyph glyph-name="e.superior" horiz-adv-x="413" 
d="M345 297h-223q-34 0 -53 20t-19 54v253q0 34 19 54t53 20h159q82 0 82 -84v-75q0 -82 -82 -82h-127l-23 20v-78q0 -21 24 -21h195zM131 593v-64h130q23 0 23 23v40q0 24 -23 24h-106q-24 0 -24 -23z" />
    <glyph glyph-name="f.superior" horiz-adv-x="340" 
d="M205 299h-84v322h-71v77h71v80q0 38 24 61.5t65 23.5h79v-82h-57q-27 0 -27 -29v-54h85v-77h-85v-322z" />
    <glyph glyph-name="g.superior" horiz-adv-x="428" 
d="M158 380h108q27 0 27 23v190q0 23 -27 23h-108q-23 0 -23 -25v-188q0 -23 23 -23zM292 119h-221l-4 81h199q27 0 27 30v89l-21 -20h-158q-30 0 -47 18t-17 51v261q0 32 18 50.5t46 18.5h170l16 -16l15 16h63v-495q0 -38 -22.5 -61t-63.5 -23z" />
    <glyph glyph-name="h.superior" horiz-adv-x="420" 
d="M135 299h-85v557l84 7v-185l20 21h147q69 0 69 -69v-331h-85v292q0 26 -24 26h-100q-26 0 -26 -28v-290z" />
    <glyph glyph-name="i.superior" horiz-adv-x="187" 
d="M137 761h-87v88h87v-88zM137 299h-84v400h84v-400z" />
    <glyph glyph-name="j.superior" horiz-adv-x="194" 
d="M56 119h-56l-4 81h35q28 0 28 26v473h85v-496q0 -38 -23.5 -61t-64.5 -23zM144 761h-87v88h87v-88z" />
    <glyph glyph-name="k.superior" horiz-adv-x="428" 
d="M134 299h-84v557l84 7v-323h87q29 0 36 28l27 131h88l-40 -190l-13 -11l15 -13l44 -186h-88l-33 129q-9 28 -34 28h-89v-157z" />
    <glyph glyph-name="l.superior" horiz-adv-x="184" 
d="M134 863v-565h-84v558z" />
    <glyph glyph-name="m.superior" horiz-adv-x="620" 
d="M134 299h-84v399h62l17 -16l14 16h178l17 -16l15 16h154q28 0 45.5 -18.5t17.5 -50.5v-330h-85v292q0 25 -24 25h-82q-27 0 -27 -27v-290h-84v292q0 25 -25 25h-82q-27 0 -27 -28v-289z" />
    <glyph glyph-name="n.superior" horiz-adv-x="419" 
d="M135 299h-85v399h62l17 -16l14 16h163q28 0 45.5 -18.5t17.5 -50.5v-330h-85v292q0 25 -24 25h-99q-26 0 -26 -28v-289z" />
    <glyph glyph-name="o.superior" horiz-adv-x="426" 
d="M290 297h-154q-41 0 -63.5 23t-22.5 61v233q0 38 22.5 61t63.5 23h154q41 0 63.5 -23t22.5 -61v-233q0 -38 -22.5 -61t-63.5 -23zM157 378h111q27 0 27 29v180q0 29 -27 29h-111q-26 0 -26 -29v-180q0 -29 26 -29z" />
    <glyph glyph-name="p.superior" horiz-adv-x="428" 
d="M135 126l-85 -7v579h62l17 -16l14 16h171q29 0 46.5 -18.5t17.5 -50.5v-261q0 -33 -17 -51t-47 -18h-165l-14 14v-187zM161 380h107q25 0 25 21v190q0 25 -25 25h-107q-26 0 -26 -23v-190q0 -23 26 -23z" />
    <glyph glyph-name="q.superior" horiz-adv-x="428" 
d="M159 380h108q26 0 26 23v190q0 23 -26 23h-108q-24 0 -24 -25v-190q0 -21 24 -21zM316 698h62v-572l-85 -7v192l-11 -12h-168q-30 0 -47 18t-17 51v261q0 32 17.5 50.5t46.5 18.5h171l14 -16z" />
    <glyph glyph-name="r.superior" horiz-adv-x="297" 
d="M134 299h-84v399h61l17 -16l15 16h114l-13 -84h-84q-26 0 -26 -29v-286z" />
    <glyph glyph-name="s.superior" horiz-adv-x="362" 
d="M258 299h-213l-5 81h174q23 0 23 21v17q0 18 -21 26l-110 28q-34 10 -47 23t-16 46v88q0 32 17.5 50.5t46.5 18.5h198l5 -82h-154q-25 0 -25 -21v-21q0 -18 26 -24l102 -25q28 -7 45.5 -28t17.5 -51v-78q0 -33 -17 -51t-47 -18z" />
    <glyph glyph-name="t.superior" horiz-adv-x="305" 
d="M211 379h56l-4 -80h-69q-95 0 -95 84v235h-69v80h69v87l85 6v-93h91v-80h-91v-210q0 -29 27 -29z" />
    <glyph glyph-name="u.superior" horiz-adv-x="419" 
d="M276 299h-163q-29 0 -46 18t-17 51v330h85v-294q0 -26 23 -26h100q27 0 27 29v291h84v-399h-62l-16 15z" />
    <glyph glyph-name="v.superior" horiz-adv-x="408" 
d="M248 299h-87l-131 399h92l84 -265l83 265h89z" />
    <glyph glyph-name="w.superior" horiz-adv-x="630" 
d="M239 299h-87l-122 399h92l75 -261l74 261h90l75 -261l75 261h89l-122 -399h-87l-77 241z" />
    <glyph glyph-name="x.superior" horiz-adv-x="398" 
d="M124 299h-94l116 206l-111 193h106l62 -110l62 110h94l-109 -193l118 -206h-102l-72 124z" />
    <glyph glyph-name="y.superior" horiz-adv-x="389" 
d="M263 119h-206l-4 81h185q27 0 27 30v84l-15 -15h-146q-30 0 -47 18t-17 51v330h85v-294q0 -26 23 -26h90q24 0 27 23v297h84v-495q0 -38 -22.5 -61t-63.5 -23z" />
    <glyph glyph-name="z.superior" horiz-adv-x="369" 
d="M156 378h183l-5 -79h-304v67l177 252h-167l4 80h288v-68z" />
    <glyph glyph-name="grave.small" horiz-adv-x="241" 
d="M48 708h104l42 -115h-84z" />
    <glyph glyph-name="acute.small" horiz-adv-x="241" 
d="M132 593h-84l42 115h104z" />
    <glyph glyph-name="circumflex.small" horiz-adv-x="343" 
d="M135 593h-94l77 115h103l79 -115h-100l-32 49z" />
    <glyph glyph-name="caron.small" horiz-adv-x="343" 
d="M201 688h100l-80 -106h-100l-79 106h94l33 -40z" />
    <glyph glyph-name="commaaccent" horiz-adv-x="221" 
d="M139 -230h-86l29 101h-19v113h104v-114z" />
    <glyph glyph-name="commaaccent.alt" horiz-adv-x="221" 
d="M139 -230h-86l29 101h-19v113h104v-114z" />
    <glyph glyph-name="tilde.small" horiz-adv-x="390" 
d="M213 592l-74 28l-20 -28h-77l71 105h57l82 -29l21 29h75l-70 -105h-65z" />
    <glyph glyph-name="dieresis.small" horiz-adv-x="320" 
d="M284 606h-88v89h88v-89zM124 606h-89v89h89v-89z" />
    <glyph glyph-name="macron.small" horiz-adv-x="329" 
d="M279 611h-229v79h229v-79z" />
    <glyph glyph-name="breve.cap" horiz-adv-x="292" 
d="M204 748h-126q-40 0 -40 47v55l65 3v-21q0 -24 23 -24h39q23 0 23 24v21l65 -3v-64q0 -38 -49 -38z" />
    <glyph glyph-name="question.small" horiz-adv-x="419" 
d="M226 169h-83v29q0 45 7.5 66.5t31.5 41.5l65 53q27 23 27 54v15q0 16 -12 25t-31 9h-186l4 94h207q118 0 118 -104v-42q0 -68 -39 -101l-76 -64q-33 -29 -33 -57v-19zM239 0h-106v104h106v-104z" />
    <glyph glyph-name="questiondown.small" horiz-adv-x="419" 
d="M193 387h83v-29q0 -45 -7.5 -66.5t-31.5 -41.5l-65 -53q-27 -23 -27 -54v-15q0 -16 12 -25t31 -9h186l-4 -94h-207q-118 0 -118 104v42q0 68 39 101l76 64q33 29 33 57v19zM180 556h106v-104h-106v104z" />
    <glyph glyph-name="gcircumflex.alt" horiz-adv-x="521" 
d="M32 -149v138q0 48 33 69q-5 13 -5 32v327q0 34 24 57.5t61 23.5h376l-5 -101l-69 5q4 -12 4 -31v-135q0 -38 -20.5 -59.5t-54.5 -21.5h-186l-29 28v-49q0 -44 40 -44h220q34 0 54.5 -21.5t20.5 -59.5v-158q0 -38 -20.5 -59.5t-54.5 -21.5h-314q-34 0 -54.5 21.5
t-20.5 59.5zM133 -50v-48q0 -16 9.5 -26t27.5 -10h188q18 0 27.5 10t9.5 26v49q0 39 -37 39h-192q-33 0 -33 -40zM201 251h112q18 0 27.5 10t9.5 26v76q0 39 -37 39h-112q-40 0 -40 -36v-79q0 -36 40 -36zM218 546h-94l77 125h103l79 -125h-100l-32 51z" />
    <glyph glyph-name="gbreve.alt" horiz-adv-x="521" 
d="M32 -149v138q0 48 33 69q-5 13 -5 32v327q0 34 24 57.5t61 23.5h376l-5 -101l-69 5q4 -12 4 -31v-135q0 -38 -20.5 -59.5t-54.5 -21.5h-186l-29 28v-49q0 -44 40 -44h220q34 0 54.5 -21.5t20.5 -59.5v-158q0 -38 -20.5 -59.5t-54.5 -21.5h-314q-34 0 -54.5 21.5
t-20.5 59.5zM133 -50v-48q0 -16 9.5 -26t27.5 -10h188q18 0 27.5 10t9.5 26v49q0 39 -37 39h-192q-33 0 -33 -40zM201 251h112q18 0 27.5 10t9.5 26v76q0 39 -37 39h-112q-40 0 -40 -36v-79q0 -36 40 -36zM319 556h-135q-17 0 -28.5 10.5t-11.5 27.5v64l65 3v-21
q0 -24 23 -24h39q23 0 23 24v21l65 -3v-64q0 -17 -11.5 -27.5t-28.5 -10.5z" />
    <glyph glyph-name="gdotaccent.alt" horiz-adv-x="521" 
d="M32 -149v138q0 48 33 69q-5 13 -5 32v327q0 34 24 57.5t61 23.5h376l-5 -101l-69 5q4 -12 4 -31v-135q0 -38 -20.5 -59.5t-54.5 -21.5h-186l-29 28v-49q0 -44 40 -44h220q34 0 54.5 -21.5t20.5 -59.5v-158q0 -38 -20.5 -59.5t-54.5 -21.5h-314q-34 0 -54.5 21.5
t-20.5 59.5zM133 -50v-48q0 -16 9.5 -26t27.5 -10h188q18 0 27.5 10t9.5 26v49q0 39 -37 39h-192q-33 0 -33 -40zM201 251h112q18 0 27.5 10t9.5 26v76q0 39 -37 39h-112q-40 0 -40 -36v-79q0 -36 40 -36zM295 565h-88v89h88v-89z" />
    <glyph glyph-name="gcommaaccent.alt" horiz-adv-x="521" 
d="M301 550h-96v101l25 83h74l-25 -82h22v-102zM32 -149v138q0 48 33 69q-5 13 -5 32v327q0 34 24 57.5t61 23.5h376l-5 -101l-69 5q4 -12 4 -31v-135q0 -38 -20.5 -59.5t-54.5 -21.5h-186l-29 28v-49q0 -44 40 -44h220q34 0 54.5 -21.5t20.5 -59.5v-158q0 -38 -20.5 -59.5
t-54.5 -21.5h-314q-34 0 -54.5 21.5t-20.5 59.5zM133 -50v-48q0 -16 9.5 -26t27.5 -10h188q18 0 27.5 10t9.5 26v49q0 39 -37 39h-192q-33 0 -33 -40zM201 251h112q18 0 27.5 10t9.5 26v76q0 39 -37 39h-112q-40 0 -40 -36v-79q0 -36 40 -36z" />
    <glyph glyph-name="egrave.alt" horiz-adv-x="517" 
d="M60 98v301q0 45 26.5 72t73.5 27h192q50 0 77.5 -28t27.5 -74v-201h-298v-60q0 -43 41 -43h241l-6 -92h-274q-48 0 -74.5 26t-26.5 72zM159 366v-80h199v78q0 41 -39 41h-120q-40 0 -40 -39zM160 671h104l52 -125h-84z" />
    <glyph glyph-name="eacute.alt" horiz-adv-x="517" 
d="M60 98v301q0 45 26.5 72t73.5 27h192q50 0 77.5 -28t27.5 -74v-201h-298v-60q0 -43 41 -43h241l-6 -92h-274q-48 0 -74.5 26t-26.5 72zM159 366v-80h199v78q0 41 -39 41h-120q-40 0 -40 -39zM284 546h-84l52 125h104z" />
    <glyph glyph-name="ecircumflex.alt" horiz-adv-x="517" 
d="M60 98v301q0 45 26.5 72t73.5 27h192q50 0 77.5 -28t27.5 -74v-201h-298v-60q0 -43 41 -43h241l-6 -92h-274q-48 0 -74.5 26t-26.5 72zM159 366v-80h199v78q0 41 -39 41h-120q-40 0 -40 -39zM218 546h-94l77 125h103l79 -125h-100l-32 51z" />
    <glyph glyph-name="ecaron.alt" horiz-adv-x="517" 
d="M60 98v301q0 45 26.5 72t73.5 27h192q50 0 77.5 -28t27.5 -74v-201h-298v-60q0 -43 41 -43h241l-6 -92h-274q-48 0 -74.5 26t-26.5 72zM159 366v-80h199v78q0 41 -39 41h-120q-40 0 -40 -39zM294 546h-83l-87 125h96l33 -44l32 44h98z" />
    <glyph glyph-name="edieresis.alt" horiz-adv-x="517" 
d="M60 98v301q0 45 26.5 72t73.5 27h192q50 0 77.5 -28t27.5 -74v-201h-298v-60q0 -43 41 -43h241l-6 -92h-274q-48 0 -74.5 26t-26.5 72zM159 366v-80h199v78q0 41 -39 41h-120q-40 0 -40 -39zM215 565h-88v89h88v-89zM372 565h-89v89h89v-89z" />
    <glyph glyph-name="emacron.alt" horiz-adv-x="517" 
d="M60 98v301q0 45 26.5 72t73.5 27h192q50 0 77.5 -28t27.5 -74v-201h-298v-60q0 -43 41 -43h241l-6 -92h-274q-48 0 -74.5 26t-26.5 72zM159 366v-80h199v78q0 41 -39 41h-120q-40 0 -40 -39zM369 570h-229v79h229v-79z" />
    <glyph glyph-name="ebreve.alt" horiz-adv-x="517" 
d="M60 98v301q0 45 26.5 72t73.5 27h192q50 0 77.5 -28t27.5 -74v-201h-298v-60q0 -43 41 -43h241l-6 -92h-274q-48 0 -74.5 26t-26.5 72zM159 366v-80h199v78q0 41 -39 41h-120q-40 0 -40 -39zM319 556h-135q-17 0 -28.5 10.5t-11.5 27.5v64l65 3v-21q0 -24 23 -24h39
q23 0 23 24v21l65 -3v-64q0 -17 -11.5 -27.5t-28.5 -10.5z" />
    <glyph glyph-name="edotaccent.alt" horiz-adv-x="517" 
d="M60 98v301q0 45 26.5 72t73.5 27h192q50 0 77.5 -28t27.5 -74v-201h-298v-60q0 -43 41 -43h241l-6 -92h-274q-48 0 -74.5 26t-26.5 72zM159 366v-80h199v78q0 41 -39 41h-120q-40 0 -40 -39zM300 565h-88v89h88v-89z" />
    <glyph glyph-name="eogonek.alt" horiz-adv-x="517" 
d="M60 98v301q0 45 26.5 72t73.5 27h192q50 0 77.5 -28t27.5 -74v-201h-298v-60q0 -43 41 -43h241l-6 -92l-59 -114q0 -34 37 -34h21l-6 -82h-79q-34 0 -54.5 21.5t-20.5 59.5l86 149h-199q-48 0 -74.5 26t-26.5 72zM159 366v-80h199v78q0 41 -39 41h-120q-40 0 -40 -39z
" />
    <glyph glyph-name="lacute.alt" horiz-adv-x="251" 
d="M70 111v587l104 8v-567q0 -48 45 -48h16l-3 -91h-47q-115 0 -115 111zM154 736h-84l52 125h104z" />
    <glyph glyph-name="lcaron.alt" horiz-adv-x="365" 
d="M70 111v587l104 8v-567q0 -48 45 -48h16l-3 -91h-47q-115 0 -115 111zM334 522h-74l25 81h-22v103h96v-102z" />
    <glyph glyph-name="lcommaaccent.alt" horiz-adv-x="247" 
d="M70 111v587l104 8v-567q0 -48 45 -48h16l-3 -91h-47q-115 0 -115 111zM106 -149v103h96v-102l-24 -82h-74l25 81h-23z" />
    <glyph glyph-name="lslash.alt" horiz-adv-x="247" 
d="M70 111v169l-65 -29v81l65 29v337l104 8v-299l56 25v-81l-56 -25v-187q0 -48 45 -48h16l-3 -91h-47q-115 0 -115 111z" />
    <glyph glyph-name="ldot.alt" horiz-adv-x="341" 
d="M342 308h-89v91h89v-91zM70 111v587l104 8v-567q0 -48 45 -48h16l-3 -91h-47q-115 0 -115 111z" />
    <glyph glyph-name="aring.small" horiz-adv-x="489" 
d="M320 112h-155l-34 -112h-111l162 528q-19 18 -19 52v22q0 33 19 52t54 19h14q35 0 54.5 -19t19.5 -52v-22q0 -34 -22 -53l167 -527h-113zM191 206h105l-52 175zM236 556h15q25 0 25 29v12q0 29 -25 29h-15q-26 0 -26 -29v-12q0 -29 26 -29z" />
    <glyph glyph-name="aogonek.small" horiz-adv-x="489" 
d="M291 -149l86 149h-21l-36 112h-155l-34 -112h-111l171 556h102l176 -556h-17l-60 -114q0 -34 37 -34h22l-6 -82h-79q-34 0 -54.5 21.5t-20.5 59.5zM191 206h105l-52 175z" />
    <glyph glyph-name="ae.small" horiz-adv-x="660" 
d="M614 0h-318v142h-97l-64 -142h-115l276 556h318v-92h-212v-137h185v-94h-185v-141h212v-92zM296 366l-59 -131h59v131z" />
    <glyph glyph-name="aeacute.small" horiz-adv-x="660" 
d="M471 593h-85l52 106h104zM614 0h-318v142h-97l-64 -142h-115l276 556h318v-92h-212v-137h185v-94h-185v-141h212v-92zM296 366l-59 -131h59v131z" />
    <glyph glyph-name="cacute.small" horiz-adv-x="482" 
d="M60 104v349q0 103 102 103h255l5 -94h-212q-20 0 -32 -12.5t-12 -31.5v-280q0 -21 12 -33t33 -12h211v-93h-260q-50 0 -76 27.5t-26 76.5zM292 593h-84l42 115h104z" />
    <glyph glyph-name="ccircumflex.small" horiz-adv-x="482" 
d="M60 104v349q0 103 102 103h255l5 -94h-212q-20 0 -32 -12.5t-12 -31.5v-280q0 -21 12 -33t33 -12h211v-93h-260q-50 0 -76 27.5t-26 76.5zM215 593h-94l77 115h103l79 -115h-100l-32 49z" />
    <glyph glyph-name="ccaron.small" horiz-adv-x="482" 
d="M285 698h99l-79 -106h-100l-79 106h94l33 -39zM60 104v349q0 103 102 103h255l5 -94h-212q-20 0 -32 -12.5t-12 -31.5v-280q0 -21 12 -33t33 -12h211v-93h-260q-50 0 -76 27.5t-26 76.5z" />
    <glyph glyph-name="cdotaccent.small" horiz-adv-x="482" 
d="M60 104v349q0 103 102 103h255l5 -94h-212q-20 0 -32 -12.5t-12 -31.5v-280q0 -21 12 -33t33 -12h211v-93h-260q-50 0 -76 27.5t-26 76.5zM295 606h-89v89h89v-89z" />
    <glyph glyph-name="ccedilla.small" horiz-adv-x="482" 
d="M217 -131v54l44 77h-99q-50 0 -76 27.5t-26 76.5v349q0 103 102 103h255l5 -94h-212q-20 0 -32 -12.5t-12 -31.5v-280q0 -21 12 -33t33 -12h211v-93h-97l-45 -76h30q22 0 36 -13.5t14 -35.5v-58q0 -23 -12.5 -35t-34.5 -12h-105v55h81q6 0 11 4t5 10v11q0 19 -16 19h-72z
" />
    <glyph glyph-name="dcaron.small" horiz-adv-x="559" 
d="M317 699h99l-80 -105h-100l-78 105h94l33 -39zM398 0h-328v556h328q53 0 77 -29t24 -75v-348q0 -104 -101 -104zM176 461v-367h175q44 0 44 46v277q0 44 -46 44h-173z" />
    <glyph glyph-name="dcroat.small" horiz-adv-x="559" 
d="M398 0h-328v237h-49v91h49v228h328q53 0 77 -29t24 -75v-348q0 -104 -101 -104zM176 237v-143h175q44 0 44 46v277q0 44 -46 44h-173v-133h61v-91h-61z" />
    <glyph glyph-name="egrave.small" horiz-adv-x="438" 
d="M388 0h-318v556h318v-92h-213v-137h186v-94h-186v-141h213v-92zM138 708h104l42 -115h-84z" />
    <glyph glyph-name="eacute.small" horiz-adv-x="438" 
d="M388 0h-318v556h318v-92h-213v-137h186v-94h-186v-141h213v-92zM252 593h-84l42 115h104z" />
    <glyph glyph-name="ecircumflex.small" horiz-adv-x="438" 
d="M388 0h-318v556h318v-92h-213v-137h186v-94h-186v-141h213v-92zM195 593h-94l77 115h103l79 -115h-100l-32 49z" />
    <glyph glyph-name="ecaron.small" horiz-adv-x="438" 
d="M255 698h99l-79 -106h-100l-79 106h94l33 -39zM388 0h-318v556h318v-92h-213v-137h186v-94h-186v-141h213v-92z" />
    <glyph glyph-name="edieresis.small" horiz-adv-x="438" 
d="M388 0h-318v556h318v-92h-213v-137h186v-94h-186v-141h213v-92zM348 606h-88v89h88v-89zM188 606h-89v89h89v-89z" />
    <glyph glyph-name="emacron.small" horiz-adv-x="438" 
d="M388 0h-318v556h318v-92h-213v-137h186v-94h-186v-141h213v-92zM336 611h-229v79h229v-79z" />
    <glyph glyph-name="ebreve.small" horiz-adv-x="438" 
d="M388 0h-318v556h318v-92h-213v-137h186v-94h-186v-141h213v-92zM291 601h-128q-17 0 -28.5 10.5t-11.5 27.5v61l62 3v-21q0 -24 23 -24h39q23 0 23 24v21l61 -3v-61q0 -17 -11.5 -27.5t-28.5 -10.5z" />
    <glyph glyph-name="edotaccent.small" horiz-adv-x="438" 
d="M388 0h-318v556h318v-92h-213v-137h186v-94h-186v-141h213v-92zM273 606h-89v89h89v-89z" />
    <glyph glyph-name="eogonek.small" horiz-adv-x="438" 
d="M315 0h-245v556h318v-92h-213v-137h186v-94h-186v-141h213v-92l-59 -114q0 -34 37 -34h21l-6 -82h-79q-34 0 -54.5 21.5t-20.5 59.5z" />
    <glyph glyph-name="gcircumflex.small" horiz-adv-x="549" 
d="M60 104v349q0 46 26 74.5t76 28.5h278l5 -94h-235q-44 0 -44 -45v-279q0 -45 46 -45h130q43 0 43 45v64h-113v97h217v-195q0 -104 -102 -104h-225q-51 0 -76.5 28t-25.5 76zM235 593h-94l77 115h103l79 -115h-100l-32 49z" />
    <glyph glyph-name="gbreve.small" horiz-adv-x="549" 
d="M321 603h-128q-17 0 -28.5 10.5t-11.5 27.5v61l61 3v-21q0 -24 23 -24h39q23 0 23 24v21l62 -3v-61q0 -17 -11.5 -27.5t-28.5 -10.5zM60 104v349q0 46 26 74.5t76 28.5h278l5 -94h-235q-44 0 -44 -45v-279q0 -45 46 -45h130q43 0 43 45v64h-113v97h217v-195
q0 -104 -102 -104h-225q-51 0 -76.5 28t-25.5 76z" />
    <glyph glyph-name="gdotaccent.small" horiz-adv-x="549" 
d="M60 104v349q0 46 26 74.5t76 28.5h278l5 -94h-235q-44 0 -44 -45v-279q0 -45 46 -45h130q43 0 43 45v64h-113v97h217v-195q0 -104 -102 -104h-225q-51 0 -76.5 28t-25.5 76zM315 606h-89v89h89v-89z" />
    <glyph glyph-name="gcommaaccent.small" horiz-adv-x="549" 
d="M241 -149v103h96v-102l-25 -82h-74l25 81h-22zM60 104v349q0 46 26 74.5t76 28.5h278l5 -94h-235q-44 0 -44 -45v-279q0 -45 46 -45h130q43 0 43 45v64h-113v97h217v-195q0 -104 -102 -104h-225q-51 0 -76.5 28t-25.5 76z" />
    <glyph glyph-name="hcircumflex.small" horiz-adv-x="546" 
d="M176 0h-106v556h106v-227h195v227h105v-556h-105v232h-195v-232zM235 593h-94l77 115h103l79 -115h-100l-32 49z" />
    <glyph glyph-name="hbar.small" horiz-adv-x="545" 
d="M176 0h-106v399h-60v89h60v68h106v-68h195v68h105v-68h59v-89h-59v-399h-105v232h-195v-232zM176 399v-70h195v70h-195z" />
    <glyph glyph-name="dotlessi.small" horiz-adv-x="300" 
d="M270 0h-240v87h67v380h-67v89h240v-89h-68v-380h68v-87z" />
    <glyph glyph-name="dotlessj.small" horiz-adv-x="315" 
d="M143 0h-104l-4 89h88q22 0 22 25v351h-110v91h210v-452q0 -51 -23 -77.5t-79 -26.5z" />
    <glyph glyph-name="igrave.small" horiz-adv-x="300" 
d="M270 0h-240v87h67v380h-67v89h240v-89h-68v-380h68v-87zM48 708h104l42 -115h-84z" />
    <glyph glyph-name="iacute.small" horiz-adv-x="300" 
d="M270 0h-240v87h67v380h-67v89h240v-89h-68v-380h68v-87zM182 593h-84l42 115h104z" />
    <glyph glyph-name="icircumflex.small" horiz-adv-x="318" 
d="M124 594h-94l76 105h103l79 -105h-99l-32 41zM280 0h-240v87h67v380h-67v89h240v-89h-68v-380h68v-87z" />
    <glyph glyph-name="itilde.small" horiz-adv-x="300" 
d="M270 0h-240v87h67v380h-67v89h240v-89h-68v-380h68v-87zM170 595l-83 29l-21 -30h-76l72 113h57l90 -28l22 28h74l-70 -112h-65z" />
    <glyph glyph-name="idieresis.small" horiz-adv-x="302" 
d="M270 0h-240v87h67v380h-67v89h240v-89h-68v-380h68v-87zM271 606h-88v89h88v-89zM111 606h-89v89h89v-89z" />
    <glyph glyph-name="imacron.small" horiz-adv-x="306" 
d="M270 0h-240v87h67v380h-67v89h240v-89h-68v-380h68v-87zM264 611h-229v79h229v-79z" />
    <glyph glyph-name="ibreve.small" horiz-adv-x="300" 
d="M214 603h-128q-17 0 -28.5 10.5t-11.5 27.5v61l62 3v-21q0 -24 23 -24h39q23 0 23 24v21l61 -3v-61q0 -17 -11.5 -27.5t-28.5 -10.5zM270 0h-240v87h67v380h-67v89h240v-89h-68v-380h68v-87z" />
    <glyph glyph-name="idotaccent.small" horiz-adv-x="162" 
d="M270 0h-240v87h67v380h-67v89h240v-89h-68v-380h68v-87zM192 603h-87v88h87v-88z" />
    <glyph glyph-name="iogonek.small" horiz-adv-x="324" 
d="M115 0h-85v87h67v380h-67v89h240v-89h-68v-380h68v-87h-66l-56 -103q0 -34 37 -34h16l-6 -93h-93q-34 0 -54.5 21.5t-20.5 59.5z" />
    <glyph glyph-name="ij.small" horiz-adv-x="612" 
d="M270 0h-240v87h67v380h-67v89h240v-89h-68v-380h68v-87zM440 0h-109l-4 87h88q22 0 22 25v355h-110v89h215v-452q0 -51 -23 -77.5t-79 -26.5z" />
    <glyph glyph-name="jcircumflex.small" horiz-adv-x="315" 
d="M143 0h-104l-4 87h88q22 0 22 25v354h-110v90h210v-452q0 -51 -23 -77.5t-79 -26.5zM105 593h-94l77 115h103l79 -115h-100l-32 49z" />
    <glyph glyph-name="kcommaaccent.small" horiz-adv-x="532" 
d="M232 -149v103h96v-102l-24 -82h-74l25 81h-23zM176 0h-106v556h106v-227h116q24 0 30 22l50 205h105l-67 -276l82 -280h-106l-64 209q-8 23 -30 23h-116v-232z" />
    <glyph glyph-name="kgreenlandic.small" horiz-adv-x="532" 
d="M176 0h-106v556h106v-227h116q24 0 30 22l50 205h105l-67 -276l82 -280h-106l-64 209q-8 23 -30 23h-116v-232z" />
    <glyph glyph-name="lacute.small" horiz-adv-x="411" 
d="M371 0h-301v556h106v-459h195v-97zM162 593h-84l42 115h104z" />
    <glyph glyph-name="lcaron.small" horiz-adv-x="411" 
d="M298 474h-75l26 82h-23v102h96v-101zM371 0h-301v556h106v-459h195v-97z" />
    <glyph glyph-name="lcommaaccent.small" horiz-adv-x="411" 
d="M176 -149v103h96v-102l-24 -82h-74l25 81h-23zM371 0h-301v556h106v-459h195v-97z" />
    <glyph glyph-name="ldot.small" horiz-adv-x="411" 
d="M380 265h-86v89h86v-89zM371 0h-301v556h106v-459h195v-97z" />
    <glyph glyph-name="lslash.small" horiz-adv-x="411" 
d="M371 0h-301v222l-56 -25v73l56 25v261h106v-213l69 31v-72l-69 -32v-173h195v-97z" />
    <glyph glyph-name="nacute.small" horiz-adv-x="546" 
d="M176 0h-106v556h98l203 -313v313h105v-556h-89l-211 343v-343zM302 593h-84l42 115h104z" />
    <glyph glyph-name="ncaron.small" horiz-adv-x="546" 
d="M299 698h99l-79 -106h-100l-79 106h94l33 -39zM176 0h-106v556h98l203 -313v313h105v-556h-89l-211 343v-343z" />
    <glyph glyph-name="ntilde.small" horiz-adv-x="546" 
d="M176 0h-106v556h98l203 -313v313h105v-556h-89l-211 343v-343zM298 595l-83 29l-21 -30h-76l72 113h57l90 -28l22 28h74l-70 -112h-65z" />
    <glyph glyph-name="napostrophe.small" horiz-adv-x="546" 
d="M151 603h-75l26 81h-23v103h96v-102zM176 0h-106v556h98l203 -313v313h105v-556h-89l-211 343v-343z" />
    <glyph glyph-name="ncommaaccent.small" horiz-adv-x="546" 
d="M240 -149v103h96v-102l-24 -82h-74l25 81h-23zM176 0h-106v556h98l203 -313v313h105v-556h-89l-211 343v-343z" />
    <glyph glyph-name="ograve.small" 
d="M60 104v349q0 49 26.5 76t75.5 27h225q102 0 102 -103v-349q0 -104 -102 -104h-225q-49 0 -75.5 27t-26.5 77zM166 418v-281q0 -19 12 -31.5t33 -12.5h129q45 0 45 44v281q0 44 -45 44h-129q-21 0 -33 -12.5t-12 -31.5zM168 708h104l42 -115h-84z" />
    <glyph glyph-name="oacute.small" 
d="M60 104v349q0 49 26.5 76t75.5 27h225q102 0 102 -103v-349q0 -104 -102 -104h-225q-49 0 -75.5 27t-26.5 77zM166 418v-281q0 -19 12 -31.5t33 -12.5h129q45 0 45 44v281q0 44 -45 44h-129q-21 0 -33 -12.5t-12 -31.5zM312 593h-84l42 115h104z" />
    <glyph glyph-name="ocircumflex.small" 
d="M60 104v349q0 49 26.5 76t75.5 27h225q102 0 102 -103v-349q0 -104 -102 -104h-225q-49 0 -75.5 27t-26.5 77zM166 418v-281q0 -19 12 -31.5t33 -12.5h129q45 0 45 44v281q0 44 -45 44h-129q-21 0 -33 -12.5t-12 -31.5zM235 593h-94l77 115h103l79 -115h-100l-32 49z" />
    <glyph glyph-name="otilde.small" 
d="M60 104v349q0 49 26.5 76t75.5 27h225q102 0 102 -103v-349q0 -104 -102 -104h-225q-49 0 -75.5 27t-26.5 77zM166 418v-281q0 -19 12 -31.5t33 -12.5h129q45 0 45 44v281q0 44 -45 44h-129q-21 0 -33 -12.5t-12 -31.5zM298 595l-83 29l-21 -30h-76l72 113h57l90 -28
l22 28h74l-70 -112h-65z" />
    <glyph glyph-name="odieresis.small" 
d="M235 604h-89v88h89v-88zM391 604h-88v88h88v-88zM60 104v349q0 49 26.5 76t75.5 27h225q102 0 102 -103v-349q0 -104 -102 -104h-225q-49 0 -75.5 27t-26.5 77zM166 418v-281q0 -19 12 -31.5t33 -12.5h129q45 0 45 44v281q0 44 -45 44h-129q-21 0 -33 -12.5t-12 -31.5z
" />
    <glyph glyph-name="omacron.small" 
d="M60 104v349q0 49 26.5 76t75.5 27h225q102 0 102 -103v-349q0 -104 -102 -104h-225q-49 0 -75.5 27t-26.5 77zM166 418v-281q0 -19 12 -31.5t33 -12.5h129q45 0 45 44v281q0 44 -45 44h-129q-21 0 -33 -12.5t-12 -31.5zM384 611h-229v79h229v-79z" />
    <glyph glyph-name="obreve.small" 
d="M333 603h-127q-17 0 -28.5 10.5t-11.5 27.5v61l61 2v-20q0 -24 23 -24h39q23 0 23 24v20l61 -2v-61q0 -17 -11.5 -27.5t-28.5 -10.5zM60 104v349q0 49 26.5 76t75.5 27h225q102 0 102 -103v-349q0 -104 -102 -104h-225q-49 0 -75.5 27t-26.5 77zM166 418v-281
q0 -19 12 -31.5t33 -12.5h129q45 0 45 44v281q0 44 -45 44h-129q-21 0 -33 -12.5t-12 -31.5z" />
    <glyph glyph-name="ohungarumlaut.small" 
d="M229 593h-84l52 106h104zM361 593h-85l52 106h104zM60 104v349q0 49 26.5 76t75.5 27h225q102 0 102 -103v-349q0 -104 -102 -104h-225q-49 0 -75.5 27t-26.5 77zM166 418v-281q0 -19 12 -31.5t33 -12.5h129q45 0 45 44v281q0 44 -45 44h-129q-21 0 -33 -12.5t-12 -31.5z
" />
    <glyph glyph-name="oslash.small" 
d="M60 104v349q0 49 26.5 76t75.5 27h225q29 0 53 -11l33 47l38 -26l-36 -52q14 -26 14 -61v-349q0 -104 -102 -104h-225q-32 0 -55 12l-33 -48l-38 26l37 54q-13 22 -13 60zM211 93h129q45 0 45 44v193q0 27 -3 54l-208 -275q10 -16 37 -16zM166 418v-190q0 -26 3 -51
l205 273q-12 12 -34 12h-129q-21 0 -33 -12.5t-12 -31.5z" />
    <glyph glyph-name="oslashacute.small" 
d="M60 104v349q0 49 26.5 76t75.5 27h225q29 0 53 -11l33 47l38 -26l-36 -52q14 -26 14 -61v-349q0 -104 -102 -104h-225q-32 0 -55 12l-33 -48l-38 26l37 54q-13 22 -13 60zM211 93h129q45 0 45 44v193q0 27 -3 54l-208 -275q10 -16 37 -16zM166 418v-190q0 -26 3 -51
l205 273q-12 12 -34 12h-129q-21 0 -33 -12.5t-12 -31.5zM298 593h-84l52 106h104z" />
    <glyph glyph-name="oe.small" horiz-adv-x="753" 
d="M60 104v349q0 49 26.5 76t75.5 27h541v-93h-214v-136h187v-94h-187v-141h214v-92h-541q-49 0 -75.5 27t-26.5 77zM166 419v-282q0 -19 12 -31.5t33 -12.5h174v370h-174q-21 0 -33 -12.5t-12 -31.5z" />
    <glyph glyph-name="racute.small" horiz-adv-x="519" 
d="M287 593h-84l51 106h105zM176 0h-106v556h284q102 0 102 -101v-160q0 -36 -21 -55l-7 -7q21 -21 25 -54l36 -179h-107l-30 152q-8 36 -44 36h-132v-188zM176 459v-174h132q44 0 44 43v86q0 45 -45 45h-131z" />
    <glyph glyph-name="rcaron.small" horiz-adv-x="519" 
d="M295 698h99l-79 -106h-100l-79 106h94l33 -39zM176 0h-106v556h284q102 0 102 -101v-160q0 -36 -21 -55l-7 -7q21 -21 25 -54l36 -179h-107l-30 152q-8 36 -44 36h-132v-188zM176 459v-174h132q44 0 44 43v86q0 45 -45 45h-131z" />
    <glyph glyph-name="rcommaaccent.small" horiz-adv-x="519" 
d="M236 -149v103h96v-102l-24 -82h-74l25 81h-23zM176 0h-106v556h284q102 0 102 -101v-160q0 -36 -21 -55l-7 -7q21 -21 25 -54l36 -179h-107l-30 152q-8 36 -44 36h-132v-188zM176 459v-174h132q44 0 44 43v86q0 45 -45 45h-131z" />
    <glyph glyph-name="sacute.small" horiz-adv-x="435" 
d="M315 0h-268l-5 95h214q18 0 28 11t10 29v43q0 30 -30 38l-164 37q-31 7 -45.5 23t-14.5 48v148q0 39 20.5 61.5t58.5 22.5h257l4 -96h-202q-38 0 -38 -38v-32q0 -32 42 -43l147 -36q35 -8 50.5 -28t15.5 -57v-142q0 -84 -80 -84zM232 593h-84l42 115h104z" />
    <glyph glyph-name="scircumflex.small" horiz-adv-x="435" 
d="M315 0h-268l-5 95h214q18 0 28 11t10 29v43q0 30 -30 38l-164 37q-31 7 -45.5 23t-14.5 48v148q0 39 20.5 61.5t58.5 22.5h257l4 -96h-202q-38 0 -38 -38v-32q0 -32 42 -43l147 -36q35 -8 50.5 -28t15.5 -57v-142q0 -84 -80 -84zM175 593h-94l77 115h103l79 -115h-100
l-32 49z" />
    <glyph glyph-name="scaron.small" horiz-adv-x="435" 
d="M247 699h100l-80 -105h-100l-79 105h94l33 -39zM315 0h-268l-5 95h214q18 0 28 11t10 29v43q0 30 -30 38l-164 37q-31 7 -45.5 23t-14.5 48v148q0 39 20.5 61.5t58.5 22.5h257l4 -96h-202q-38 0 -38 -38v-32q0 -32 42 -43l147 -36q35 -8 50.5 -28t15.5 -57v-142
q0 -84 -80 -84z" />
    <glyph glyph-name="scedilla.small" horiz-adv-x="435" 
d="M150 -131v54l44 77h-147l-5 95h214q18 0 28 11t10 29v43q0 30 -30 38l-164 37q-31 7 -45.5 23t-14.5 48v148q0 39 20.5 61.5t58.5 22.5h257l4 -96h-202q-38 0 -38 -38v-32q0 -32 42 -43l147 -36q35 -8 50.5 -28t15.5 -57v-142q0 -84 -80 -84h-57l-45 -76h30
q22 0 36 -13.5t14 -35.5v-58q0 -23 -12.5 -35t-34.5 -12h-105v55h81q6 0 11 4t5 10v11q0 19 -16 19h-72z" />
    <glyph glyph-name="scommaaccent.small" horiz-adv-x="415" 
d="M161 -149v103h96v-102l-24 -82h-74l25 81h-23zM295 0h-248l-5 95h194q18 0 28 11t10 29v43q0 30 -30 38l-144 37q-32 9 -46 24t-14 47v148q0 39 20.5 61.5t58.5 22.5h237l4 -96h-182q-38 0 -38 -38v-32q0 -34 32 -42l137 -37q33 -9 49.5 -26t16.5 -49v-152q0 -84 -80 -84
z" />
    <glyph glyph-name="germandbls.small" horiz-adv-x="547" 
d="M350 214l-88 54v79l86 116h-132q-43 0 -43 -44v-419h-103v455q0 44 26 72.5t78 28.5h290v-93l-100 -132l67 -43q30 -24 43 -48.5t13 -60.5v-98q0 -38 -20.5 -59.5t-54.5 -21.5h-154l-6 93h94q37 0 37 34v39q0 28 -33 48z" />
    <glyph glyph-name="tcaron.small" horiz-adv-x="437" 
d="M270 0h-104v466h-136v90h377v-90h-137v-466zM247 698h99l-79 -106h-100l-79 106h94l33 -39z" />
    <glyph glyph-name="tcommaaccent.small" horiz-adv-x="437" 
d="M142 -131v54l44 77h-20v466h-136v90h377v-90h-137v-466h-20l-45 -76h30q22 0 36 -13.5t14 -35.5v-58q0 -23 -12.5 -35t-34.5 -12h-105v55h81q6 0 11 4t5 10v11q0 19 -16 19h-72z" />
    <glyph glyph-name="uni021B.small" horiz-adv-x="437" 
d="M168 -149v103h96v-102l-25 -82h-74l25 81h-22zM270 0h-104v466h-136v90h377v-90h-137v-466z" />
    <glyph glyph-name="tbar.small" horiz-adv-x="437" 
d="M270 0h-104v212h-65v89h65v165h-136v90h377v-90h-137v-165h62v-89h-62v-212z" />
    <glyph glyph-name="ugrave.small" horiz-adv-x="546" 
d="M70 104v452h106v-420q0 -43 41 -43h112q42 0 42 43v420h105v-452q0 -51 -23 -77.5t-79 -26.5h-202q-102 0 -102 104zM178 708h104l42 -115h-84z" />
    <glyph glyph-name="uacute.small" horiz-adv-x="546" 
d="M70 104v452h106v-420q0 -43 41 -43h112q42 0 42 43v420h105v-452q0 -51 -23 -77.5t-79 -26.5h-202q-102 0 -102 104zM312 593h-84l42 115h104z" />
    <glyph glyph-name="ucircumflex.small" horiz-adv-x="546" 
d="M70 104v452h106v-420q0 -43 41 -43h112q42 0 42 43v420h105v-452q0 -51 -23 -77.5t-79 -26.5h-202q-102 0 -102 104zM235 593h-94l77 115h103l79 -115h-100l-32 49z" />
    <glyph glyph-name="utilde.small" horiz-adv-x="546" 
d="M70 104v452h106v-420q0 -43 41 -43h112q42 0 42 43v420h105v-452q0 -51 -23 -77.5t-79 -26.5h-202q-102 0 -102 104zM298 595l-83 29l-21 -30h-76l72 113h57l90 -28l22 28h74l-70 -112h-65z" />
    <glyph glyph-name="udieresis.small" horiz-adv-x="546" 
d="M70 104v452h106v-420q0 -43 41 -43h112q42 0 42 43v420h105v-452q0 -51 -23 -77.5t-79 -26.5h-202q-102 0 -102 104zM393 606h-88v89h88v-89zM233 606h-89v89h89v-89z" />
    <glyph glyph-name="umacron.small" horiz-adv-x="546" 
d="M70 104v452h106v-420q0 -43 41 -43h112q42 0 42 43v420h105v-452q0 -51 -23 -77.5t-79 -26.5h-202q-102 0 -102 104zM384 611h-229v79h229v-79z" />
    <glyph glyph-name="ubreve.small" horiz-adv-x="546" 
d="M70 104v452h106v-420q0 -43 41 -43h112q42 0 42 43v420h105v-452q0 -51 -23 -77.5t-79 -26.5h-202q-102 0 -102 104zM337 601h-128q-17 0 -28.5 10.5t-11.5 27.5v61l62 3v-21q0 -24 23 -24h39q23 0 23 24v21l61 -3v-61q0 -17 -11.5 -27.5t-28.5 -10.5z" />
    <glyph glyph-name="uring.small" horiz-adv-x="546" 
d="M281 585h-13q-35 0 -54 19.5t-19 51.5v23q0 33 19 52t54 19h13q35 0 54.5 -19t19.5 -52v-23q0 -32 -19.5 -51.5t-54.5 -19.5zM267 633h15q25 0 25 29v12q0 29 -25 29h-15q-25 0 -25 -29v-12q0 -29 25 -29zM70 104v452h106v-420q0 -43 41 -43h112q42 0 42 43v420h105v-452
q0 -51 -23 -77.5t-79 -26.5h-202q-102 0 -102 104z" />
    <glyph glyph-name="uhungarumlaut.small" horiz-adv-x="546" 
d="M70 104v452h106v-420q0 -43 41 -43h112q42 0 42 43v420h105v-452q0 -51 -23 -77.5t-79 -26.5h-202q-102 0 -102 104zM233 592h-84l52 106h104zM364 592h-84l52 106h104z" />
    <glyph glyph-name="uogonek.small" horiz-adv-x="546" 
d="M70 104v452h106v-420q0 -43 41 -43h112q42 0 42 43v420h105v-452q0 -51 -23 -77.5t-79 -26.5h-49l-59 -114q0 -34 37 -34h21l-6 -82h-78q-34 0 -54.5 21.5t-20.5 59.5l89 149h-82q-102 0 -102 104z" />
    <glyph glyph-name="wgrave.small" horiz-adv-x="748" 
d="M261 699h104l52 -106h-84zM575 0h-104l-99 365l-97 -365h-104l-146 556h109l92 -364l93 364h110l97 -364l88 364h109z" />
    <glyph glyph-name="wacute.small" horiz-adv-x="748" 
d="M575 0h-104l-99 365l-97 -365h-104l-146 556h109l92 -364l93 364h110l97 -364l88 364h109zM412 593h-84l52 106h104z" />
    <glyph glyph-name="wcircumflex.small" horiz-adv-x="748" 
d="M575 0h-104l-99 365l-97 -365h-104l-146 556h109l92 -364l93 364h110l97 -364l88 364h109zM341 593h-94l77 115h103l79 -115h-100l-32 49z" />
    <glyph glyph-name="wdieresis.small" horiz-adv-x="748" 
d="M575 0h-104l-99 365l-97 -365h-104l-146 556h109l92 -364l93 364h110l97 -364l88 364h109zM493 606h-88v89h88v-89zM333 606h-89v89h89v-89z" />
    <glyph glyph-name="ygrave.small" horiz-adv-x="482" 
d="M294 0h-104v250l-170 306h119l104 -192l103 192h116l-168 -306v-250zM133 708h104l42 -115h-84z" />
    <glyph glyph-name="yacute.small" horiz-adv-x="482" 
d="M294 0h-104v250l-170 306h119l104 -192l103 192h116l-168 -306v-250zM272 593h-84l42 115h104z" />
    <glyph glyph-name="ycircumflex.small" horiz-adv-x="482" 
d="M294 0h-104v250l-170 306h119l104 -192l103 192h116l-168 -306v-250zM204 593h-94l77 115h103l79 -115h-100l-32 49z" />
    <glyph glyph-name="ydieresis.small" horiz-adv-x="482" 
d="M294 0h-104v250l-170 306h119l104 -192l103 192h116l-168 -306v-250zM360 606h-88v89h88v-89zM200 606h-89v89h89v-89z" />
    <glyph glyph-name="zacute.small" horiz-adv-x="448" 
d="M160 95h258l-4 -95h-384v78l253 383h-241l5 95h359v-81zM242 593h-84l42 115h104z" />
    <glyph glyph-name="zcaron.small" horiz-adv-x="448" 
d="M251 699h99l-80 -106h-100l-78 106h94l33 -40zM160 95h258l-4 -95h-384v78l253 383h-241l5 95h359v-81z" />
    <glyph glyph-name="zdotaccent.small" horiz-adv-x="448" 
d="M414 0h-384v78l253 383h-241l5 95h359v-81l-246 -380h258zM265 606h-89v89h89v-89z" />
    <glyph glyph-name="eng.small" horiz-adv-x="540" 
d="M366 -92v117l-190 324v-349h-106v556h98l198 -324v324h104v-683q0 -46 -28 -74.5t-78 -28.5h-79l-5 99h43q43 0 43 39z" />
    <glyph glyph-name="eth.small" horiz-adv-x="559" 
d="M398 0h-328v237h-49v91h49v228h328q53 0 77 -29t24 -75v-348q0 -104 -101 -104zM176 237v-143h175q44 0 44 46v277q0 44 -46 44h-173v-133h61v-91h-61z" />
    <glyph glyph-name="thorn.small" horiz-adv-x="498" 
d="M175 0h-105v556h105v-98h171q56 0 79 -22.5t23 -73.5v-159q0 -101 -102 -101h-171v-102zM175 364v-168h124q45 0 45 44v80q0 44 -45 44h-124z" />
    <glyph glyph-name="breve.small" horiz-adv-x="292" 
d="M216 556h-135q-17 0 -28.5 10.5t-11.5 27.5v64l65 3v-21q0 -24 23 -24h39q23 0 23 24v21l65 -3v-64q0 -17 -11.5 -27.5t-28.5 -10.5z" />
    <glyph glyph-name="ring.small" horiz-adv-x="253" 
d="M132 585h-13q-35 0 -54 19.5t-19 51.5v23q0 33 19 52t54 19h13q35 0 54.5 -19t19.5 -52v-23q0 -32 -19.5 -51.5t-54.5 -19.5zM118 633h15q26 0 26 29v12q0 29 -26 29h-15q-25 0 -25 -29v-12q0 -29 25 -29z" />
    <glyph glyph-name="hungarumlaut.cap" horiz-adv-x="384" 
d="M262 743h-82l51 105h105zM131 743h-83l52 105h104z" />
    <glyph glyph-name="hungarumlaut.small" horiz-adv-x="384" 
d="M133 593h-85l52 106h104zM264 593h-84l51 106h105z" />
    <glyph glyph-name="dotaccent.small" horiz-adv-x="171" 
d="M129 585h-87v88h87v-88z" />
    <glyph glyph-name="Kcommaaccent.alt" horiz-adv-x="568" 
d="M256 -149v103h96v-102l-24 -82h-75l26 81h-23zM184 0h-104v699h104v-338l227 338h119l-210 -310l218 -389h-120l-169 301l-65 -87v-214z" />
    <glyph glyph-name="t_t" horiz-adv-x="636" 
d="M98 101v303h-88v94h88v97l103 8v-105h185v97l104 8v-105h116v-94h-116v-269q0 -44 40 -44h69l-6 -91h-89q-57 0 -87.5 26.5t-30.5 74.5v303h-185v-269q0 -44 40 -44h70l-6 -91h-100q-50 0 -78.5 28t-28.5 73z" />
    <glyph glyph-name="f_t" horiz-adv-x="639" 
d="M389 101v303h-186v-404h-103v404h-90v94h90v104q0 46 25.5 73.5t74.5 27.5h107l6 -93h-69q-40 0 -40 -44v-68h185v97l104 8v-105h116v-94h-116v-269q0 -44 42 -44h68l-7 -91h-89q-118 0 -118 101z" />
    <glyph glyph-name="f_y" horiz-adv-x="827" 
d="M388 81v323h-185v-404h-103v404h-90v94h90v104q0 46 25.5 73.5t74.5 27.5h107l6 -93h-69q-40 0 -40 -44v-68h288v-365q0 -39 37 -39h105q40 0 40 42v362h103v-627q0 -45 -29 -73t-79 -28h-259l-5 96h229q40 0 40 44v114l-23 -24h-187q-34 0 -55 21.5t-21 59.5z" />
    <glyph glyph-name="f_f_y" horiz-adv-x="1097" 
d="M678 81v323h-185v-404h-104v404h-186v-404h-103v404h-90v94h90v81q0 46 25.5 73.5t74.5 27.5h103l5 -93h-64q-40 0 -40 -44v-45h186v104q0 46 25.5 73.5t74.5 27.5h107l5 -93h-68q-40 0 -40 -44v-68h288v-365q0 -39 37 -39h105q40 0 40 42v362h103v-627q0 -45 -29 -73
t-79 -28h-259l-5 96h229q40 0 40 44v114l-23 -24h-187q-34 0 -55 21.5t-21 59.5z" />
    <glyph glyph-name="c_t" horiz-adv-x="802" 
d="M60 93v311q0 44 25 69t68 25h170l-20 34v80q0 38 20.5 59.5t54.5 21.5h203q34 0 54.5 -21.5t20.5 -59.5v-114h116v-94h-116v-269q0 -44 40 -44h70l-6 -91h-103q-49 0 -76.5 28t-27.5 73v303h-88v94h88v78q0 34 -37 34h-90q-37 0 -37 -34v-78l6 -96h-193q-18 0 -28.5 -9.5
t-10.5 -25.5v-231q0 -40 39 -40h193l-6 -96h-236q-44 0 -68.5 25.5t-24.5 67.5z" />
    <glyph glyph-name="s_t" horiz-adv-x="790" 
d="M317 0h-261l-6 93h208q35 0 35 32v20q0 30 -36 39l-128 32q-39 9 -57 27.5t-18 53.5v120q0 38 20.5 59.5t54.5 21.5h181l-20 33v81q0 38 20.5 59.5t54.5 21.5h204q34 0 54.5 -21.5t20.5 -59.5v-114h116v-94h-116v-269q0 -44 40 -44h70l-6 -91h-104q-49 0 -76.5 28
t-27.5 73v303h-88v94h88v78q0 34 -37 34h-90q-37 0 -37 -34v-78l6 -95h-191q-37 0 -37 -32v-24q0 -26 32 -35l131 -34q41 -12 58 -30t17 -55v-112q0 -38 -20.5 -59.5t-54.5 -21.5z" />
    <glyph glyph-name="a.alt" horiz-adv-x="528" 
d="M60 101v296q0 46 28 73.5t76 27.5h170l26 -25l22 25h76v-498h-75l-25 22l-23 -22h-170q-48 0 -76.5 26.5t-28.5 74.5zM159 365v-231q0 -42 40 -42h119q40 0 40 43v225q0 45 -40 45h-118q-41 0 -41 -40z" />
    <glyph glyph-name="Euro.tab" horiz-adv-x="555" 
d="M111 123v95h-91l10 91h81v74h-72l10 91h62v102q0 55 29 88.5t91 33.5h285l6 -92h-263q-45 0 -45 -44v-88h274l-10 -91h-264v-74h255l-10 -91h-245v-80q0 -45 40 -45h277v-93h-300q-120 0 -120 123z" />
    <glyph glyph-name="dollar.tab" horiz-adv-x="566" 
d="M238 0h-139l-6 96h250q37 0 37 34v112q0 32 -32 43l-183 41q-75 16 -75 85v207q0 38 20.5 59.5t54.5 21.5h73v90h92v-90h130l6 -96h-235q-37 0 -37 -34v-100q0 -31 33 -41l182 -42q75 -16 75 -85v-220q0 -38 -20.5 -59.5t-54.5 -21.5h-79v-90h-92v90z" />
    <glyph glyph-name="cent.tab" horiz-adv-x="500" 
d="M70 81v335q0 38 20.5 59.5t54.5 21.5h79v90h92v-90h113l6 -96h-225q-37 0 -37 -34v-237q0 -34 37 -34h225l-6 -96h-113v-90h-92v90h-79q-34 0 -54.5 21.5t-20.5 59.5z" />
    <glyph glyph-name="sterling.tab" horiz-adv-x="550" 
d="M511 0h-451v96h73l4 204h-76l8 89h71l6 228q1 39 21 60t54 21h265l6 -96h-205q-36 0 -37 -34l-5 -179h221l-8 -89h-215l-5 -204h273v-96z" />
    <glyph glyph-name="florin.tab" horiz-adv-x="480" 
d="M24 -230l12 92h65q39 0 45 44l38 392h-90l9 91h90l20 208q4 45 34.5 73t80.5 28h100l-9 -94h-66q-39 0 -44 -44l-17 -171h108l-9 -91h-107l-42 -431q-4 -43 -36.5 -70t-82.5 -27h-99z" />
    <glyph glyph-name="yen.tab" horiz-adv-x="559" 
d="M326 0h-105v217h-134v72h134v72h-134v72h94l-151 265h119l126 -230l133 230h120l-158 -265h86v-72h-130v-72h130v-72h-130v-217z" />
    <glyph glyph-name="agrave.alt" horiz-adv-x="528" 
d="M60 101v296q0 46 28 73.5t76 27.5h170l26 -25l22 25h76v-498h-75l-25 22l-23 -22h-170q-48 0 -76.5 26.5t-28.5 74.5zM159 365v-231q0 -42 40 -42h119q40 0 40 43v225q0 45 -40 45h-118q-41 0 -41 -40zM160 671h104l52 -125h-84z" />
    <glyph glyph-name="aacute.alt" horiz-adv-x="528" 
d="M60 101v296q0 46 28 73.5t76 27.5h170l26 -25l22 25h76v-498h-75l-25 22l-23 -22h-170q-48 0 -76.5 26.5t-28.5 74.5zM159 365v-231q0 -42 40 -42h119q40 0 40 43v225q0 45 -40 45h-118q-41 0 -41 -40zM284 546h-84l52 125h104z" />
    <glyph glyph-name="acircumflex.alt" horiz-adv-x="528" 
d="M60 101v296q0 46 28 73.5t76 27.5h170l26 -25l22 25h76v-498h-75l-25 22l-23 -22h-170q-48 0 -76.5 26.5t-28.5 74.5zM159 365v-231q0 -42 40 -42h119q40 0 40 43v225q0 45 -40 45h-118q-41 0 -41 -40zM225 546h-94l77 125h103l79 -125h-100l-32 51z" />
    <glyph glyph-name="atilde.alt" horiz-adv-x="528" 
d="M60 101v296q0 46 28 73.5t76 27.5h170l26 -25l22 25h76v-498h-75l-25 22l-23 -22h-170q-48 0 -76.5 26.5t-28.5 74.5zM159 365v-231q0 -42 40 -42h119q40 0 40 43v225q0 45 -40 45h-118q-41 0 -41 -40zM288 553l-83 29l-21 -30h-76l72 113h57l90 -28l22 28h74l-70 -112
h-65z" />
    <glyph glyph-name="adieresis.alt" horiz-adv-x="528" 
d="M60 101v296q0 46 28 73.5t76 27.5h170l26 -25l22 25h76v-498h-75l-25 22l-23 -22h-170q-48 0 -76.5 26.5t-28.5 74.5zM159 365v-231q0 -42 40 -42h119q40 0 40 43v225q0 45 -40 45h-118q-41 0 -41 -40zM217 565h-88v89h88v-89zM374 565h-89v89h89v-89z" />
    <glyph glyph-name="amacron.alt" horiz-adv-x="528" 
d="M60 101v296q0 46 28 73.5t76 27.5h170l26 -25l22 25h76v-498h-75l-25 22l-23 -22h-170q-48 0 -76.5 26.5t-28.5 74.5zM159 365v-231q0 -42 40 -42h119q40 0 40 43v225q0 45 -40 45h-118q-41 0 -41 -40zM359 570h-229v79h229v-79z" />
    <glyph glyph-name="abreve.alt" horiz-adv-x="528" 
d="M60 101v296q0 46 28 73.5t76 27.5h170l26 -25l22 25h76v-498h-75l-25 22l-23 -22h-170q-48 0 -76.5 26.5t-28.5 74.5zM159 365v-231q0 -42 40 -42h119q40 0 40 43v225q0 45 -40 45h-118q-41 0 -41 -40zM321 556h-135q-17 0 -28.5 10.5t-11.5 27.5v64l65 3v-21
q0 -24 23 -24h39q23 0 23 24v21l65 -3v-64q0 -17 -11.5 -27.5t-28.5 -10.5z" />
    <glyph glyph-name="aring.alt" horiz-adv-x="528" 
d="M261 541h-13q-35 0 -54 19.5t-19 51.5v22q0 33 19 52t54 19h13q35 0 54.5 -19t19.5 -52v-22q0 -32 -19.5 -51.5t-54.5 -19.5zM247 588h15q26 0 26 29v12q0 29 -26 29h-15q-25 0 -25 -29v-12q0 -29 25 -29zM60 101v296q0 46 28 73.5t76 27.5h170l26 -25l22 25h76v-498h-75
l-25 22l-23 -22h-170q-48 0 -76.5 26.5t-28.5 74.5zM159 365v-231q0 -42 40 -42h119q40 0 40 43v225q0 45 -40 45h-118q-41 0 -41 -40z" />
    <glyph glyph-name="aogonek.alt" horiz-adv-x="528" 
d="M60 101v296q0 46 28 73.5t76 27.5h170l26 -25l22 25h76v-498l-60 -114q0 -34 37 -34h21l-6 -82h-65q-88 0 -88 81l86 149l-21 22l-21 -22h-176q-48 0 -76.5 26.5t-28.5 74.5zM159 365v-231q0 -42 40 -42h119q40 0 40 43v225q0 45 -40 45h-118q-41 0 -41 -40z" />
    <glyph glyph-name="ae.alt" horiz-adv-x="775" 
d="M60 101v296q0 46 28 73.5t76 27.5h197l25 -25q26 25 72 25h192q50 0 77.5 -28t27.5 -74v-201h-297v-60q0 -43 41 -43h240l-6 -92h-274q-44 0 -70 22l-23 -22h-201q-48 0 -76.5 26.5t-28.5 74.5zM159 365v-231q0 -42 40 -42h119q40 0 40 43v231q-3 39 -40 39h-118
q-41 0 -41 -40zM458 371v-85h198v78q0 41 -39 41h-119q-37 0 -40 -34z" />
    <glyph glyph-name="aeacute.alt" horiz-adv-x="775" 
d="M60 101v294q0 46 28 74.5t76 28.5h188l27 -25l22 25h210q48 0 76 -28.5t28 -74.5v-200h-278v-62q0 -41 40 -41h222l-6 -92h-288l-25 22l-24 -22h-191q-48 0 -76.5 26.5t-28.5 74.5zM159 365v-231q0 -42 40 -42h99q40 0 40 39v229q0 45 -40 45h-98q-41 0 -41 -40zM437 368
v-82h179v83q0 19 -8 27.5t-29 8.5h-103q-39 0 -39 -37zM424 546h-84l52 125h104z" />
    <glyph glyph-name="one.alt" horiz-adv-x="357" 
d="M337 0h-317v92h108v514h-108v93h317v-93h-106v-514h106v-92z" />
    <glyph glyph-name="k.alt" horiz-adv-x="494" 
d="M173 0h-103v699l103 7v-463l169 255h113l-137 -214l146 -284h-110l-102 197l-79 -111v-86z" />
    <glyph glyph-name="hyphen.alt" horiz-adv-x="325" 
d="M290 223l-255 -30v91l255 30v-91z" />
    <glyph glyph-name="Q.alt" horiz-adv-x="624" 
d="M70 122v455q0 122 120 122h234q120 0 120 -122v-455q0 -28 -4 -43l95 -107l-79 -64l-90 100q-27 -8 -65 -8h-211q-120 0 -120 122zM173 565v-431q0 -19 12 -31.5t33 -12.5h178q45 0 45 44v431q0 44 -45 44h-178q-21 0 -33 -12.5t-12 -31.5z" />
    <glyph glyph-name="kcommaaccent.alt" horiz-adv-x="494" 
d="M216 -149v103h96v-102l-25 -82h-74l25 81h-22zM173 0h-103v699l103 7v-463l169 255h113l-137 -214l146 -284h-110l-102 197l-79 -111v-86z" />
    <glyph glyph-name="oe.alt" horiz-adv-x="765" 
d="M60 101v296q0 45 27.5 73t76.5 28h180q27 0 51 -12q23 12 53 12h192q50 0 77.5 -28t27.5 -74v-201h-298v-60q0 -43 41 -43h241l-6 -92h-274q-33 0 -52 10q-19 -10 -51 -10h-182q-49 0 -76.5 28t-27.5 73zM159 361v-225q0 -44 40 -44h109q40 0 40 40v236q0 37 -39 37h-109
q-41 0 -41 -44zM447 366v-80h199v78q0 41 -39 41h-120q-40 0 -40 -39z" />
    <glyph glyph-name="minus.oldstyle" horiz-adv-x="484" 
d="M434 263h-384v87h384v-87z" />
    <glyph glyph-name="multiply.oldstyle" horiz-adv-x="431" 
d="M215 245l-109 -109l-61 62l109 109l-106 104l62 62l105 -105l109 109l62 -61l-109 -109l104 -105l-61 -61z" />
    <glyph glyph-name="plus.oldstyle" horiz-adv-x="484" 
d="M285 107h-87v156h-148v87h148v159h87v-159h149v-87h-149v-156z" />
    <glyph glyph-name="divide.oldstyle" horiz-adv-x="484" 
d="M434 262h-384v87h384v-87zM287 426h-100v97h100v-97zM287 86h-100v97h100v-97z" />
    <glyph glyph-name="equal.oldstyle" horiz-adv-x="484" 
d="M434 357h-384v87h384v-87zM434 170h-384v87h384v-87z" />
    <glyph glyph-name="notequal.oldstyle" horiz-adv-x="484" 
d="M179 88h-82l41 82h-88v87h133l51 100h-184v87h228l39 77h82l-39 -77h74v-87h-119l-50 -100h169v-87h-214z" />
    <glyph glyph-name="less.oldstyle" horiz-adv-x="506" 
d="M446 -3l-386 204v91l386 206v-98l-299 -152l299 -155v-96z" />
    <glyph glyph-name="greater.oldstyle" horiz-adv-x="506" 
d="M60 498l386 -206v-91l-386 -204v96l298 155l-298 152v98z" />
    <glyph glyph-name="one.oldstyle.alt" horiz-adv-x="387" 
d="M30 403v95h327v-95h-110v-307h110v-96h-327v96h113v307h-113z" />
    <glyph glyph-name="I.alt" horiz-adv-x="263" 
d="M183 0h-103v699h103v-699z" />
    <glyph glyph-name="Iacute.alt" horiz-adv-x="263" 
d="M183 0h-103v699h103v-699zM166 744h-84l42 115h104z" />
    <glyph glyph-name="Igrave.alt" horiz-adv-x="263" 
d="M183 0h-103v699h103v-699zM30 859h104l42 -115h-84z" />
    <glyph glyph-name="Icircumflex.alt" horiz-adv-x="263" 
d="M99 744h-94l77 115h103l79 -115h-100l-32 49zM183 0h-103v699h103v-699z" />
    <glyph glyph-name="Idieresis.alt" horiz-adv-x="263" 
d="M252 756h-91v91h91v-91zM103 756h-91v91h91v-91zM183 0h-103v699h103v-699z" />
    <glyph glyph-name="Idotaccent.alt" horiz-adv-x="263" 
d="M183 0h-103v699h103v-699zM176 756h-91v91h91v-91z" />
    <glyph glyph-name="Iogonek.alt" horiz-adv-x="264" 
d="M96 0h-16v655h104v-655h-13l-59 -114q0 -34 37 -34h21l-6 -82h-79q-34 0 -54.5 21.5t-20.5 59.5z" />
    <glyph glyph-name="Imacron.alt" horiz-adv-x="263" 
d="M183 0h-103v699h103v-699zM247 760h-229v84h229v-84z" />
    <glyph glyph-name="Itilde.alt" horiz-adv-x="263" 
d="M155 746l-83 29l-21 -30h-76l72 113h57l90 -28l22 28h74l-70 -112h-65zM183 0h-103v699h103v-699z" />
    <glyph glyph-name="Ibreve.alt" horiz-adv-x="263" 
d="M194 748h-126q-40 0 -40 47v55l65 3v-21q0 -24 23 -24h39q23 0 23 24v21l65 -3v-64q0 -38 -49 -38zM183 0h-103v699h103v-699z" />
    <glyph glyph-name="IJ.alt" horiz-adv-x="518" 
d="M327 0h-74l-5 93h46q41 0 41 41v565h103v-590q0 -50 -28 -79.5t-83 -29.5zM183 0h-103v699h103v-699z" />
    <glyph glyph-name="J.alt" horiz-adv-x="273" 
d="M82 0h-74l-5 93h46q41 0 41 41v565h103v-590q0 -50 -28 -79.5t-83 -29.5z" />
    <glyph glyph-name="Jcircumflex.alt" horiz-adv-x="273" 
d="M82 0h-74l-5 93h46q41 0 41 41v565h103v-590q0 -50 -28 -79.5t-83 -29.5zM108 744h-94l77 115h103l79 -115h-100l-32 49z" />
    <glyph glyph-name="f_f_t" horiz-adv-x="950" 
d="M700 101v303h-186v-404h-103v404h-208v-404h-103v404h-90v94h90v81q0 46 25.5 73.5t74.5 27.5h103l6 -93h-65q-40 0 -40 -44v-45h207v104q0 46 25.5 73.5t74.5 27.5h107l6 -93h-69q-40 0 -40 -44v-68h185v97l104 8v-105h116v-94h-116v-269q0 -44 42 -44h68l-6 -91h-89
q-59 0 -89 26t-30 75z" />
    <glyph glyph-name="f_f_r" horiz-adv-x="955" 
d="M203 0h-103v404h-90v94h90v81q0 46 25.5 73.5t74.5 27.5h103l6 -93h-65q-40 0 -40 -44v-45h186v107q0 46 25.5 73.5t74.5 27.5h106l6 -93h-69q-40 0 -40 -44v-71h263l25 -23l22 23h122l-14 -100h-89q-40 0 -40 -43v-355h-104v404h-186v-404h-103v404h-186v-404z" />
    <glyph glyph-name="f_r" horiz-adv-x="665" 
d="M203 0h-103v404h-90v94h90v104q0 46 25.5 73.5t74.5 27.5h107l6 -93h-69q-40 0 -40 -44v-68h262l25 -23l22 23h122l-14 -100h-89q-40 0 -40 -43v-355h-103v404h-186v-404z" />
    <glyph glyph-name="Racute.alt" horiz-adv-x="594" 
d="M183 0h-103v699h317q120 0 120 -119v-180q0 -26 -10.5 -47t-23.5 -29l-11 -6q7 -2 14 -6q11 -4 24.5 -23t13.5 -43v-246h-106v224q0 19 -13.5 31.5t-36.5 12.5h-185v-268zM183 606v-245h182q20 0 32.5 13.5t12.5 33.5v152q0 46 -45 46h-182zM336 744h-84l42 115h104z" />
    <glyph glyph-name="Rcaron.alt" horiz-adv-x="594" 
d="M183 0h-103v699h317q120 0 120 -119v-180q0 -26 -10.5 -47t-23.5 -29l-11 -6q7 -2 14 -6q11 -4 24.5 -23t13.5 -43v-246h-106v224q0 19 -13.5 31.5t-36.5 12.5h-185v-268zM183 606v-245h182q20 0 32.5 13.5t12.5 33.5v152q0 46 -45 46h-182zM334 744h-83l-87 115h96
l33 -42l32 42h98z" />
    <glyph glyph-name="Rcommaaccent.alt" horiz-adv-x="594" 
d="M259 -149v103h96v-102l-24 -82h-75l26 81h-23zM183 0h-103v699h317q120 0 120 -119v-180q0 -26 -10.5 -47t-23.5 -29l-11 -6q7 -2 14 -6q11 -4 24.5 -23t13.5 -43v-246h-106v224q0 19 -13.5 31.5t-36.5 12.5h-185v-268zM183 606v-245h182q20 0 32.5 13.5t12.5 33.5v152
q0 46 -45 46h-182z" />
    <glyph glyph-name="l.alt" horiz-adv-x="241" 
d="M70 111v587l104 8v-567q0 -48 45 -48h16l-3 -91h-47q-115 0 -115 111z" />
    <glyph glyph-name="kgreenlandic.alt" horiz-adv-x="494" 
d="M173 0h-103v498l103 7v-262l169 255h113l-137 -214l146 -284h-110l-102 197l-79 -111v-86z" />
    <glyph glyph-name="hyphen.cap.alt" horiz-adv-x="315" 
d="M285 320l-255 -30v91l255 30v-91z" />
    <glyph glyph-name="aringacute.small" horiz-adv-x="489" 
d="M250 596h-13q-35 0 -54 19.5t-19 51.5v22q0 33 19 52t54 19h13q35 0 54.5 -19t19.5 -52v-22q0 -32 -19.5 -51.5t-54.5 -19.5zM236 643h15q26 0 26 29v12q0 29 -26 29h-15q-25 0 -25 -29v-12q0 -29 25 -29zM260 801h-84l52 105h104zM244 381l-53 -175h105zM131 0h-111
l171 556h102l176 -556h-113l-36 112h-155z" />
    <glyph glyph-name="aringacute.alt" horiz-adv-x="528" 
d="M60 101v296q0 46 28 73.5t76 27.5h170l26 -25l22 25h76v-498h-75l-25 22l-23 -22h-170q-48 0 -76.5 26.5t-28.5 74.5zM159 365v-231q0 -42 40 -42h119q40 0 40 43v225q0 45 -40 45h-118q-41 0 -41 -40zM251 541h-13q-35 0 -54 19.5t-19 51.5v22q0 33 19 52t54 19h13
q35 0 54.5 -19t19.5 -52v-22q0 -32 -19.5 -51.5t-54.5 -19.5zM237 588h15q26 0 26 29v12q0 29 -26 29h-15q-25 0 -25 -29v-12q0 -29 25 -29zM264 741h-84l52 125h104z" />
    <glyph glyph-name="colon.alt" horiz-adv-x="218" 
d="M161 139h-104v113h104v-113zM161 461h-104v114h104v-114z" />
    <glyph glyph-name="fl.alt" horiz-adv-x="563" 
d="M389 111v495h-145q-40 0 -40 -44v-64h108v-94h-109v-404h-103v404h-90v94h90v100q0 46 26 73.5t74 27.5h190l103 7v-567q0 -48 45 -48h16l-3 -91h-47q-115 0 -115 111z" />
    <glyph glyph-name="ffl.alt" horiz-adv-x="852" 
d="M678 111v495h-145q-40 0 -40 -44v-64h108v-94h-108v-404h-104v404h-186v-404h-103v404h-90v94h90v81q0 46 25.5 73.5t74.5 27.5h103l6 -93h-65q-40 0 -40 -44v-45h185v100q0 101 123 101h166l104 7v-567q0 -48 45 -48h16l-3 -91h-47q-115 0 -115 111z" />
    <glyph glyph-name="f_k.alt" horiz-adv-x="793" 
d="M563 197l-71 -111v-86h-103v606h-145q-40 0 -40 -44v-64h108v-94h-109v-404h-103v404h-90v94h90v90q0 111 123 111h166l103 7v-463l149 255h113l-122 -214l131 -284h-110z" />
    <glyph glyph-name="f_f_k.alt" horiz-adv-x="1083" 
d="M853 197l-71 -111v-86h-103v606h-146q-40 0 -40 -44v-64h108v-94h-108v-404h-104v404h-186v-404h-103v404h-90v94h90v81q0 46 25.5 73.5t74.5 27.5h103l6 -93h-65q-40 0 -40 -44v-45h185v100q0 101 117 101h174l102 7v-463l149 255h113l-122 -214l131 -284h-110z" />
    <glyph glyph-name="i.small.alt" horiz-adv-x="246" 
d="M176 0h-106v556h106v-556z" />
    <glyph glyph-name="j.small.alt" horiz-adv-x="245" 
d="M73 0h-59l-4 87h38q22 0 22 25v444h105v-452q0 -51 -23 -77.5t-79 -26.5z" />
    <glyph glyph-name="dotlessi.small.alt" horiz-adv-x="246" 
d="M176 0h-106v556h106v-556z" />
    <glyph glyph-name="dotlessj.small.alt" horiz-adv-x="245" 
d="M73 0h-59l-4 87h38q22 0 22 25v444h105v-452q0 -51 -23 -77.5t-79 -26.5z" />
    <glyph glyph-name="igrave.small.alt" horiz-adv-x="246" 
d="M26 708h104l42 -115h-84zM176 0h-106v556h106v-556z" />
    <glyph glyph-name="iacute.small.alt" horiz-adv-x="248" 
d="M162 593h-84l42 115h104zM176 0h-106v556h106v-556z" />
    <glyph glyph-name="icircumflex.small.alt" horiz-adv-x="246" 
d="M90 593h-94l77 115h103l79 -115h-100l-32 49zM176 0h-106v556h106v-556z" />
    <glyph glyph-name="itilde.small.alt" horiz-adv-x="246" 
d="M144 595l-83 29l-21 -30h-76l72 113h57l90 -28l22 28h74l-70 -112h-65zM176 0h-106v556h106v-556z" />
    <glyph glyph-name="idieresis.small.alt" horiz-adv-x="246" 
d="M245 606h-88v89h88v-89zM85 606h-89v89h89v-89zM176 0h-106v556h106v-556z" />
    <glyph glyph-name="imacron.small.alt" horiz-adv-x="246" 
d="M237 611h-229v79h229v-79zM176 0h-106v556h106v-556z" />
    <glyph glyph-name="ibreve.small.alt" horiz-adv-x="246" 
d="M176 0h-106v556h106v-556zM188 601h-128q-17 0 -28.5 10.5t-11.5 27.5v61l62 3v-21q0 -24 23 -24h39q23 0 23 24v21l61 -3v-61q0 -17 -11.5 -27.5t-28.5 -10.5z" />
    <glyph glyph-name="idotaccent.small.alt" horiz-adv-x="246" 
d="M166 603h-87v88h87v-88zM176 0h-106v556h106v-556z" />
    <glyph glyph-name="iogonek.small.alt" horiz-adv-x="246" 
d="M81 0h-11v556h106v-556h-6l-56 -103q0 -34 37 -34h16l-6 -93h-93q-34 0 -54.5 21.5t-20.5 59.5z" />
    <glyph glyph-name="k.small.alt" horiz-adv-x="532" 
d="M176 0h-106v556h106v-326l191 326h110l-142 -254l157 -302h-110l-108 204l-98 -151v-53z" />
    <glyph glyph-name="kcommaaccent.small.alt" horiz-adv-x="532" 
d="M233 -149v103h96v-102l-24 -82h-74l25 81h-23zM176 0h-106v556h106v-326l191 326h110l-142 -254l157 -302h-110l-108 204l-98 -151v-53z" />
    <glyph glyph-name="kgreenlandic.small.alt" horiz-adv-x="532" 
d="M176 0h-106v556h106v-326l191 326h110l-142 -254l157 -302h-110l-108 204l-98 -151v-53z" />
    <glyph glyph-name="m.small.alt" horiz-adv-x="570" 
d="M176 0h-106v556h100l116 -417l111 417h103v-556h-105v248l-65 -248h-88l-66 243v-243z" />
    <glyph glyph-name="q.small.alt" horiz-adv-x="549" 
d="M60 104v349q0 49 26.5 76t75.5 27h225q50 0 76 -27t26 -76v-349q0 -23 -5 -40l78 -82l-67 -63l-84 85q-15 -4 -53 -4h-196q-49 0 -75.5 27t-26.5 77zM166 418v-281q0 -19 12 -31.5t33 -12.5h129q45 0 45 44v281q0 44 -45 44h-129q-21 0 -33 -12.5t-12 -31.5z" />
    <glyph glyph-name="r.small.alt" horiz-adv-x="523" 
d="M176 0h-106v556h284q102 0 102 -101v-160q0 -35 -20 -55l-7 -7q31 -16 34 -54v-179h-101v142q0 46 -44 46h-142v-188zM176 459v-174h132q44 0 44 43v86q0 45 -45 45h-131z" />
    <glyph glyph-name="racute.small.alt" horiz-adv-x="523" 
d="M297 593h-84l51 106h105zM176 0h-106v556h284q102 0 102 -101v-160q0 -35 -20 -55l-7 -7q31 -16 34 -54v-179h-101v142q0 46 -44 46h-142v-188zM176 459v-174h132q44 0 44 43v86q0 45 -45 45h-131z" />
    <glyph glyph-name="rcaron.small.alt" horiz-adv-x="523" 
d="M295 698h99l-79 -106h-100l-79 106h94l33 -39zM176 0h-106v556h284q102 0 102 -101v-160q0 -35 -20 -55l-7 -7q31 -16 34 -54v-179h-101v142q0 46 -44 46h-142v-188zM176 459v-174h132q44 0 44 43v86q0 45 -45 45h-131z" />
    <glyph glyph-name="rcommaaccent.small.alt" horiz-adv-x="523" 
d="M227 -149v103h96v-102l-24 -82h-74l25 81h-23zM176 0h-106v556h284q102 0 102 -101v-160q0 -35 -20 -55l-7 -7q31 -16 34 -54v-179h-101v142q0 46 -44 46h-142v-188zM176 459v-174h132q44 0 44 43v86q0 45 -45 45h-131z" />
    <glyph glyph-name="ij.small.alt" horiz-adv-x="490" 
d="M318 0h-59l-4 87h38q22 0 22 25v444h105v-452q0 -51 -23 -77.5t-79 -26.5zM176 0h-106v556h106v-556z" />
    <glyph glyph-name="jcircumflex.small.alt" horiz-adv-x="245" 
d="M73 0h-59l-4 87h38q22 0 22 25v444h105v-452q0 -51 -23 -77.5t-79 -26.5zM89 593h-94l77 115h103l79 -115h-100l-32 49z" />
    <glyph glyph-name="germandbls.case" horiz-adv-x="617" 
d="M413 295l-91 73v89l98 156h-194q-43 0 -43 -44v-569h-103v605q0 44 26 72.5t78 28.5h340v-93l-106 -180l73 -60q31 -24 43.5 -48.5t12.5 -59.5v-184q0 -38 -20.5 -59.5t-54.5 -21.5h-164l-6 93h104q37 0 37 34v109q0 35 -30 59z" />
    <glyph glyph-name="p.small.alt" horiz-adv-x="493" 
d="M299 462h-124v-462h-105v556h276q56 0 79 -22.5t23 -73.5v-159q0 -101 -102 -101h-126v94h79q45 0 45 44v80q0 44 -45 44z" />
    <glyph glyph-name="P.alt" horiz-adv-x="577" 
d="M358 606h-175v-606h-103v699h307q65 0 92.5 -26t27.5 -87v-196q0 -118 -120 -118h-143v93h114q45 0 45 44v152q0 45 -45 45z" />
    </font>
</defs>
</svg>
